<svg xmlns="http://www.w3.org/2000/svg" xmlns:xlink="http://www.w3.org/1999/xlink" width="118" height="118" viewBox="0 0 118 118">
  <defs>
    <filter id="Trazado_982547" x="0" y="0" width="118" height="118" filterUnits="userSpaceOnUse">
      <feOffset dy="3" input="SourceAlpha"/>
      <feGaussianBlur stdDeviation="3" result="blur"/>
      <feFlood flood-opacity="0.161"/>
      <feComposite operator="in" in2="blur"/>
      <feComposite in="SourceGraphic"/>
    </filter>
  </defs>
  <g id="Grupo_1223960" data-name="Grupo 1223960" transform="translate(-741 -5120.756)">
    <g id="Grupo_1223828" data-name="Grupo 1223828" transform="translate(750 5126.756)">
      <g id="Grupo_1223741" data-name="Grupo 1223741">
        <g id="Grupo_1223199" data-name="Grupo 1223199">
          <g id="Grupo_1211216" data-name="Grupo 1211216" transform="translate(0)">
            <g id="Grupo_1210737" data-name="Grupo 1210737">
              <g id="Grupo_1210537" data-name="Grupo 1210537">
                <g id="Grupo_1164202" data-name="Grupo 1164202">
                  <g id="Grupo_1158168" data-name="Grupo 1158168">
                    <g id="Grupo_1152576" data-name="Grupo 1152576">
                      <g id="Grupo_1148633" data-name="Grupo 1148633">
                        <g id="Grupo_1148525" data-name="Grupo 1148525">
                          <g transform="matrix(1, 0, 0, 1, -9, -6)" filter="url(#Trazado_982547)">
                            <g id="Trazado_982547-2" data-name="Trazado 982547" transform="translate(9 6)" fill="#fcf5f0">
                              <path d="M 49.99999618530273 98.5 C 43.45188140869141 98.5 37.10042572021484 97.21786499023438 31.12206840515137 94.68923950195312 C 25.34691047668457 92.24655151367188 20.15996742248535 88.74931335449219 15.70532512664795 84.29468536376953 C 11.25068187713623 79.84004211425781 7.753438949584961 74.65309906005859 5.310753345489502 68.87792205810547 C 2.782124757766724 62.89956665039062 1.499996185302734 56.54811096191406 1.499996185302734 49.99999618530273 C 1.499996185302734 43.45188140869141 2.782124757766724 37.10042572021484 5.310753345489502 31.12206840515137 C 7.753438949584961 25.34691047668457 11.25068187713623 20.15996742248535 15.70532512664795 15.70532512664795 C 20.15996742248535 11.25068187713623 25.34691047668457 7.753438949584961 31.12206840515137 5.310753345489502 C 37.10042572021484 2.782124757766724 43.45188140869141 1.499996185302734 49.99999618530273 1.499996185302734 C 56.54811096191406 1.499996185302734 62.89956665039062 2.782124757766724 68.87792205810547 5.310753345489502 C 74.65309906005859 7.753438949584961 79.84004211425781 11.25068187713623 84.29468536376953 15.70532512664795 C 88.74931335449219 20.15996742248535 92.24655151367188 25.34691047668457 94.68923950195312 31.12206840515137 C 97.21786499023438 37.10042572021484 98.5 43.45188140869141 98.5 49.99999618530273 C 98.5 56.54811096191406 97.21786499023438 62.89956665039062 94.68923950195312 68.87792205810547 C 92.24655151367188 74.65309906005859 88.74931335449219 79.84004211425781 84.29468536376953 84.29468536376953 C 79.84004211425781 88.74931335449219 74.65309906005859 92.24655151367188 68.87792205810547 94.68923950195312 C 62.89956665039062 97.21786499023438 56.54811096191406 98.5 49.99999618530273 98.5 Z" stroke="none"/>
                              <path d="M 49.99999618530273 2.999992370605469 C 43.65372085571289 2.999992370605469 37.49885940551758 4.242256164550781 31.70639801025391 6.6922607421875 C 26.11002349853516 9.059318542480469 21.08335113525391 12.4486083984375 16.76598358154297 16.76598358154297 C 12.4486083984375 21.08335113525391 9.059318542480469 26.11002349853516 6.6922607421875 31.70639801025391 C 4.242256164550781 37.49885940551758 2.999992370605469 43.65372085571289 2.999992370605469 49.99999618530273 C 2.999992370605469 56.34627151489258 4.242256164550781 62.50113296508789 6.6922607421875 68.29359436035156 C 9.059318542480469 73.88996887207031 12.4486083984375 78.91664123535156 16.76598358154297 83.2340087890625 C 21.08335113525391 87.55138397216797 26.11002349853516 90.940673828125 31.70639801025391 93.30773162841797 C 37.49885940551758 95.75773620605469 43.65372085571289 97 49.99999618530273 97 C 56.34627151489258 97 62.50113296508789 95.75773620605469 68.29359436035156 93.30773162841797 C 73.88996887207031 90.940673828125 78.91664123535156 87.55138397216797 83.2340087890625 83.2340087890625 C 87.55138397216797 78.91664123535156 90.940673828125 73.88996887207031 93.30773162841797 68.29359436035156 C 95.75773620605469 62.50113296508789 97 56.34627151489258 97 49.99999618530273 C 97 43.65372085571289 95.75773620605469 37.49885940551758 93.30773162841797 31.70639801025391 C 90.940673828125 26.11002349853516 87.55138397216797 21.08335113525391 83.2340087890625 16.76598358154297 C 78.91664123535156 12.4486083984375 73.88996887207031 9.059318542480469 68.29359436035156 6.6922607421875 C 62.50113296508789 4.242256164550781 56.34627151489258 2.999992370605469 49.99999618530273 2.999992370605469 M 49.99999618530273 -7.62939453125e-06 C 77.61422729492188 -7.62939453125e-06 100 22.38576507568359 100 49.99999618530273 C 100 77.61422729492188 77.61422729492188 100 49.99999618530273 100 C 22.38576507568359 100 -7.62939453125e-06 77.61422729492188 -7.62939453125e-06 49.99999618530273 C -7.62939453125e-06 22.38576507568359 22.38576507568359 -7.62939453125e-06 49.99999618530273 -7.62939453125e-06 Z" stroke="none" fill="#eca675"/>
                            </g>
                          </g>
                        </g>
                      </g>
                    </g>
                  </g>
                </g>
              </g>
            </g>
          </g>
        </g>
      </g>
    </g>
    <g id="management_9609329" transform="translate(764.671 5142.426)">
      <path id="Trazado_1179586" data-name="Trazado 1179586" d="M23.3,25.653h3.225L36.2,35.329,35.127,27.8l22.578-2.15a4.3,4.3,0,0,0,4.3-4.3V6.3a4.3,4.3,0,0,0-4.3-4.3H23.3A4.3,4.3,0,0,0,19,6.3V22.428C19,24.8,20.925,25.653,23.3,25.653Z" transform="translate(1.353 0.075)" fill="#e6edff"/>
      <path id="Trazado_1179587" data-name="Trazado 1179587" d="M61.9,5.333a4.764,4.764,0,0,0-.968-.108h-34.4a4.3,4.3,0,0,0-4.3,4.3V25.578c-1.86-.226-3.225-1.15-3.225-3.15V6.3A4.3,4.3,0,0,1,23.3,2h34.4A4.3,4.3,0,0,1,61.9,5.333Z" transform="translate(1.353 0.075)" fill="#ccdcff"/>
      <path id="Trazado_1179588" data-name="Trazado 1179588" d="M4.15,43.052H22.428a2.157,2.157,0,0,0,2.15-2.15v-2.15l9.676,1.075L24.578,32.3V30.15A2.157,2.157,0,0,0,22.428,28H4.15A2.157,2.157,0,0,0,2,30.15V40.9A2.157,2.157,0,0,0,4.15,43.052Z" transform="translate(0.075 2.029)" fill="#ffda73"/>
      <path id="Trazado_1179589" data-name="Trazado 1179589" d="M13.15,63.2H32.5a2.157,2.157,0,0,0,2.15-2.15V57.827l4.3-3.225-4.3-3.225V48.15A2.157,2.157,0,0,0,32.5,46H13.15A2.157,2.157,0,0,0,11,48.15v12.9A2.157,2.157,0,0,0,13.15,63.2Z" transform="translate(0.751 3.381)" fill="#36b385"/>
      <path id="Trazado_1179590" data-name="Trazado 1179590" d="M22.316,50l-1.4,2.828-3.129.462,2.269,2.2L19.521,58.6l2.8-1.473,2.8,1.473-.538-3.107,2.269-2.2-3.129-.462Z" transform="translate(1.262 3.682)" fill="#ffda73"/>
      <g id="Grupo_1223959" data-name="Grupo 1223959" transform="translate(24.653 6.376)">
        <path id="Trazado_1179591" data-name="Trazado 1179591" d="M54.5,37.617a4.3,4.3,0,1,1,3.914,0A4.955,4.955,0,0,1,62.9,42.552v8.418a1.07,1.07,0,0,1-.484.892l-2.269,1.516a1.084,1.084,0,0,0-.484.892v9.1a1.078,1.078,0,0,1-1.075,1.075h-4.3a1.078,1.078,0,0,1-1.075-1.075v-9.1a1.07,1.07,0,0,0-.484-.892l-2.269-1.516a1.084,1.084,0,0,1-.484-.892V42.552a4.964,4.964,0,0,1,4.494-4.935Z" transform="translate(-20.973 -4.234)" fill="#647da6"/>
        <path id="Trazado_1179592" data-name="Trazado 1179592" d="M51.364,40.305a5,5,0,0,0-3.957-2.688,4.3,4.3,0,1,0-3.914,0A4.964,4.964,0,0,0,39,42.552V50.96a1.089,1.089,0,0,0,.484.9l2.258,1.505a1.089,1.089,0,0,1,.484.9v9.1A1.078,1.078,0,0,0,43.3,64.442h4.3a1.078,1.078,0,0,0,1.075-1.075v-9.1a1.089,1.089,0,0,1,.484-.9l2.2-1.473Z" transform="translate(-21.798 -4.234)" fill="#647da6"/>
        <path id="Trazado_1179593" data-name="Trazado 1179593" d="M29.515,20.977a6.823,6.823,0,0,0,2.021,0l.548-1.054a6.809,6.809,0,0,0,1.871-.774l1.129.366a7.505,7.505,0,0,0,1.43-1.43l-.366-1.129a6.545,6.545,0,0,0,.774-1.871l1.054-.548a7.844,7.844,0,0,0,.075-1.011,7.844,7.844,0,0,0-.075-1.011l-1.054-.548a6.809,6.809,0,0,0-.774-1.871l.366-1.129a7.505,7.505,0,0,0-1.43-1.43L33.956,7.9a6.545,6.545,0,0,0-1.871-.774l-.548-1.054a6.823,6.823,0,0,0-2.021,0l-.548,1.054A6.809,6.809,0,0,0,27.1,7.9l-1.129-.366a7.505,7.505,0,0,0-1.43,1.43L24.9,10.1a6.545,6.545,0,0,0-.774,1.871l-1.054.548A7.844,7.844,0,0,0,23,13.526a7.845,7.845,0,0,0,.075,1.011l1.054.548a6.809,6.809,0,0,0,.774,1.871l-.366,1.129a7.505,7.505,0,0,0,1.43,1.43l1.129-.366a6.545,6.545,0,0,0,1.871.774Z" transform="translate(-23 -6)" fill="#647da6"/>
      </g>
      <circle id="Elipse_14744" data-name="Elipse 14744" cx="2.688" cy="2.688" r="2.688" transform="translate(29.491 11.214)" fill="#e6eeff"/>
      <path id="Trazado_1179594" data-name="Trazado 1179594" d="M41,6H57.127V8.15H41Z" transform="translate(3.006 0.376)"/>
      <path id="Trazado_1179595" data-name="Trazado 1179595" d="M41,10h7.526v2.15H41Z" transform="translate(3.006 0.676)"/>
      <path id="Trazado_1179596" data-name="Trazado 1179596" d="M41,14H57.127v2.15H41Z" transform="translate(3.006 0.977)"/>
      <path id="Trazado_1179597" data-name="Trazado 1179597" d="M41,18h7.526v2.15H41Z" transform="translate(3.006 1.277)"/>
      <path id="Trazado_1179598" data-name="Trazado 1179598" d="M11.279,39.645h.086a1.065,1.065,0,0,0,.785-.452l5.376-7.526L15.773,30.42l-4.634,6.494L8.806,34.581,7.29,36.1l3.225,3.225a1.064,1.064,0,0,0,.763.312Z" transform="translate(0.473 2.211)"/>
      <path id="Trazado_1179599" data-name="Trazado 1179599" d="M27.069,52.3l-2.57-.376L23.349,49.6a1.118,1.118,0,0,0-1.925,0l-1.15,2.322L17.7,52.3a1.073,1.073,0,0,0-.6,1.828l1.86,1.806-.441,2.559a1.079,1.079,0,0,0,1.559,1.14l2.29-1.2,2.29,1.2a1.075,1.075,0,0,0,1.57-1.129l-.441-2.559,1.86-1.806a1.073,1.073,0,0,0-.6-1.828Zm-3.161,2.494a1.075,1.075,0,0,0-.312.946l.161.968-.871-.452a1.054,1.054,0,0,0-1.011,0l-.871.452.161-.968a1.037,1.037,0,0,0-.312-.946l-.7-.688.968-.14a1.051,1.051,0,0,0,.806-.591l.43-.882.43.882a1.113,1.113,0,0,0,.806.591l.968.14-.7.688Z" transform="translate(1.186 3.611)"/>
      <path id="Trazado_1179600" data-name="Trazado 1179600" d="M61.546,37.23a5.376,5.376,0,1,0-8.386,0,6.3,6.3,0,0,0-1.731,1.312,6.2,6.2,0,0,0-1.72-1.312,5.376,5.376,0,1,0-8.386,0,6,6,0,0,0-3.333,5.4v8.408a2.146,2.146,0,0,0,.968,1.8l2.258,1.516v9.1a2.157,2.157,0,0,0,2.15,2.15h4.3a2.157,2.157,0,0,0,2.15-2.15V54.336l1.613-1.075,1.613,1.075v9.1a2.157,2.157,0,0,0,2.15,2.15h4.3a2.157,2.157,0,0,0,2.15-2.15v-9.1l2.269-1.516a2.129,2.129,0,0,0,.957-1.785V42.617a6.029,6.029,0,0,0-3.333-5.4ZM48.634,52.551a2.162,2.162,0,0,0-.957,1.8v9.1h-4.3v-9.1a2.146,2.146,0,0,0-.968-1.8l-2.258-1.516V42.627a3.87,3.87,0,0,1,3.526-3.86,1.061,1.061,0,0,0,.946-.871,1.09,1.09,0,0,0-.559-1.161,3.225,3.225,0,1,1,2.924,0,1.081,1.081,0,0,0,.387,2.032,3.891,3.891,0,0,1,2.86,1.7,6.032,6.032,0,0,0-.409,2.161v8.418a2.135,2.135,0,0,0,.108.645l-1.3.871Zm14.1-1.516-2.269,1.516a2.129,2.129,0,0,0-.957,1.785v9.1H55.2v-9.1a2.129,2.129,0,0,0-.957-1.785l-2.269-1.516V42.617a3.87,3.87,0,0,1,3.526-3.86,1.077,1.077,0,0,0,.387-2.032,3.225,3.225,0,1,1,2.924,0,1.089,1.089,0,0,0-.57,1.161,1.074,1.074,0,0,0,.957.871,3.878,3.878,0,0,1,3.526,3.86Z" transform="translate(2.78 2.066)"/>
      <path id="Trazado_1179601" data-name="Trazado 1179601" d="M38.549,11.635,37.9,11.3a7.432,7.432,0,0,0-.516-1.247l.215-.688a1.067,1.067,0,0,0-.172-.978A9.045,9.045,0,0,0,35.8,6.754a1.067,1.067,0,0,0-.978-.172L34.13,6.8a6.631,6.631,0,0,0-1.247-.516l-.333-.645a1.061,1.061,0,0,0-.806-.57,7.574,7.574,0,0,0-2.312,0,1.061,1.061,0,0,0-.806.57l-.333.645a7.432,7.432,0,0,0-1.247.516l-.688-.215a1.067,1.067,0,0,0-.978.172,9.045,9.045,0,0,0-1.634,1.634,1.067,1.067,0,0,0-.172.978l.215.688a8.455,8.455,0,0,0-.516,1.247l-.645.333a1.061,1.061,0,0,0-.57.806,9.227,9.227,0,0,0-.086,1.15,9.227,9.227,0,0,0,.086,1.15,1.043,1.043,0,0,0,.57.806l.645.333a7.433,7.433,0,0,0,.516,1.247l-.215.688a1.067,1.067,0,0,0,.172.978,9.045,9.045,0,0,0,1.634,1.634,1.067,1.067,0,0,0,.978.172l.688-.215a6.632,6.632,0,0,0,1.247.516l.333.645a1.061,1.061,0,0,0,.806.57,7.736,7.736,0,0,0,2.3,0,1.061,1.061,0,0,0,.806-.57l.333-.645a7.432,7.432,0,0,0,1.247-.516l.688.215a1.067,1.067,0,0,0,.978-.172A9.045,9.045,0,0,0,37.42,18.8a1.067,1.067,0,0,0,.172-.978l-.215-.688a8.454,8.454,0,0,0,.516-1.247l.645-.333a1.061,1.061,0,0,0,.57-.806,9.227,9.227,0,0,0,.086-1.15,9.227,9.227,0,0,0-.086-1.15,1.043,1.043,0,0,0-.57-.806Zm-1.505,2.279-.538.28a1.029,1.029,0,0,0-.548.7,5.5,5.5,0,0,1-.645,1.559,1.084,1.084,0,0,0-.108.892l.183.57a4.584,4.584,0,0,1-.462.452l-.57-.183a1.084,1.084,0,0,0-.892.108,5.2,5.2,0,0,1-1.559.645,1.059,1.059,0,0,0-.7.548l-.28.538a6.24,6.24,0,0,1-.634,0l-.28-.538a1.029,1.029,0,0,0-.7-.548,5.5,5.5,0,0,1-1.559-.645,1.084,1.084,0,0,0-.892-.108l-.57.183c-.161-.14-.312-.3-.462-.452l.183-.57a1.084,1.084,0,0,0-.108-.892,5.2,5.2,0,0,1-.645-1.559,1.092,1.092,0,0,0-.548-.7l-.538-.28V13.27l.538-.28a1.029,1.029,0,0,0,.548-.7,5.5,5.5,0,0,1,.645-1.559,1.084,1.084,0,0,0,.108-.892l-.183-.57a4.584,4.584,0,0,1,.462-.452l.57.183a1.089,1.089,0,0,0,.892-.108,5.2,5.2,0,0,1,1.559-.645,1.059,1.059,0,0,0,.7-.548l.28-.538a6.24,6.24,0,0,1,.634,0l.28.538a1.029,1.029,0,0,0,.7.548,5.5,5.5,0,0,1,1.559.645A1.084,1.084,0,0,0,34.356,9l.57-.183a6.251,6.251,0,0,1,.462.462l-.183.57a1.084,1.084,0,0,0,.108.892,5.2,5.2,0,0,1,.645,1.559,1.092,1.092,0,0,0,.548.7l.538.28v.645Z" transform="translate(1.576 0.299)"/>
      <path id="Trazado_1179602" data-name="Trazado 1179602" d="M30.263,9.5a3.763,3.763,0,1,0,3.763,3.763A3.767,3.767,0,0,0,30.263,9.5Zm0,5.376a1.613,1.613,0,1,1,1.613-1.613A1.611,1.611,0,0,1,30.263,14.876Z" transform="translate(1.916 0.639)"/>
      <path id="Trazado_1179603" data-name="Trazado 1179603" d="M63.156,21.428V6.376A5.378,5.378,0,0,0,57.78,1h-34.4A5.378,5.378,0,0,0,18,6.376V22.5c0,2.688,2.011,4.3,5.376,4.3H26.16l9.365,9.365a1.082,1.082,0,0,0,.763.312,1,1,0,0,0,.484-.118,1.083,1.083,0,0,0,.581-1.118l-.914-6.408,21.352-2.043a5.378,5.378,0,0,0,5.376-5.376ZM35.106,26.8a1.079,1.079,0,0,0-.742.409,1.058,1.058,0,0,0-.215.817l.624,4.333-7.4-7.4a1.064,1.064,0,0,0-.763-.312H23.386c-3.225,0-3.225-1.613-3.225-2.15V6.376A3.235,3.235,0,0,1,23.386,3.15H57.78a3.235,3.235,0,0,1,3.225,3.225V21.428a3.257,3.257,0,0,1-3.322,3.225Z" transform="translate(1.277)"/>
      <path id="Trazado_1179604" data-name="Trazado 1179604" d="M4.225,44.2H22.5a3.235,3.235,0,0,0,3.225-3.225v-.946l8.483.946a1.071,1.071,0,0,0,1.118-.667A1.088,1.088,0,0,0,35,39.052l-9.257-7.2V30.225A3.235,3.235,0,0,0,22.514,27H4.225A3.235,3.235,0,0,0,1,30.225V40.977A3.235,3.235,0,0,0,4.225,44.2ZM3.15,30.225A1.078,1.078,0,0,1,4.225,29.15H22.5a1.078,1.078,0,0,1,1.075,1.075v2.15a1.059,1.059,0,0,0,.419.849l6.666,5.193-5.892-.656a1.073,1.073,0,0,0-1.193,1.075v2.15A1.078,1.078,0,0,1,22.5,42.063H4.225A1.078,1.078,0,0,1,3.15,40.988V30.236Z" transform="translate(0 1.954)"/>
      <path id="Trazado_1179605" data-name="Trazado 1179605" d="M35.8,50.913V48.225A3.235,3.235,0,0,0,32.578,45H13.225A3.235,3.235,0,0,0,10,48.225v12.9a3.235,3.235,0,0,0,3.225,3.225H32.578A3.235,3.235,0,0,0,35.8,61.127V58.439l3.871-2.9a1.075,1.075,0,0,0,0-1.72Zm-1.72,6.128a1.09,1.09,0,0,0-.43.86v3.225A1.078,1.078,0,0,1,32.578,62.2H13.225a1.078,1.078,0,0,1-1.075-1.075v-12.9a1.078,1.078,0,0,1,1.075-1.075H32.578a1.078,1.078,0,0,1,1.075,1.075v3.225a1.09,1.09,0,0,0,.43.86l3.15,2.365Z" transform="translate(0.676 3.306)"/>
    </g>
  </g>
</svg>
