<svg xmlns="http://www.w3.org/2000/svg" xmlns:xlink="http://www.w3.org/1999/xlink" width="93" height="93" viewBox="0 0 93 93">
  <defs>
    <filter id="Trazado_904820" x="0" y="0" width="93" height="93" filterUnits="userSpaceOnUse">
      <feOffset dy="3" input="SourceAlpha"/>
      <feGaussianBlur stdDeviation="3" result="blur"/>
      <feFlood flood-opacity="0.161"/>
      <feComposite operator="in" in2="blur"/>
      <feComposite in="SourceGraphic"/>
    </filter>
  </defs>
  <g id="Grupo_1224015" data-name="Grupo 1224015" transform="translate(-190.776 -9003.5)">
    <g id="Grupo_1223832" data-name="Grupo 1223832" transform="translate(-3 1007.447)">
      <g id="Grupo_1223165" data-name="Grupo 1223165" transform="translate(202.776 8002.053)">
        <g id="Grupo_1173585" data-name="Grupo 1173585" transform="translate(0 0)">
          <g id="Grupo_1173428" data-name="Grupo 1173428">
            <g id="Grupo_1171958" data-name="Grupo 1171958">
              <g id="Grupo_1167341" data-name="Grupo 1167341">
                <g id="Grupo_1166792" data-name="Grupo 1166792">
                  <g transform="matrix(1, 0, 0, 1, -9, -6)" filter="url(#Trazado_904820)">
                    <g id="Trazado_904820-2" data-name="Trazado 904820" transform="translate(9 6)" fill="#fcf5f0">
                      <path d="M 37.5 73.5 C 32.63936614990234 73.5 27.9249324798584 72.54837799072266 23.48763275146484 70.67156219482422 C 19.20096588134766 68.85845184326172 15.35082244873047 66.26250457763672 12.04415512084961 62.95583724975586 C 8.737500190734863 59.6491813659668 6.141555786132812 55.79903793334961 4.328444480895996 51.51235961914062 C 2.451622247695923 47.07506942749023 1.5 42.36062622070312 1.5 37.50000381469727 C 1.5 32.63936996459961 2.451622247695923 27.92493629455566 4.328444480895996 23.48763656616211 C 6.141555786132812 19.20096015930176 8.737500190734863 15.35082626342773 12.04415512084961 12.04415893554688 C 15.35082244873047 8.737504005432129 19.20095634460449 6.141559600830078 23.48763275146484 4.328448295593262 C 27.9249324798584 2.451626062393188 32.63936614990234 1.500003814697266 37.5 1.500003814697266 C 42.36063385009766 1.500003814697266 47.07506561279297 2.451626062393188 51.51236724853516 4.328448295593262 C 55.79904556274414 6.141559600830078 59.64917755126953 8.737504005432129 62.95584487915039 12.04415893554688 C 66.26249694824219 15.35082626342773 68.85844421386719 19.20096015930176 70.67155456542969 23.48763656616211 C 72.54837799072266 27.92493629455566 73.5 32.63936996459961 73.5 37.50000381469727 C 73.5 42.36062622070312 72.54837799072266 47.07506942749023 70.67155456542969 51.51235961914062 C 68.85844421386719 55.79903793334961 66.26249694824219 59.6491813659668 62.95584487915039 62.95583724975586 C 59.64917755126953 66.26250457763672 55.79903411865234 68.85845184326172 51.51236724853516 70.67156219482422 C 47.07506561279297 72.54837799072266 42.36063385009766 73.5 37.5 73.5 Z" stroke="none"/>
                      <path d="M 37.5 3.000007629394531 C 32.84121322631836 3.000007629394531 28.3233642578125 3.911766052246094 24.07196426391602 5.709953308105469 C 19.96408843994141 7.447441101074219 16.27420043945312 9.935432434082031 13.10481262207031 13.10481643676758 C 9.9354248046875 16.27420425415039 7.447441101074219 19.96409225463867 5.709953308105469 24.07196807861328 C 3.911766052246094 28.32336807250977 3 32.84120559692383 3 37.50000381469727 C 3 42.15879058837891 3.911766052246094 46.67662811279297 5.709953308105469 50.92802810668945 C 7.447441101074219 55.03591537475586 9.9354248046875 58.72579193115234 13.10481262207031 61.89517974853516 C 16.27421188354492 65.06456756591797 19.96408843994141 67.55256652832031 24.07196426391602 69.29005432128906 C 28.3233642578125 71.08824157714844 32.84121322631836 72 37.5 72 C 42.15878677368164 72 46.6766357421875 71.08824157714844 50.92803955078125 69.29005432128906 C 55.03591156005859 67.55256652832031 58.72578811645508 65.06456756591797 61.89518737792969 61.89517974853516 C 65.0645751953125 58.72579193115234 67.55256652832031 55.03591537475586 69.29004669189453 50.92802810668945 C 71.08823394775391 46.67662811279297 72 42.15879058837891 72 37.50000381469727 C 72 32.84120559692383 71.08823394775391 28.32336807250977 69.29004669189453 24.07196807861328 C 67.55256652832031 19.96409225463867 65.0645751953125 16.27420425415039 61.89518737792969 13.10481643676758 C 58.72579956054688 9.935432434082031 55.03591156005859 7.447441101074219 50.92803955078125 5.709953308105469 C 46.6766357421875 3.911766052246094 42.15878677368164 3.000007629394531 37.5 3.000007629394531 M 37.5 7.62939453125e-06 C 58.21067428588867 7.62939453125e-06 75 16.7893180847168 75 37.50000381469727 C 75 58.21066665649414 58.21067428588867 75 37.5 75 C 16.78932571411133 75 0 58.21066665649414 0 37.50000381469727 C 0 16.7893180847168 16.78932571411133 7.62939453125e-06 37.5 7.62939453125e-06 Z" stroke="none" fill="#eca675"/>
                    </g>
                  </g>
                </g>
              </g>
            </g>
          </g>
        </g>
      </g>
    </g>
    <g id="sprint_3316557" transform="translate(213.598 9023.598)">
      <g id="Grupo_1224013" data-name="Grupo 1224013" transform="translate(1.723 1.723)">
        <g id="Grupo_1224001" data-name="Grupo 1224001">
          <path id="Trazado_1179644" data-name="Trazado 1179644" d="M42.469,2H4.891A2.89,2.89,0,0,0,2,4.891V28.016a2.89,2.89,0,0,0,2.891,2.891H42.469a2.89,2.89,0,0,0,2.891-2.891V4.891A2.89,2.89,0,0,0,42.469,2Z" transform="translate(-2 -2)" fill="#ccd1d9"/>
        </g>
        <g id="Grupo_1224002" data-name="Grupo 1224002" transform="translate(2.891 2.891)">
          <path id="Trazado_1179645" data-name="Trazado 1179645" d="M42.855,6H6.723A.725.725,0,0,0,6,6.723V28.4a.725.725,0,0,0,.723.723H42.855a.725.725,0,0,0,.723-.723V6.723A.725.725,0,0,0,42.855,6Z" transform="translate(-6 -6)" fill="#69d6f4"/>
        </g>
        <g id="Grupo_1224003" data-name="Grupo 1224003" transform="translate(30.352 31.074)">
          <path id="Trazado_1179646" data-name="Trazado 1179646" d="M49.059,45l.723,2.891H44L44.723,45Z" transform="translate(-44 -45)" fill="#ffc729"/>
        </g>
        <g id="Grupo_1224004" data-name="Grupo 1224004" transform="translate(27.468 33.965)">
          <path id="Trazado_1179647" data-name="Trazado 1179647" d="M50.843,58.395H42.171V54.059a5.059,5.059,0,0,0-2.161-4.148A4.957,4.957,0,0,1,42.893,49h5.781a5.055,5.055,0,0,1,5.059,5.059v4.336Z" transform="translate(-40.01 -49)" fill="#fcd770"/>
        </g>
        <g id="Grupo_1224005" data-name="Grupo 1224005" transform="translate(2.168 33.965)">
          <path id="Trazado_1179648" data-name="Trazado 1179648" d="M7.891,58.395H5V54.059A5.055,5.055,0,0,1,10.059,49H15.84a4.957,4.957,0,0,1,2.883.911,5.06,5.06,0,0,0-2.161,4.148v4.336Z" transform="translate(-5 -49)" fill="#b4dd7f"/>
        </g>
        <g id="Grupo_1224006" data-name="Grupo 1224006" transform="translate(13.73 34.174)">
          <path id="Trazado_1179649" data-name="Trazado 1179649" d="M34.738,49.991A5.06,5.06,0,0,1,36.9,54.139v4.336H21V54.139a5.06,5.06,0,0,1,2.161-4.148,5.2,5.2,0,0,1,1.453-.7v1.236a1.45,1.45,0,0,0,1.445,1.445H31.84a1.45,1.45,0,0,0,1.445-1.445V49.29a5.3,5.3,0,0,1,1.453.7Z" transform="translate(-21 -49.29)" fill="#ef7385"/>
        </g>
        <g id="Grupo_1224007" data-name="Grupo 1224007" transform="translate(7.227 31.074)">
          <path id="Trazado_1179650" data-name="Trazado 1179650" d="M17.059,45l.723,2.891H12L12.723,45Z" transform="translate(-12 -45)" fill="#a0d468"/>
        </g>
        <g id="Grupo_1224008" data-name="Grupo 1224008" transform="translate(17.344 20.957)">
          <path id="Trazado_1179651" data-name="Trazado 1179651" d="M26,44.217V35.336A4.339,4.339,0,0,1,30.336,31a4.342,4.342,0,0,1,4.336,4.336V45.453A1.45,1.45,0,0,1,33.227,46.9H27.445A1.45,1.45,0,0,1,26,45.453Z" transform="translate(-26 -31)" fill="#b27946"/>
        </g>
        <g id="Grupo_1224009" data-name="Grupo 1224009" transform="translate(28.906 20.957)">
          <path id="Trazado_1179652" data-name="Trazado 1179652" d="M50.672,36.059v.723a4.3,4.3,0,0,1-.585,2.168,3.427,3.427,0,0,1-.282.434l-1.3,1.734H44.168l-1.3-1.734a3.427,3.427,0,0,1-.282-.434A4.3,4.3,0,0,1,42,36.781V35.336a4.336,4.336,0,0,1,8.672,0Z" transform="translate(-42 -31)" fill="#656d78"/>
        </g>
        <g id="Grupo_1224010" data-name="Grupo 1224010" transform="translate(5.781 20.957)">
          <path id="Trazado_1179653" data-name="Trazado 1179653" d="M18.672,36.059v.723a4.3,4.3,0,0,1-.585,2.168,3.427,3.427,0,0,1-.282.434l-1.3,1.734H12.168l-1.3-1.734a3.427,3.427,0,0,1-.282-.434A4.3,4.3,0,0,1,10,36.781V35.336a4.336,4.336,0,1,1,8.672,0Z" transform="translate(-10 -31)" fill="#656d78"/>
        </g>
        <g id="Grupo_1224011" data-name="Grupo 1224011" transform="translate(34.688 5.781)">
          <circle id="Elipse_14746" data-name="Elipse 14746" cx="1.5" cy="1.5" r="1.5" transform="translate(-0.008 -0.102)" fill="#ef7385"/>
        </g>
        <g id="Grupo_1224012" data-name="Grupo 1224012" transform="translate(5.781 13.73)">
          <path id="Trazado_1179654" data-name="Trazado 1179654" d="M12.891,22.445v1.445H10V21h2.891Z" transform="translate(-10 -21)" fill="#ef7385"/>
        </g>
      </g>
      <g id="Grupo_1224014" data-name="Grupo 1224014" transform="translate(1 1)">
        <path id="Trazado_1179655" data-name="Trazado 1179655" d="M39.012,31.5c.034-.046.059-.1.091-.145h3.089A3.617,3.617,0,0,0,45.8,27.738V4.613A3.617,3.617,0,0,0,42.191,1H4.613A3.617,3.617,0,0,0,1,4.613V27.738a3.617,3.617,0,0,0,3.613,3.613H7.7c.033.047.057.1.091.145l1.094,1.459-.509,2.038a5.79,5.79,0,0,0-5.21,5.753v3.613H1V45.8H45.8V44.359H43.637V40.746a5.789,5.789,0,0,0-5.21-5.752l-.509-2.038ZM30.629,44.359H29.184V39.3H27.738v5.059H19.066V39.3H17.621v5.059H16.176V40.746a4.356,4.356,0,0,1,2.168-3.738v.125A2.171,2.171,0,0,0,20.512,39.3h5.781a2.171,2.171,0,0,0,2.168-2.168v-.125a4.357,4.357,0,0,1,2.168,3.738ZM13.444,33.52l.361,1.445H9.874l.361-1.445ZM15.3,35.008l-.513-2.053L15.887,31.5c.034-.046.059-.1.091-.145h2.366v4.055a5.709,5.709,0,0,0-.718.353,5.723,5.723,0,0,0-2.32-.752ZM6.781,27.016H5.336V5.336H41.469v21.68H40.023a5.059,5.059,0,0,0-10.117,0H28.461a5.059,5.059,0,0,0-10.117,0H16.9a5.059,5.059,0,0,0-10.117,0Zm21.68,1.445h1.445a5.048,5.048,0,0,0,.223,1.445H28.461Zm-1.445-1.445V37.133a.723.723,0,0,1-.723.723H20.512a.723.723,0,0,1-.723-.723V27.016a3.613,3.613,0,0,1,7.227,0ZM16.9,28.461h1.445v1.445H16.675A5.048,5.048,0,0,0,16.9,28.461Zm12.281,7.3a5.659,5.659,0,0,0-.718-.353V31.352h2.366c.033.047.057.1.091.145l1.094,1.459L31.5,35.008A5.73,5.73,0,0,0,29.179,35.76Zm4.181-2.24h3.208l.361,1.445H33Zm5.218-5.059a3.634,3.634,0,0,1-.723,2.168l-1.084,1.445H33.158l-1.084-1.445a3.634,3.634,0,0,1-.723-2.168V27.016a3.613,3.613,0,0,1,7.227,0ZM4.613,29.906a2.171,2.171,0,0,1-2.168-2.168V4.613A2.171,2.171,0,0,1,4.613,2.445H42.191a2.171,2.171,0,0,1,2.168,2.168V27.738a2.171,2.171,0,0,1-2.168,2.168H39.8a5.048,5.048,0,0,0,.223-1.445h1.445a1.447,1.447,0,0,0,1.445-1.445V5.336a1.447,1.447,0,0,0-1.445-1.445H5.336A1.447,1.447,0,0,0,3.891,5.336v21.68a1.447,1.447,0,0,0,1.445,1.445H6.781A5.048,5.048,0,0,0,7,29.906Zm3.613-2.891a3.613,3.613,0,0,1,7.227,0v1.445a3.634,3.634,0,0,1-.723,2.168l-1.084,1.445H10.033L8.949,30.629a3.634,3.634,0,0,1-.723-2.168ZM4.613,40.746A4.34,4.34,0,0,1,8.949,36.41H14.73a4.319,4.319,0,0,1,1.636.332,5.792,5.792,0,0,0-1.636,4v3.613H7.5V39.3H6.059v5.059H4.613Zm37.578,0v3.613H40.746V39.3H39.3v5.059H32.074V40.746a5.8,5.8,0,0,0-1.635-4,4.3,4.3,0,0,1,1.635-.332h5.781A4.34,4.34,0,0,1,42.191,40.746Z" transform="translate(-1 -1)"/>
        <path id="Trazado_1179656" data-name="Trazado 1179656" d="M13.336,20.949h6.5v-.723a5.781,5.781,0,0,1,11.563,0v.723h8.373l-2.38,2.38,1.022,1.022,4.124-4.124L38.417,16.1,37.4,17.124l2.38,2.38H32.812a7.227,7.227,0,0,0-14.381,0H13.336V18.059H9v4.336h4.336Zm-1.445,0H10.445V19.5h1.445Z" transform="translate(-3.219 -4.328)"/>
        <path id="Trazado_1179657" data-name="Trazado 1179657" d="M9,9h8.672v1.445H9Z" transform="translate(-3.219 -3.219)"/>
        <path id="Trazado_1179658" data-name="Trazado 1179658" d="M9,13h8.672v1.445H9Z" transform="translate(-3.219 -4.328)"/>
        <path id="Trazado_1179659" data-name="Trazado 1179659" d="M51.168,13.336A2.168,2.168,0,1,0,49,11.168,2.171,2.171,0,0,0,51.168,13.336Zm0-2.891a.723.723,0,1,1-.723.723A.723.723,0,0,1,51.168,10.445Z" transform="translate(-14.313 -3.219)"/>
        <path id="Trazado_1179660" data-name="Trazado 1179660" d="M41,13h4.336v1.445H41Z" transform="translate(-12.094 -4.328)"/>
        <path id="Trazado_1179661" data-name="Trazado 1179661" d="M41,9h4.336v1.445H41Z" transform="translate(-12.094 -3.219)"/>
      </g>
    </g>
  </g>
</svg>
