<svg xmlns="http://www.w3.org/2000/svg" xmlns:xlink="http://www.w3.org/1999/xlink" width="93" height="93" viewBox="0 0 93 93">
  <defs>
    <filter id="Trazado_904820" x="0" y="0" width="93" height="93" filterUnits="userSpaceOnUse">
      <feOffset dy="3" input="SourceAlpha"/>
      <feGaussianBlur stdDeviation="3" result="blur"/>
      <feFlood flood-opacity="0.161"/>
      <feComposite operator="in" in2="blur"/>
      <feComposite in="SourceGraphic"/>
    </filter>
  </defs>
  <g id="Grupo_1224024" data-name="Grupo 1224024" transform="translate(-193.776 -12921.5)">
    <g id="Grupo_1223916" data-name="Grupo 1223916" transform="translate(0 4925.447)">
      <g id="Grupo_1223165" data-name="Grupo 1223165" transform="translate(202.776 8002.053)">
        <g id="Grupo_1173585" data-name="Grupo 1173585" transform="translate(0 0)">
          <g id="Grupo_1173428" data-name="Grupo 1173428">
            <g id="Grupo_1171958" data-name="Grupo 1171958">
              <g id="Grupo_1167341" data-name="Grupo 1167341">
                <g id="Grupo_1166792" data-name="Grupo 1166792">
                  <g transform="matrix(1, 0, 0, 1, -9, -6)" filter="url(#Trazado_904820)">
                    <g id="Trazado_904820-2" data-name="Trazado 904820" transform="translate(9 6)" fill="#fcf5f0">
                      <path d="M 37.5 73.5 C 32.63936614990234 73.5 27.9249324798584 72.54837799072266 23.48763275146484 70.67156219482422 C 19.20096588134766 68.85845184326172 15.35082244873047 66.26250457763672 12.04415512084961 62.95583724975586 C 8.737500190734863 59.6491813659668 6.141555786132812 55.79903793334961 4.328444480895996 51.51235961914062 C 2.451622247695923 47.07506942749023 1.5 42.36062622070312 1.5 37.50000381469727 C 1.5 32.63936996459961 2.451622247695923 27.92493629455566 4.328444480895996 23.48763656616211 C 6.141555786132812 19.20096015930176 8.737500190734863 15.35082626342773 12.04415512084961 12.04415893554688 C 15.35082244873047 8.737504005432129 19.20095634460449 6.141559600830078 23.48763275146484 4.328448295593262 C 27.9249324798584 2.451626062393188 32.63936614990234 1.500003814697266 37.5 1.500003814697266 C 42.36063385009766 1.500003814697266 47.07506561279297 2.451626062393188 51.51236724853516 4.328448295593262 C 55.79904556274414 6.141559600830078 59.64917755126953 8.737504005432129 62.95584487915039 12.04415893554688 C 66.26249694824219 15.35082626342773 68.85844421386719 19.20096015930176 70.67155456542969 23.48763656616211 C 72.54837799072266 27.92493629455566 73.5 32.63936996459961 73.5 37.50000381469727 C 73.5 42.36062622070312 72.54837799072266 47.07506942749023 70.67155456542969 51.51235961914062 C 68.85844421386719 55.79903793334961 66.26249694824219 59.6491813659668 62.95584487915039 62.95583724975586 C 59.64917755126953 66.26250457763672 55.79903411865234 68.85845184326172 51.51236724853516 70.67156219482422 C 47.07506561279297 72.54837799072266 42.36063385009766 73.5 37.5 73.5 Z" stroke="none"/>
                      <path d="M 37.5 3.000007629394531 C 32.84121322631836 3.000007629394531 28.3233642578125 3.911766052246094 24.07196426391602 5.709953308105469 C 19.96408843994141 7.447441101074219 16.27420043945312 9.935432434082031 13.10481262207031 13.10481643676758 C 9.9354248046875 16.27420425415039 7.447441101074219 19.96409225463867 5.709953308105469 24.07196807861328 C 3.911766052246094 28.32336807250977 3 32.84120559692383 3 37.50000381469727 C 3 42.15879058837891 3.911766052246094 46.67662811279297 5.709953308105469 50.92802810668945 C 7.447441101074219 55.03591537475586 9.9354248046875 58.72579193115234 13.10481262207031 61.89517974853516 C 16.27421188354492 65.06456756591797 19.96408843994141 67.55256652832031 24.07196426391602 69.29005432128906 C 28.3233642578125 71.08824157714844 32.84121322631836 72 37.5 72 C 42.15878677368164 72 46.6766357421875 71.08824157714844 50.92803955078125 69.29005432128906 C 55.03591156005859 67.55256652832031 58.72578811645508 65.06456756591797 61.89518737792969 61.89517974853516 C 65.0645751953125 58.72579193115234 67.55256652832031 55.03591537475586 69.29004669189453 50.92802810668945 C 71.08823394775391 46.67662811279297 72 42.15879058837891 72 37.50000381469727 C 72 32.84120559692383 71.08823394775391 28.32336807250977 69.29004669189453 24.07196807861328 C 67.55256652832031 19.96409225463867 65.0645751953125 16.27420425415039 61.89518737792969 13.10481643676758 C 58.72579956054688 9.935432434082031 55.03591156005859 7.447441101074219 50.92803955078125 5.709953308105469 C 46.6766357421875 3.911766052246094 42.15878677368164 3.000007629394531 37.5 3.000007629394531 M 37.5 7.62939453125e-06 C 58.21067428588867 7.62939453125e-06 75 16.7893180847168 75 37.50000381469727 C 75 58.21066665649414 58.21067428588867 75 37.5 75 C 16.78932571411133 75 0 58.21066665649414 0 37.50000381469727 C 0 16.7893180847168 16.78932571411133 7.62939453125e-06 37.5 7.62939453125e-06 Z" stroke="none" fill="#eca675"/>
                    </g>
                  </g>
                </g>
              </g>
            </g>
          </g>
        </g>
      </g>
    </g>
    <g id="compliance_11782368" transform="translate(176.594 12919.563)">
      <path id="Trazado_1179711" data-name="Trazado 1179711" d="M126.135,342.788c.072.434.126.79.62,1.024a1,1,0,0,0,.957-.036l8.057-4.606a2.449,2.449,0,0,1,2.43,4.252l-11.666,6.669c-2.7,1.545-3.89,1.64-6.915,1.837a94.355,94.355,0,0,1-13.451-.591l-4.9.487V341.188a9.5,9.5,0,0,0,2.179-.122c3.772-3.33,7.835-3.03,12.139-.944a2.431,2.431,0,0,0,.623.029v0h7.481A2.459,2.459,0,0,1,126.135,342.788Z" transform="translate(-53.893 -283.411)" fill="#f0b16e" fill-rule="evenodd"/>
      <path id="Trazado_1179712" data-name="Trazado 1179712" d="M324.249,42.442h-8.6a1.4,1.4,0,0,0-1.393,1.393V61.941a1.4,1.4,0,0,0,1.393,1.393H328a1.4,1.4,0,0,0,1.393-1.393V47.589Z" transform="translate(-243.532 -19.757)" fill="#e6e6e6" fill-rule="evenodd"/>
      <path id="Trazado_1179713" data-name="Trazado 1179713" d="M410.553,47.589l-5.147-5.147V46.2a1.4,1.4,0,0,0,1.393,1.393Z" transform="translate(-324.689 -19.757)" fill="#ada0ad" fill-rule="evenodd"/>
      <path id="Trazado_1179714" data-name="Trazado 1179714" d="M72.053,345.109H74.29a1.061,1.061,0,0,1,1.058,1.058v11.879a1.062,1.062,0,0,1-1.058,1.059H72.053a1.062,1.062,0,0,1-1.059-1.059V346.167a1.062,1.062,0,0,1,1.059-1.058Z" transform="translate(-26.936 -289.245)" fill="#60b7fe" fill-rule="evenodd"/>
      <circle id="Elipse_14750" data-name="Elipse 14750" cx="11.437" cy="11.437" r="11.437" transform="translate(41.512 21.015)" fill="#ffe177"/>
      <path id="Trazado_1179715" data-name="Trazado 1179715" d="M80.766,128.3a2.859,2.859,0,0,1-5.717,0Z" transform="translate(-30.546 -96.204)" fill="#fff" fill-rule="evenodd"/>
      <path id="Trazado_1179716" data-name="Trazado 1179716" d="M182.708,128.3a2.859,2.859,0,0,1-5.717,0Z" transform="translate(-121.313 -96.204)" fill="#fff" fill-rule="evenodd"/>
      <path id="Trazado_1179717" data-name="Trazado 1179717" d="M78.572,38.26a.763.763,0,0,1-.166,1.067l-2.99,2.192a.764.764,0,0,1-1.031-.119L73.193,40a.763.763,0,0,1,1.159-.993l.73.858L77.5,38.1A.766.766,0,0,1,78.572,38.26Zm0-5.994a.763.763,0,0,1-.166,1.067l-2.99,2.192a.765.765,0,0,1-1.031-.118l-1.191-1.395a.763.763,0,1,1,1.159-.993l.73.858L77.5,32.1A.767.767,0,0,1,78.572,32.267ZM47.356,34.192A2.106,2.106,0,0,1,45.4,32.86h3.906A2.106,2.106,0,0,1,47.356,34.192Zm0-6.182,1.633,3.324H45.724Zm12.806,3.324H56.9L58.53,28.01ZM58.53,34.192a2.106,2.106,0,0,1-1.953-1.332h3.906A2.1,2.1,0,0,1,58.53,34.192Zm-1.447,4.432a.762.762,0,0,0-.762-.763H53.708V27.042h3.6L54.989,31.76a.744.744,0,0,0-.077.337,3.621,3.621,0,1,0,7.242,0,.838.838,0,0,0-.077-.337l-2.862-5.817a.759.759,0,0,0-.685-.427H47.356a.759.759,0,0,0-.685.427L43.816,31.76a.749.749,0,0,0-.083.337,3.624,3.624,0,0,0,7.248,0,.749.749,0,0,0-.083-.337L48.58,27.042h3.6V37.861H49.566a.763.763,0,0,0,0,1.526h6.755a.761.761,0,0,0,.762-.763ZM84.329,58.379a1.839,1.839,0,0,1-.858,1.109L72.233,65.913c-2.529,1.447-3.6,1.516-6.435,1.7a87.134,87.134,0,0,1-12.883-.568.752.752,0,0,0-.167,0l-3.579.474v-9.2h.845a.839.839,0,0,0,.544-.2c3.17-2.809,6.608-3.079,11.154-.873a.861.861,0,0,0,.359.081h7.684a1.831,1.831,0,0,1,1.3,3.117H61.635a.814.814,0,1,0,0,1.628l9.816-.006.307-.1,9.893-5.655A1.834,1.834,0,0,1,84.329,58.379ZM47.645,68.8a.3.3,0,0,1-.295.3H45.109a.3.3,0,0,1-.295-.3V56.922a.3.3,0,0,1,.295-.3H47.35a.3.3,0,0,1,.295.3ZM83.47,54.565a3.438,3.438,0,0,0-2.625.332l-7.633,4.362v-.1A3.461,3.461,0,0,0,69.755,55.7h-7.5A13.614,13.614,0,0,0,55.9,54.165a10.038,10.038,0,0,0-6.185,2.53h-.557A1.823,1.823,0,0,0,47.35,55.1H45.109a1.825,1.825,0,0,0-1.819,1.821V68.8a1.825,1.825,0,0,0,1.819,1.822H47.35a1.817,1.817,0,0,0,1.78-1.451l3.746-.5c.813.064,1.633.135,2.427.2a68.125,68.125,0,0,0,10.6.358c2.939-.19,4.284-.278,7.14-1.911L84.277,60.9a3.461,3.461,0,0,0-.807-6.338Zm-4.9-28.291a.764.764,0,0,1-.166,1.067l-2.99,2.192a.765.765,0,0,1-1.031-.119l-1.191-1.4a.763.763,0,0,1,1.159-.993l.73.858,2.42-1.774a.766.766,0,0,1,1.069.164Zm5.9,16.54a.629.629,0,0,0,.627-.629V28.6h-2.99a2.159,2.159,0,0,1-2.158-2.156V23.447H72.111a.63.63,0,0,0-.627.63V42.184a.629.629,0,0,0,.627.629Zm-3-18.286,2.542,2.542H82.107a.635.635,0,0,1-.634-.63Zm-39.2,7.925A10.674,10.674,0,1,0,52.946,21.778,10.683,10.683,0,0,0,42.272,32.452ZM86.4,27.292l-5.148-5.147a.75.75,0,0,0-.538-.224h-8.6a2.158,2.158,0,0,0-2.151,2.156V42.184a2.157,2.157,0,0,0,2.151,2.155h5.584v3.314H53.708V44.628a12.2,12.2,0,1,0-1.53,0v3.79a.767.767,0,0,0,.768.763H64.94v4.612a.762.762,0,1,0,1.524,0V49.18h12a.762.762,0,0,0,.762-.763V44.34h5.244a2.157,2.157,0,0,0,2.151-2.155V27.832a.749.749,0,0,0-.224-.54Z" transform="translate(0)" fill="#0b0a0a" fill-rule="evenodd"/>
    </g>
  </g>
</svg>
