<svg xmlns="http://www.w3.org/2000/svg" xmlns:xlink="http://www.w3.org/1999/xlink" width="93" height="93" viewBox="0 0 93 93">
  <defs>
    <filter id="Trazado_904820" x="0" y="0" width="93" height="93" filterUnits="userSpaceOnUse">
      <feOffset dy="3" input="SourceAlpha"/>
      <feGaussianBlur stdDeviation="3" result="blur"/>
      <feFlood flood-opacity="0.161"/>
      <feComposite operator="in" in2="blur"/>
      <feComposite in="SourceGraphic"/>
    </filter>
  </defs>
  <g id="Grupo_1224027" data-name="Grupo 1224027" transform="translate(-613.776 -12921.5)">
    <g id="Grupo_1223917" data-name="Grupo 1223917" transform="translate(420 4925.447)">
      <g id="Grupo_1223165" data-name="Grupo 1223165" transform="translate(202.776 8002.053)">
        <g id="Grupo_1173585" data-name="Grupo 1173585" transform="translate(0 0)">
          <g id="Grupo_1173428" data-name="Grupo 1173428">
            <g id="Grupo_1171958" data-name="Grupo 1171958">
              <g id="Grupo_1167341" data-name="Grupo 1167341">
                <g id="Grupo_1166792" data-name="Grupo 1166792">
                  <g transform="matrix(1, 0, 0, 1, -9, -6)" filter="url(#Trazado_904820)">
                    <g id="Trazado_904820-2" data-name="Trazado 904820" transform="translate(9 6)" fill="#fcf5f0">
                      <path d="M 37.5 73.5 C 32.63936614990234 73.5 27.9249324798584 72.54837799072266 23.48763275146484 70.67156219482422 C 19.20096588134766 68.85845184326172 15.35082244873047 66.26250457763672 12.04415512084961 62.95583724975586 C 8.737500190734863 59.6491813659668 6.141555786132812 55.79903793334961 4.328444480895996 51.51235961914062 C 2.451622247695923 47.07506942749023 1.5 42.36062622070312 1.5 37.50000381469727 C 1.5 32.63936996459961 2.451622247695923 27.92493629455566 4.328444480895996 23.48763656616211 C 6.141555786132812 19.20096015930176 8.737500190734863 15.35082626342773 12.04415512084961 12.04415893554688 C 15.35082244873047 8.737504005432129 19.20095634460449 6.141559600830078 23.48763275146484 4.328448295593262 C 27.9249324798584 2.451626062393188 32.63936614990234 1.500003814697266 37.5 1.500003814697266 C 42.36063385009766 1.500003814697266 47.07506561279297 2.451626062393188 51.51236724853516 4.328448295593262 C 55.79904556274414 6.141559600830078 59.64917755126953 8.737504005432129 62.95584487915039 12.04415893554688 C 66.26249694824219 15.35082626342773 68.85844421386719 19.20096015930176 70.67155456542969 23.48763656616211 C 72.54837799072266 27.92493629455566 73.5 32.63936996459961 73.5 37.50000381469727 C 73.5 42.36062622070312 72.54837799072266 47.07506942749023 70.67155456542969 51.51235961914062 C 68.85844421386719 55.79903793334961 66.26249694824219 59.6491813659668 62.95584487915039 62.95583724975586 C 59.64917755126953 66.26250457763672 55.79903411865234 68.85845184326172 51.51236724853516 70.67156219482422 C 47.07506561279297 72.54837799072266 42.36063385009766 73.5 37.5 73.5 Z" stroke="none"/>
                      <path d="M 37.5 3.000007629394531 C 32.84121322631836 3.000007629394531 28.3233642578125 3.911766052246094 24.07196426391602 5.709953308105469 C 19.96408843994141 7.447441101074219 16.27420043945312 9.935432434082031 13.10481262207031 13.10481643676758 C 9.9354248046875 16.27420425415039 7.447441101074219 19.96409225463867 5.709953308105469 24.07196807861328 C 3.911766052246094 28.32336807250977 3 32.84120559692383 3 37.50000381469727 C 3 42.15879058837891 3.911766052246094 46.67662811279297 5.709953308105469 50.92802810668945 C 7.447441101074219 55.03591537475586 9.9354248046875 58.72579193115234 13.10481262207031 61.89517974853516 C 16.27421188354492 65.06456756591797 19.96408843994141 67.55256652832031 24.07196426391602 69.29005432128906 C 28.3233642578125 71.08824157714844 32.84121322631836 72 37.5 72 C 42.15878677368164 72 46.6766357421875 71.08824157714844 50.92803955078125 69.29005432128906 C 55.03591156005859 67.55256652832031 58.72578811645508 65.06456756591797 61.89518737792969 61.89517974853516 C 65.0645751953125 58.72579193115234 67.55256652832031 55.03591537475586 69.29004669189453 50.92802810668945 C 71.08823394775391 46.67662811279297 72 42.15879058837891 72 37.50000381469727 C 72 32.84120559692383 71.08823394775391 28.32336807250977 69.29004669189453 24.07196807861328 C 67.55256652832031 19.96409225463867 65.0645751953125 16.27420425415039 61.89518737792969 13.10481643676758 C 58.72579956054688 9.935432434082031 55.03591156005859 7.447441101074219 50.92803955078125 5.709953308105469 C 46.6766357421875 3.911766052246094 42.15878677368164 3.000007629394531 37.5 3.000007629394531 M 37.5 7.62939453125e-06 C 58.21067428588867 7.62939453125e-06 75 16.7893180847168 75 37.50000381469727 C 75 58.21066665649414 58.21067428588867 75 37.5 75 C 16.78932571411133 75 0 58.21066665649414 0 37.50000381469727 C 0 16.7893180847168 16.78932571411133 7.62939453125e-06 37.5 7.62939453125e-06 Z" stroke="none" fill="#eca675"/>
                    </g>
                  </g>
                </g>
              </g>
            </g>
          </g>
        </g>
      </g>
    </g>
    <g id="idea_13145680" transform="translate(627.878 12928.602)">
      <g id="Grupo_1224025" data-name="Grupo 1224025" transform="translate(7.5 7.5)">
        <path id="Trazado_1179718" data-name="Trazado 1179718" d="M138.019,29.528h3.335a12.027,12.027,0,0,0,13.339,0h3.335V26.193a12.023,12.023,0,1,0-20.009,0Z" transform="translate(-123.125 -7.5)" fill="#fff" fill-rule="evenodd"/>
        <path id="Trazado_1179719" data-name="Trazado 1179719" d="M241,158.655a1.5,1.5,0,0,0,3.006,0v-1.816a3.767,3.767,0,0,1-3.006,0Z" transform="translate(-217.605 -141.876)" fill="#6186a6" fill-rule="evenodd"/>
        <circle id="Elipse_14751" data-name="Elipse 14751" cx="3.757" cy="3.757" r="3.757" transform="matrix(0.119, -0.993, 0.993, 0.119, 20.721, 14.804)" fill="#fe8"/>
        <path id="Trazado_1179720" data-name="Trazado 1179720" d="M40.809,262.746a7.746,7.746,0,0,0-15.492,0v12.091a8.259,8.259,0,0,1,1.819-1.075l3.454-1.5.242-2.417a4.753,4.753,0,0,1-2.509-4.179v-2.211h1.5a1.507,1.507,0,0,0,1.5-1.5,1.507,1.507,0,0,0,1.5,1.5H37.8v2.211a4.753,4.753,0,0,1-2.509,4.178l.242,2.417,3.454,1.5a8.26,8.26,0,0,1,1.819,1.075V262.746Z" transform="translate(-23.532 -230.202)" fill="#fe8" fill-rule="evenodd"/>
        <path id="Trazado_1179721" data-name="Trazado 1179721" d="M64.8,325.886H59.826a1.507,1.507,0,0,1-1.5-1.5,1.507,1.507,0,0,1-1.5,1.5h-1.5V328.1a4.74,4.74,0,1,0,9.481,0v-2.211Z" transform="translate(-50.526 -292.633)" fill="#eb975d" fill-rule="evenodd"/>
        <path id="Trazado_1179722" data-name="Trazado 1179722" d="M82.646,403.158a4.714,4.714,0,0,1-4.464,0l-.242,2.417a2.545,2.545,0,0,0,4.948,0Z" transform="translate(-70.882 -363.516)" fill="#eb975d" fill-rule="evenodd"/>
        <path id="Trazado_1179723" data-name="Trazado 1179723" d="M17.031,429.229a2.259,2.259,0,0,1-2.474-1.949l-3.454,1.5a8.256,8.256,0,0,0-1.819,1.075A4.142,4.142,0,0,0,7.5,433.039v1.978H26.563v-1.978a4.141,4.141,0,0,0-1.785-3.183,8.266,8.266,0,0,0-1.819-1.074l-3.454-1.5A2.259,2.259,0,0,1,17.031,429.229Z" transform="translate(-7.5 -385.221)" fill="#fff" fill-rule="evenodd"/>
        <path id="Trazado_1179724" data-name="Trazado 1179724" d="M324.557,327.07a1.189,1.189,0,0,0,1.185,1.185h1.909a4.718,4.718,0,0,1-.088-.91v-2.963h-1.821a1.189,1.189,0,0,0-1.185,1.185v1.5Zm12.487-2.688v2.963a4.71,4.71,0,0,1-.088.91h1.909a1.189,1.189,0,0,0,1.185-1.185v-1.5a1.189,1.189,0,0,0-1.185-1.185h-1.821Z" transform="translate(-292.79 -292.632)" fill="#ffdfb9" fill-rule="evenodd"/>
        <path id="Trazado_1179725" data-name="Trazado 1179725" d="M354.556,313.848a4.74,4.74,0,1,0,9.481,0v-2.963h-4.972a1.5,1.5,0,0,0-3.006,0h-1.5v2.963Z" transform="translate(-319.783 -279.135)" fill="#fdf1e0" fill-rule="evenodd"/>
        <path id="Trazado_1179726" data-name="Trazado 1179726" d="M346.919,253.7a1.507,1.507,0,0,0,1.5,1.5h6.157v-1.778a5.926,5.926,0,1,0-11.851,0V255.2h2.688A1.507,1.507,0,0,0,346.919,253.7Z" transform="translate(-309.14 -223.453)" fill="#6186a6" fill-rule="evenodd"/>
        <path id="Trazado_1179727" data-name="Trazado 1179727" d="M381.886,395.656a4.712,4.712,0,0,1-4.464,0l-.242,2.417a2.545,2.545,0,0,0,4.948,0Z" transform="translate(-340.14 -356.765)" fill="#ffdfb9" fill-rule="evenodd"/>
        <path id="Trazado_1179728" data-name="Trazado 1179728" d="M312,419.78a2.545,2.545,0,0,1-4.948,0l-4.205,1.5c-1.866.666-3.6,2.277-3.6,4.258v2.729H319.8v-2.729c0-1.982-1.738-3.592-3.6-4.258Z" transform="translate(-270.009 -378.472)" fill="#40a2ff" fill-rule="evenodd"/>
        <path id="Trazado_1179729" data-name="Trazado 1179729" d="M149.15,31.494a12.024,12.024,0,0,1,0-23.942q-.556-.052-1.127-.052a12.024,12.024,0,0,0-10,18.693v3.335h3.335a11.966,11.966,0,0,0,6.67,2.019Q148.593,31.547,149.15,31.494Z" transform="translate(-123.125 -7.5)" fill="#abe6fc" fill-rule="evenodd"/>
        <path id="Trazado_1179730" data-name="Trazado 1179730" d="M222.257,92.478a3.751,3.751,0,0,0,1.127-.173,3.758,3.758,0,0,1,0-7.17,3.758,3.758,0,1,0-1.127,7.342Z" transform="translate(-197.359 -77.202)" fill="#ffe000" fill-rule="evenodd"/>
        <path id="Trazado_1179731" data-name="Trazado 1179731" d="M34.19,255.083a7.743,7.743,0,0,0-8.873,7.663v12.091a8.254,8.254,0,0,1,1.819-1.075l.435-.189V262.746A7.775,7.775,0,0,1,34.19,255.083Z" transform="translate(-23.532 -230.202)" fill="#ffe000" fill-rule="evenodd"/>
        <path id="Trazado_1179732" data-name="Trazado 1179732" d="M57.571,337.359a1.49,1.49,0,0,1-.751.2h-1.5v2.211a4.754,4.754,0,0,0,4.74,4.741,4.7,4.7,0,0,0,1.127-.137,4.758,4.758,0,0,1-3.613-4.6Z" transform="translate(-50.526 -304.309)" fill="#b25e1e" fill-rule="evenodd"/>
        <path id="Trazado_1179733" data-name="Trazado 1179733" d="M10.113,447.326a7.592,7.592,0,0,0-.827.568A4.142,4.142,0,0,0,7.5,451.077v1.978H9.754v-4.232A3.349,3.349,0,0,1,10.113,447.326Z" transform="translate(-7.5 -403.258)" fill="#abe6fc" fill-rule="evenodd"/>
        <path id="Trazado_1179734" data-name="Trazado 1179734" d="M349.781,247.609a5.923,5.923,0,0,0-7.053,5.817V255.2h2.254v-1.778A5.948,5.948,0,0,1,349.781,247.609Z" transform="translate(-309.14 -223.453)" fill="#456078" fill-rule="evenodd"/>
        <path id="Trazado_1179735" data-name="Trazado 1179735" d="M356.81,322.359a1.49,1.49,0,0,1-.751.2h-1.5v2.963a4.754,4.754,0,0,0,4.74,4.741,4.7,4.7,0,0,0,1.127-.137,4.758,4.758,0,0,1-3.613-4.6Z" transform="translate(-319.783 -290.812)" fill="#ffdfb9" fill-rule="evenodd"/>
        <path id="Trazado_1179736" data-name="Trazado 1179736" d="M301.865,439.2a4.612,4.612,0,0,0-2.625,3.813v2.729h2.254V440.76A3.532,3.532,0,0,1,301.865,439.2Z" transform="translate(-270.009 -395.947)" fill="#0069f8" fill-rule="evenodd"/>
      </g>
      <g id="Grupo_1224026" data-name="Grupo 1224026" transform="translate(7.5 7.5)">
        <path id="Trazado_1179737" data-name="Trazado 1179737" d="M377.422,395.656l-.242,2.417m4.948,0-.242-2.417" transform="translate(-340.14 -356.765)" fill="none" stroke="#000" stroke-miterlimit="22.926" stroke-width="1" fill-rule="evenodd"/>
        <path id="Trazado_1179738" data-name="Trazado 1179738" d="M364.038,324.383v2.963a4.74,4.74,0,1,1-9.481,0v-2.963" transform="translate(-319.784 -292.633)" fill="none" stroke="#000" stroke-miterlimit="22.926" stroke-width="1" fill-rule="evenodd"/>
        <path id="Trazado_1179739" data-name="Trazado 1179739" d="M327.651,314.759h-1.909a1.189,1.189,0,0,1-1.185-1.185v-1.5a1.189,1.189,0,0,1,1.185-1.185h3.323a1.5,1.5,0,1,1,3.006,0h6.793a1.189,1.189,0,0,1,1.185,1.185v1.5a1.189,1.189,0,0,1-1.185,1.185h-1.909" transform="translate(-292.79 -279.136)" fill="none" stroke="#000" stroke-miterlimit="22.926" stroke-width="1" fill-rule="evenodd"/>
        <path id="Trazado_1179740" data-name="Trazado 1179740" d="M354.579,255.2v-1.778a5.926,5.926,0,1,0-11.851,0V255.2" transform="translate(-309.14 -223.453)" fill="none" stroke="#000" stroke-miterlimit="22.926" stroke-width="1" fill-rule="evenodd"/>
        <path id="Trazado_1179741" data-name="Trazado 1179741" d="M307.049,419.78l-4.205,1.5c-1.866.666-3.6,2.277-3.6,4.258v2.729h15.306m1.5,0h3.757v-2.729c0-1.982-1.738-3.592-3.6-4.258L312,419.78" transform="translate(-270.009 -378.472)" fill="none" stroke="#000" stroke-miterlimit="22.926" stroke-width="1" fill-rule="evenodd"/>
        <path id="Trazado_1179742" data-name="Trazado 1179742" d="M382.127,419.78a2.545,2.545,0,0,1-4.948,0" transform="translate(-340.139 -378.472)" fill="none" stroke="#000" stroke-miterlimit="22.926" stroke-width="1" fill-rule="evenodd"/>
        <path id="Trazado_1179743" data-name="Trazado 1179743" d="M78.182,403.156l-.242,2.417m4.948,0-.242-2.417" transform="translate(-70.882 -363.514)" fill="none" stroke="#000" stroke-miterlimit="22.926" stroke-width="1" fill-rule="evenodd"/>
        <path id="Trazado_1179744" data-name="Trazado 1179744" d="M64.8,325.886V328.1a4.74,4.74,0,1,1-9.481,0v-2.211h1.5a1.507,1.507,0,0,0,1.5-1.5,1.507,1.507,0,0,0,1.5,1.5Z" transform="translate(-50.527 -292.633)" fill="none" stroke="#000" stroke-miterlimit="22.926" stroke-width="1" fill-rule="evenodd"/>
        <path id="Trazado_1179745" data-name="Trazado 1179745" d="M14.558,427.28l-3.454,1.5c-1.817.79-3.6,2.277-3.6,4.258v1.978H26.563v-1.978c0-1.982-1.787-3.468-3.6-4.258l-3.454-1.5" transform="translate(-7.5 -385.221)" fill="none" stroke="#000" stroke-miterlimit="22.926" stroke-width="1" fill-rule="evenodd"/>
        <path id="Trazado_1179746" data-name="Trazado 1179746" d="M82.888,427.28a2.545,2.545,0,0,1-4.948,0" transform="translate(-70.882 -385.221)" fill="none" stroke="#000" stroke-miterlimit="22.926" stroke-width="1" fill-rule="evenodd"/>
        <path id="Trazado_1179747" data-name="Trazado 1179747" d="M25.318,274.838V262.746a7.746,7.746,0,0,1,15.492,0v12.091" transform="translate(-23.533 -230.202)" fill="none" stroke="#000" stroke-miterlimit="22.926" stroke-width="1" fill-rule="evenodd"/>
        <circle id="Elipse_14752" data-name="Elipse 14752" cx="3.757" cy="3.757" r="3.757" transform="matrix(0.974, -0.226, 0.226, 0.974, 20.39, 8.706)" fill="none" stroke="#000" stroke-miterlimit="22.926" stroke-width="1"/>
        <path id="Trazado_1179748" data-name="Trazado 1179748" d="M244.006,156.839v1.816a1.5,1.5,0,0,1-3.006,0v-1.816" transform="translate(-217.605 -141.876)" fill="none" stroke="#000" stroke-miterlimit="22.926" stroke-width="1" fill-rule="evenodd"/>
        <path id="Trazado_1179749" data-name="Trazado 1179749" d="M183.892,81.631l1.594-1.594m-12.114,1.594-1.594-1.594m0,8.5,1.594-1.594m-3.355-2.657h2.254m13.215,4.251-1.594-1.594m3.355-2.657h-2.254" transform="translate(-153.734 -72.769)" fill="none" stroke="#000" stroke-miterlimit="22.926" stroke-width="1" fill-rule="evenodd"/>
        <path id="Trazado_1179750" data-name="Trazado 1179750" d="M140.088,10.491a12.023,12.023,0,0,1,17.939,15.7v3.335h-3.335a12.027,12.027,0,0,1-13.339,0h-3.335V26.193a12.024,12.024,0,0,1,.972-14.6" transform="translate(-123.125 -7.5)" fill="none" stroke="#000" stroke-miterlimit="22.926" stroke-width="1" fill-rule="evenodd"/>
        <path id="Trazado_1179751" data-name="Trazado 1179751" d="M236.506,40.12h1.5m-4.509,0H235" transform="translate(-210.856 -36.852)" fill="none" stroke="#000" stroke-miterlimit="22.926" stroke-width="1" fill-rule="evenodd"/>
      </g>
    </g>
  </g>
</svg>
