<svg xmlns="http://www.w3.org/2000/svg" xmlns:xlink="http://www.w3.org/1999/xlink" width="93" height="93" viewBox="0 0 93 93">
  <defs>
    <filter id="Trazado_904820" x="0" y="0" width="93" height="93" filterUnits="userSpaceOnUse">
      <feOffset dy="3" input="SourceAlpha"/>
      <feGaussianBlur stdDeviation="3" result="blur"/>
      <feFlood flood-opacity="0.161"/>
      <feComposite operator="in" in2="blur"/>
      <feComposite in="SourceGraphic"/>
    </filter>
  </defs>
  <g id="Grupo_1224052" data-name="Grupo 1224052" transform="translate(-1033.776 -12921.5)">
    <g id="Grupo_1223918" data-name="Grupo 1223918" transform="translate(840 4925.447)">
      <g id="Grupo_1223165" data-name="Grupo 1223165" transform="translate(202.776 8002.053)">
        <g id="Grupo_1173585" data-name="Grupo 1173585" transform="translate(0 0)">
          <g id="Grupo_1173428" data-name="Grupo 1173428">
            <g id="Grupo_1171958" data-name="Grupo 1171958">
              <g id="Grupo_1167341" data-name="Grupo 1167341">
                <g id="Grupo_1166792" data-name="Grupo 1166792">
                  <g transform="matrix(1, 0, 0, 1, -9, -6)" filter="url(#Trazado_904820)">
                    <g id="Trazado_904820-2" data-name="Trazado 904820" transform="translate(9 6)" fill="#fcf5f0">
                      <path d="M 37.5 73.5 C 32.63936614990234 73.5 27.9249324798584 72.54837799072266 23.48763275146484 70.67156219482422 C 19.20096588134766 68.85845184326172 15.35082244873047 66.26250457763672 12.04415512084961 62.95583724975586 C 8.737500190734863 59.6491813659668 6.141555786132812 55.79903793334961 4.328444480895996 51.51235961914062 C 2.451622247695923 47.07506942749023 1.5 42.36062622070312 1.5 37.50000381469727 C 1.5 32.63936996459961 2.451622247695923 27.92493629455566 4.328444480895996 23.48763656616211 C 6.141555786132812 19.20096015930176 8.737500190734863 15.35082626342773 12.04415512084961 12.04415893554688 C 15.35082244873047 8.737504005432129 19.20095634460449 6.141559600830078 23.48763275146484 4.328448295593262 C 27.9249324798584 2.451626062393188 32.63936614990234 1.500003814697266 37.5 1.500003814697266 C 42.36063385009766 1.500003814697266 47.07506561279297 2.451626062393188 51.51236724853516 4.328448295593262 C 55.79904556274414 6.141559600830078 59.64917755126953 8.737504005432129 62.95584487915039 12.04415893554688 C 66.26249694824219 15.35082626342773 68.85844421386719 19.20096015930176 70.67155456542969 23.48763656616211 C 72.54837799072266 27.92493629455566 73.5 32.63936996459961 73.5 37.50000381469727 C 73.5 42.36062622070312 72.54837799072266 47.07506942749023 70.67155456542969 51.51235961914062 C 68.85844421386719 55.79903793334961 66.26249694824219 59.6491813659668 62.95584487915039 62.95583724975586 C 59.64917755126953 66.26250457763672 55.79903411865234 68.85845184326172 51.51236724853516 70.67156219482422 C 47.07506561279297 72.54837799072266 42.36063385009766 73.5 37.5 73.5 Z" stroke="none"/>
                      <path d="M 37.5 3.000007629394531 C 32.84121322631836 3.000007629394531 28.3233642578125 3.911766052246094 24.07196426391602 5.709953308105469 C 19.96408843994141 7.447441101074219 16.27420043945312 9.935432434082031 13.10481262207031 13.10481643676758 C 9.9354248046875 16.27420425415039 7.447441101074219 19.96409225463867 5.709953308105469 24.07196807861328 C 3.911766052246094 28.32336807250977 3 32.84120559692383 3 37.50000381469727 C 3 42.15879058837891 3.911766052246094 46.67662811279297 5.709953308105469 50.92802810668945 C 7.447441101074219 55.03591537475586 9.9354248046875 58.72579193115234 13.10481262207031 61.89517974853516 C 16.27421188354492 65.06456756591797 19.96408843994141 67.55256652832031 24.07196426391602 69.29005432128906 C 28.3233642578125 71.08824157714844 32.84121322631836 72 37.5 72 C 42.15878677368164 72 46.6766357421875 71.08824157714844 50.92803955078125 69.29005432128906 C 55.03591156005859 67.55256652832031 58.72578811645508 65.06456756591797 61.89518737792969 61.89517974853516 C 65.0645751953125 58.72579193115234 67.55256652832031 55.03591537475586 69.29004669189453 50.92802810668945 C 71.08823394775391 46.67662811279297 72 42.15879058837891 72 37.50000381469727 C 72 32.84120559692383 71.08823394775391 28.32336807250977 69.29004669189453 24.07196807861328 C 67.55256652832031 19.96409225463867 65.0645751953125 16.27420425415039 61.89518737792969 13.10481643676758 C 58.72579956054688 9.935432434082031 55.03591156005859 7.447441101074219 50.92803955078125 5.709953308105469 C 46.6766357421875 3.911766052246094 42.15878677368164 3.000007629394531 37.5 3.000007629394531 M 37.5 7.62939453125e-06 C 58.21067428588867 7.62939453125e-06 75 16.7893180847168 75 37.50000381469727 C 75 58.21066665649414 58.21067428588867 75 37.5 75 C 16.78932571411133 75 0 58.21066665649414 0 37.50000381469727 C 0 16.7893180847168 16.78932571411133 7.62939453125e-06 37.5 7.62939453125e-06 Z" stroke="none" fill="#eca675"/>
                    </g>
                  </g>
                </g>
              </g>
            </g>
          </g>
        </g>
      </g>
    </g>
    <g id="concentration_2654397" transform="translate(1052.613 12938.5)">
      <g id="Grupo_1224050" data-name="Grupo 1224050" transform="translate(6.823 1.823)">
        <g id="Grupo_1224028" data-name="Grupo 1224028" transform="translate(17.332 34.548)">
          <path id="Trazado_1179752" data-name="Trazado 1179752" d="M34.527,48.738l.008.008a3.783,3.783,0,0,0-.485.6l-.107.148a3.532,3.532,0,0,0-.79-.814L31.3,47.29l-1.851,1.39a3.532,3.532,0,0,0-.79.814l-.107-.148a3.783,3.783,0,0,0-.485-.6l.008-.008L29.658,44h3.29Z" transform="translate(-28.07 -44)" fill="#5cd6b3"/>
        </g>
        <g id="Grupo_1224029" data-name="Grupo 1224029" transform="translate(17.365 29.613)">
          <path id="Trazado_1179753" data-name="Trazado 1179753" d="M34.51,39.826l-1.555,3.109h-3.29L28.11,39.826,31.31,38Z" transform="translate(-28.11 -38)" fill="#48cfad"/>
        </g>
        <g id="Grupo_1224030" data-name="Grupo 1224030" transform="translate(15.037 31.439)">
          <path id="Trazado_1179754" data-name="Trazado 1179754" d="M27.608,40.22l1.555,3.109-1.579,4.738-.008.008a2.234,2.234,0,0,0-.2-.2l.008-.008L25.28,41.553Z" transform="translate(-25.28 -40.22)" fill="#e6e9ed"/>
        </g>
        <g id="Grupo_1224031" data-name="Grupo 1224031" transform="translate(22.21 31.439)">
          <path id="Trazado_1179755" data-name="Trazado 1179755" d="M37.883,41.553,35.777,47.87l.008.008a2.234,2.234,0,0,0-.2.2l-.008-.008L34,43.329l1.555-3.109Z" transform="translate(-34 -40.22)" fill="#e6e9ed"/>
        </g>
        <g id="Grupo_1224032" data-name="Grupo 1224032" transform="translate(20.565 27.145)">
          <path id="Trazado_1179756" data-name="Trazado 1179756" d="M39.214,35.568l-1.686,5.059L35.2,39.294,32,37.468,36.1,35h.008Z" transform="translate(-32 -35)" fill="#ccd1d9"/>
        </g>
        <g id="Grupo_1224033" data-name="Grupo 1224033" transform="translate(13.35 27.145)">
          <path id="Trazado_1179757" data-name="Trazado 1179757" d="M30.444,37.468l-3.2,1.826-2.328,1.333L23.23,35.568l3.1-.568h.008Z" transform="translate(-23.23 -35)" fill="#ccd1d9"/>
        </g>
        <g id="Grupo_1224034" data-name="Grupo 1224034" transform="translate(2.468 27.713)">
          <path id="Trazado_1179758" data-name="Trazado 1179758" d="M19.871,52.4v4.935H14.113A4.114,4.114,0,0,1,10,53.219V45.684a9.615,9.615,0,0,1,.732-3.677,9.51,9.51,0,0,1,2.081-3.118,7.477,7.477,0,0,1,.913-.79,9.156,9.156,0,0,1,2.9-1.546,8.3,8.3,0,0,1,1.259-.321l2.994-.543,1.686,5.059,2.106,6.317-.008.008a4.577,4.577,0,0,0-3.15-1.259v2.27a1.585,1.585,0,0,0,.008.2h-.008a2.972,2.972,0,0,0-2.665-1.645h-.625v1.785A5.623,5.623,0,0,0,19.871,52.4Z" transform="translate(-10 -35.69)" fill="#4fc1e9"/>
        </g>
        <g id="Grupo_1224035" data-name="Grupo 1224035" transform="translate(23.986 27.713)">
          <path id="Trazado_1179759" data-name="Trazado 1179759" d="M40.964,52.4a5.623,5.623,0,0,0,1.645-3.973V46.639h-.625a2.972,2.972,0,0,0-2.665,1.645H39.31a1.585,1.585,0,0,0,.008-.2v-2.27a4.577,4.577,0,0,0-3.15,1.259l-.008-.008,2.106-6.317,1.686-5.059,2.994.543a8.3,8.3,0,0,1,1.259.321,9.156,9.156,0,0,1,2.9,1.546,7.477,7.477,0,0,1,.913.79A9.51,9.51,0,0,1,50.1,42.007a9.615,9.615,0,0,1,.732,3.677v7.535a4.114,4.114,0,0,1-4.113,4.113H40.964Z" transform="translate(-36.16 -35.69)" fill="#4fc1e9"/>
        </g>
        <g id="Grupo_1224036" data-name="Grupo 1224036" transform="translate(0 4.277)">
          <path id="Trazado_1179760" data-name="Trazado 1179760" d="M16.591,9.026a.412.412,0,0,0,.066.058,9.5,9.5,0,0,0-.321,5.668l.074.3A13.98,13.98,0,0,0,16.1,31.491V31.5a9.156,9.156,0,0,0-2.9,1.546l-.008-.008a1.073,1.073,0,0,0-1.291-.387l-2.385.987L7.617,29.081l2.394-1a1.086,1.086,0,0,0,.633-1.226.029.029,0,0,1-.008-.016,1.082,1.082,0,0,0-1.053-.888H7V21.019H9.583a1.082,1.082,0,0,0,1.053-.888.029.029,0,0,1,.008-.016,1.086,1.086,0,0,0-.633-1.226l-2.394-1,1.892-4.557,2.385.987a1.08,1.08,0,0,0,1.316-.411.029.029,0,0,1,.008-.016,1.083,1.083,0,0,0-.115-1.382l-1.826-1.826L14.765,7.2Z" transform="translate(-7 -7.2)" fill="#fcd770"/>
        </g>
        <g id="Grupo_1224037" data-name="Grupo 1224037" transform="translate(31.472 4.277)">
          <path id="Trazado_1179761" data-name="Trazado 1179761" d="M54.917,21.019v4.935H52.334a1.082,1.082,0,0,0-1.053.888.029.029,0,0,1-.008.016,1.086,1.086,0,0,0,.633,1.226l2.394,1-1.892,4.557-2.385-.987a1.073,1.073,0,0,0-1.291.387l-.008.008a9.156,9.156,0,0,0-2.9-1.546v-.008a13.98,13.98,0,0,0-.313-16.435l.074-.3a9.5,9.5,0,0,0-.321-5.668.412.412,0,0,0,.066-.058L47.152,7.2l3.488,3.488-1.826,1.826A1.083,1.083,0,0,0,48.7,13.9a.029.029,0,0,1,.008.016,1.08,1.08,0,0,0,1.316.411l2.385-.987L54.3,17.894l-2.394,1a1.086,1.086,0,0,0-.633,1.226.029.029,0,0,1,.008.016,1.082,1.082,0,0,0,1.053.888Z" transform="translate(-45.26 -7.2)" fill="#fcd770"/>
        </g>
        <g id="Grupo_1224038" data-name="Grupo 1224038" transform="translate(9.048 0)">
          <path id="Trazado_1179762" data-name="Trazado 1179762" d="M35.472,10.505a3.257,3.257,0,0,1-2.665,1.365H27.451a2.859,2.859,0,0,1-2.032-.839A2.774,2.774,0,0,1,24.7,9.823l-1.415.847a4.114,4.114,0,0,0-2,3.529v.962h-.823a2.447,2.447,0,0,0-1.686.666l-.42-1.695-.074-.3a9.5,9.5,0,0,1,.321-5.668,9.612,9.612,0,0,1,2.18-3.373A9.506,9.506,0,0,1,27.525,2h3.981a9.507,9.507,0,0,1,9.238,11.829l-.074.3-.42,1.695a2.447,2.447,0,0,0-1.686-.666h-.823V14.2a4.114,4.114,0,0,0-2-3.529Z" transform="translate(-18 -2)" fill="#656d78"/>
        </g>
        <g id="Grupo_1224039" data-name="Grupo 1224039" transform="translate(13.984 37.839)">
          <path id="Trazado_1179763" data-name="Trazado 1179763" d="M28.129,54.581H27.29l-.165-.321a2.385,2.385,0,0,0-2.139-1.324,2.042,2.042,0,0,0-.5.058v-.008a7.716,7.716,0,0,1-.477-2.517,1.585,1.585,0,0,1-.008-.2V48a4.577,4.577,0,0,1,3.15,1.259,2.234,2.234,0,0,1,.2.2,3.783,3.783,0,0,1,.485.6l.107.148a3.577,3.577,0,0,0-.65,2.065,3.626,3.626,0,0,0,.839,2.311Z" transform="translate(-24 -48)" fill="#fc6e51"/>
        </g>
        <g id="Grupo_1224040" data-name="Grupo 1224040" transform="translate(23.016 37.839)">
          <path id="Trazado_1179764" data-name="Trazado 1179764" d="M39.109,48v2.27a1.585,1.585,0,0,1-.008.2,7.716,7.716,0,0,1-.477,2.517v.008a2.042,2.042,0,0,0-.5-.058,2.385,2.385,0,0,0-2.139,1.324l-.165.321H34.98a3.626,3.626,0,0,0,.839-2.311,3.577,3.577,0,0,0-.65-2.065l.107-.148a3.782,3.782,0,0,1,.485-.6,2.234,2.234,0,0,1,.2-.2A4.577,4.577,0,0,1,39.109,48Z" transform="translate(-34.98 -48)" fill="#fc6e51"/>
        </g>
        <g id="Grupo_1224041" data-name="Grupo 1224041" transform="translate(10.694 38.661)">
          <path id="Trazado_1179765" data-name="Trazado 1179765" d="M23.776,53.162v.008a2.364,2.364,0,0,0-1.185.642l-.946.946A5.623,5.623,0,0,1,20,50.785V49h.625a2.972,2.972,0,0,1,2.665,1.645H23.3A7.716,7.716,0,0,0,23.776,53.162Z" transform="translate(-20 -49)" fill="#ff826e"/>
        </g>
        <g id="Grupo_1224042" data-name="Grupo 1224042" transform="translate(28.412 13.161)">
          <path id="Trazado_1179766" data-name="Trazado 1179766" d="M44.427,18.666a2.469,2.469,0,0,1-1.686,4.269h-1.2a8.15,8.15,0,0,0,.378-2.468V18h.823a2.447,2.447,0,0,1,1.686.666Z" transform="translate(-41.54 -18)" fill="#f0d0b4"/>
        </g>
        <g id="Grupo_1224043" data-name="Grupo 1224043" transform="translate(26.66 38.661)">
          <path id="Trazado_1179767" data-name="Trazado 1179767" d="M43.186,49v1.785a5.623,5.623,0,0,1-1.645,3.973l-.946-.946a2.364,2.364,0,0,0-1.185-.642v-.008a7.716,7.716,0,0,0,.477-2.517H39.9A2.972,2.972,0,0,1,42.56,49Z" transform="translate(-39.41 -49)" fill="#ff826e"/>
        </g>
        <g id="Grupo_1224044" data-name="Grupo 1224044" transform="translate(20.565 42.774)">
          <path id="Trazado_1179768" data-name="Trazado 1179768" d="M40.226,55.645v4.935H34.468a2.468,2.468,0,0,1-.016-4.935h.839l.165-.321A2.385,2.385,0,0,1,37.594,54a2.042,2.042,0,0,1,.5.058,2.364,2.364,0,0,1,1.185.642Z" transform="translate(-32 -54)" fill="#f0d0b4"/>
        </g>
        <g id="Grupo_1224045" data-name="Grupo 1224045" transform="translate(12.339 7.823)">
          <path id="Trazado_1179769" data-name="Trazado 1179769" d="M33.516,26.851a8.233,8.233,0,0,1-9.106-1.719A8.213,8.213,0,0,1,22,19.316v-3.43a4.114,4.114,0,0,1,2-3.529l1.415-.847a2.774,2.774,0,0,0,.716,1.209,2.859,2.859,0,0,0,2.032.839h5.355a3.257,3.257,0,0,0,2.665-1.365l.271.165a4.114,4.114,0,0,1,2,3.529v3.43a8.214,8.214,0,0,1-4.935,7.535Z" transform="translate(-22 -11.51)" fill="#f0d0b4"/>
        </g>
        <g id="Grupo_1224046" data-name="Grupo 1224046" transform="translate(16.46 23.164)">
          <path id="Trazado_1179770" data-name="Trazado 1179770" d="M35.219,34.141l-4.1,2.468-4.1-2.468h.016l.8-3.981a8.18,8.18,0,0,0,6.581,0l.8,3.981Z" transform="translate(-27.01 -30.16)" fill="#f0d0b4"/>
        </g>
        <g id="Grupo_1224047" data-name="Grupo 1224047" transform="translate(17.274 37.839)">
          <path id="Trazado_1179771" data-name="Trazado 1179771" d="M33.931,50.2a3.577,3.577,0,0,1,.65,2.065,3.626,3.626,0,0,1-.839,2.311,2.472,2.472,0,0,0-2.451,2.468,2.472,2.472,0,0,0-2.451-2.468A3.626,3.626,0,0,1,28,52.269a3.577,3.577,0,0,1,.65-2.065,3.532,3.532,0,0,1,.79-.814L31.29,48l1.851,1.39A3.532,3.532,0,0,1,33.931,50.2Z" transform="translate(-28 -48)" fill="#ff826e"/>
        </g>
        <g id="Grupo_1224048" data-name="Grupo 1224048" transform="translate(12.339 42.774)">
          <path id="Trazado_1179772" data-name="Trazado 1179772" d="M29.5,56.369a2.466,2.466,0,0,1-1.744,4.212H22V55.645l.946-.946a2.364,2.364,0,0,1,1.185-.642,2.042,2.042,0,0,1,.5-.058,2.385,2.385,0,0,1,2.139,1.324l.165.321h.839A2.472,2.472,0,0,1,29.5,56.369Z" transform="translate(-22 -54)" fill="#f0d0b4"/>
        </g>
        <g id="Grupo_1224049" data-name="Grupo 1224049" transform="translate(9.048 13.161)">
          <path id="Trazado_1179773" data-name="Trazado 1179773" d="M21.669,22.935h-1.2a2.468,2.468,0,0,1,0-4.935h.823v2.468a8.15,8.15,0,0,0,.378,2.468Z" transform="translate(-18 -18)" fill="#f0d0b4"/>
        </g>
      </g>
      <g id="Grupo_1224051" data-name="Grupo 1224051" transform="translate(6 1)">
        <path id="Trazado_1179774" data-name="Trazado 1179774" d="M27.468,20.468A2.471,2.471,0,0,0,29.935,18H28.29a.823.823,0,0,1-1.645,0H25A2.471,2.471,0,0,0,27.468,20.468Z" transform="translate(-9.371 -4.016)"/>
        <path id="Trazado_1179775" data-name="Trazado 1179775" d="M35.468,20.468A2.471,2.471,0,0,0,37.935,18H36.29a.823.823,0,1,1-1.645,0H33A2.471,2.471,0,0,0,35.468,20.468Z" transform="translate(-10.79 -4.016)"/>
        <path id="Trazado_1179776" data-name="Trazado 1179776" d="M28.654,23.808l-.043-.127-1.56.525.043.124a4.245,4.245,0,0,0,8.055,0l.043-.127-1.56-.525-.043.129a2.6,2.6,0,0,1-4.935,0Z" transform="translate(-9.735 -5.024)"/>
        <path id="Trazado_1179777" data-name="Trazado 1179777" d="M45.369,25.677h3.405V19.1H45.369a.272.272,0,0,1-.253-.248.263.263,0,0,1,.142-.3l3.146-1.3-2.519-6.08-3.146,1.3a.269.269,0,0,1-.327-.131A.263.263,0,0,1,42.429,12l2.408-2.408L40.184,4.938,38.55,6.571A10.349,10.349,0,0,0,29.382,1h-3.99a10.348,10.348,0,0,0-9.168,5.571L14.591,4.938,9.939,9.591,12.346,12a.271.271,0,0,1,0,.353.265.265,0,0,1-.315.114l-3.147-1.3-2.519,6.08,3.146,1.3a.271.271,0,0,1,.138.323.263.263,0,0,1-.248.229H6v6.581H9.405a.272.272,0,0,1,.253.248.263.263,0,0,1-.142.3l-3.146,1.3,2.519,6.08,2.1-.87a10.339,10.339,0,0,0-2.522,6.785v7.539A4.94,4.94,0,0,0,13.4,52H24.919a3.269,3.269,0,0,0,2.468-1.137A3.269,3.269,0,0,0,29.855,52H41.371a4.94,4.94,0,0,0,4.935-4.935V39.526a10.344,10.344,0,0,0-2.52-6.785l2.1.87,2.519-6.08-3.146-1.3a.271.271,0,0,1-.138-.323.262.262,0,0,1,.247-.228Zm-7.627,3.591-5.57-1.01-.562-2.81a9.089,9.089,0,0,0,4.2-4.706h.628a3.284,3.284,0,0,0,3.262-3,13.112,13.112,0,0,1-1.2,11.694C38.246,29.37,38,29.314,37.742,29.268ZM34.77,42.4a2.134,2.134,0,0,1,1.666-1.083v.955a4.756,4.756,0,0,1-.875,2.756l-.311-.311a3.213,3.213,0,0,0-.756-.545A8.5,8.5,0,0,0,34.77,42.4Zm-1.625-.463a6.962,6.962,0,0,1-.248,1.844,3.2,3.2,0,0,0-1.416.369c0-.073.019-.146.019-.219a4.423,4.423,0,0,0-.484-2,3.761,3.761,0,0,1,2.13-1.352Zm-5.758,4.621a3.261,3.261,0,0,0-1.99-1.088,2.754,2.754,0,0,1,.633-3.76l1.357-1.018,1.357,1.018a2.754,2.754,0,0,1,.633,3.76,3.274,3.274,0,0,0-1.99,1.089Zm-7.863-1.841-.311.311a4.765,4.765,0,0,1-.874-2.756v-.955A2.134,2.134,0,0,1,20,42.4a8.592,8.592,0,0,0,.276,1.772,3.23,3.23,0,0,0-.756.545Zm2.353-.935a6.972,6.972,0,0,1-.248-1.845V40.574a3.77,3.77,0,0,1,2.13,1.352,4.429,4.429,0,0,0-.485,2c0,.074.016.146.019.22A3.192,3.192,0,0,0,21.877,43.78Zm-5.6-14.346a13.112,13.112,0,0,1-1.2-11.694,3.284,3.284,0,0,0,3.262,3h.628a9.089,9.089,0,0,0,4.2,4.706l-.562,2.81-5.57,1.01C16.779,29.314,16.528,29.37,16.28,29.434ZM18.5,19.1h-.157a1.645,1.645,0,1,1,0-3.29v1.645A9.039,9.039,0,0,0,18.5,19.1Zm6.824-6.581h5.357a4.088,4.088,0,0,0,2.8-1.118,3.306,3.306,0,0,1,1.313,2.624v3.429a7.4,7.4,0,0,1-14.806,0V14.022a3.308,3.308,0,0,1,1.6-2.821l.64-.384a3.687,3.687,0,0,0,3.1,1.7Zm5.237,16.058-3.169,1.9-3.169-1.9.5-2.478a9.055,9.055,0,0,0,5.348,0ZM25.344,40.166l.991-2.972h2.1l.99,2.972-2.043-1.532Zm3.18-4.617H26.25l-.978-1.957,2.1-1.2.01.006.01-.006,2.1,1.2Zm-5.4-5.712,2.637,1.582-3.438,1.964-1.069-3.207Zm.718,4.573,1.013,2.025L24.1,38.706l-1.245-3.733Zm6.08,2.025,1.013-2.025.989.565-1.245,3.732Zm2.532-3.052-3.438-1.964,2.637-1.582,1.87.339Zm3.983-15.931V15.806a1.645,1.645,0,0,1,0,3.29h-.157A9.039,9.039,0,0,0,36.435,17.452ZM25.392,2.645h3.99a8.7,8.7,0,0,1,8.44,10.808l-.232.928a3.264,3.264,0,0,0-1.154-.22v-.139a4.96,4.96,0,0,0-2-3.959A4.071,4.071,0,0,0,34.79,8.4,4.118,4.118,0,0,0,30.677,4.29a2.468,2.468,0,1,0,0,4.935H31.5V7.581h-.823a.823.823,0,1,1,0-1.645,2.468,2.468,0,1,1,0,4.935H25.32a2.046,2.046,0,0,1-.648-3.986l.507-.169-.519-1.56-.508.169a3.685,3.685,0,0,0-2.523,3.5,3.63,3.63,0,0,0,.041.4l-.935.561a4.961,4.961,0,0,0-2.4,4.232v.139a3.264,3.264,0,0,0-1.154.22l-.232-.928a8.7,8.7,0,0,1,8.44-10.808ZM8.519,28.422l1.627-.674a1.939,1.939,0,0,0-.74-3.716H7.645v-3.29h1.76a1.94,1.94,0,0,0,.74-3.716l-1.627-.674,1.259-3.04,1.627.674a1.939,1.939,0,0,0,2.1-3.15L12.264,9.591,14.59,7.264l.946.946a10.268,10.268,0,0,0-.191,5.579,14.776,14.776,0,0,0-.663,16.2,10.359,10.359,0,0,0-1.63.907,1.871,1.871,0,0,0-1.648-.109l-1.627.674Zm1.594,18.643V39.526a8.779,8.779,0,0,1,7.214-8.64l2.292-.415L22.5,39.118a5.449,5.449,0,0,0-1.7-.28h-.823v1.3a3.793,3.793,0,0,0-1.839-.48H16.694V42.27a6.394,6.394,0,0,0,.826,3.15H15.048V38.839H13.4v6.581H11.758v1.645h6.581v3.29H13.4A3.294,3.294,0,0,1,10.113,47.065Zm14.806,3.29H19.984V46.582l.7-.7a1.569,1.569,0,0,1,2.512.407l.388.779h1.332a1.645,1.645,0,0,1,0,3.29Zm3.29-1.645a1.647,1.647,0,0,1,1.645-1.645h1.332l.388-.778a1.569,1.569,0,0,1,2.512-.408l.7.7v3.772H29.855A1.647,1.647,0,0,1,28.21,48.71Zm16.452-1.645a3.294,3.294,0,0,1-3.29,3.29H36.435v-3.29h6.581V45.419H41.371V38.839H39.726v6.581H37.255a6.394,6.394,0,0,0,.826-3.15V39.661H36.63a3.79,3.79,0,0,0-1.839.48v-1.3h-.823a5.417,5.417,0,0,0-1.695.28l2.883-8.648,2.292.415a8.778,8.778,0,0,1,7.213,8.639Zm-.032-19.316,1.627.674L45,31.463l-1.627-.674a1.877,1.877,0,0,0-1.648.109,10.293,10.293,0,0,0-1.63-.907,14.776,14.776,0,0,0-.663-16.2,10.259,10.259,0,0,0-.192-5.579l.946-.946,2.326,2.327-1.245,1.245a1.939,1.939,0,0,0,2.1,3.15L45,13.312l1.259,3.04-1.627.674a1.939,1.939,0,0,0,.74,3.716h1.76v3.29h-1.76a1.94,1.94,0,0,0-.74,3.716Z" transform="translate(-6 -1)"/>
      </g>
    </g>
  </g>
</svg>
