<svg xmlns="http://www.w3.org/2000/svg" xmlns:xlink="http://www.w3.org/1999/xlink" width="118" height="118" viewBox="0 0 118 118">
  <defs>
    <filter id="Trazado_982547" x="0" y="0" width="118" height="118" filterUnits="userSpaceOnUse">
      <feOffset dy="3" input="SourceAlpha"/>
      <feGaussianBlur stdDeviation="3" result="blur"/>
      <feFlood flood-opacity="0.161"/>
      <feComposite operator="in" in2="blur"/>
      <feComposite in="SourceGraphic"/>
    </filter>
  </defs>
  <g id="Grupo_1223958" data-name="Grupo 1223958" transform="translate(-321 -5120.756)">
    <g id="Grupo_1223827" data-name="Grupo 1223827" transform="translate(330 5126.756)">
      <g id="Grupo_1223741" data-name="Grupo 1223741">
        <g id="Grupo_1223199" data-name="Grupo 1223199">
          <g id="Grupo_1211216" data-name="Grupo 1211216" transform="translate(0)">
            <g id="Grupo_1210737" data-name="Grupo 1210737">
              <g id="Grupo_1210537" data-name="Grupo 1210537">
                <g id="Grupo_1164202" data-name="Grupo 1164202">
                  <g id="Grupo_1158168" data-name="Grupo 1158168">
                    <g id="Grupo_1152576" data-name="Grupo 1152576">
                      <g id="Grupo_1148633" data-name="Grupo 1148633">
                        <g id="Grupo_1148525" data-name="Grupo 1148525">
                          <g transform="matrix(1, 0, 0, 1, -9, -6)" filter="url(#Trazado_982547)">
                            <g id="Trazado_982547-2" data-name="Trazado 982547" transform="translate(9 6)" fill="#fcf5f0">
                              <path d="M 49.99999618530273 98.5 C 43.45188140869141 98.5 37.10042572021484 97.21786499023438 31.12206840515137 94.68923950195312 C 25.34691047668457 92.24655151367188 20.15996742248535 88.74931335449219 15.70532512664795 84.29468536376953 C 11.25068187713623 79.84004211425781 7.753438949584961 74.65309906005859 5.310753345489502 68.87792205810547 C 2.782124757766724 62.89956665039062 1.499996185302734 56.54811096191406 1.499996185302734 49.99999618530273 C 1.499996185302734 43.45188140869141 2.782124757766724 37.10042572021484 5.310753345489502 31.12206840515137 C 7.753438949584961 25.34691047668457 11.25068187713623 20.15996742248535 15.70532512664795 15.70532512664795 C 20.15996742248535 11.25068187713623 25.34691047668457 7.753438949584961 31.12206840515137 5.310753345489502 C 37.10042572021484 2.782124757766724 43.45188140869141 1.499996185302734 49.99999618530273 1.499996185302734 C 56.54811096191406 1.499996185302734 62.89956665039062 2.782124757766724 68.87792205810547 5.310753345489502 C 74.65309906005859 7.753438949584961 79.84004211425781 11.25068187713623 84.29468536376953 15.70532512664795 C 88.74931335449219 20.15996742248535 92.24655151367188 25.34691047668457 94.68923950195312 31.12206840515137 C 97.21786499023438 37.10042572021484 98.5 43.45188140869141 98.5 49.99999618530273 C 98.5 56.54811096191406 97.21786499023438 62.89956665039062 94.68923950195312 68.87792205810547 C 92.24655151367188 74.65309906005859 88.74931335449219 79.84004211425781 84.29468536376953 84.29468536376953 C 79.84004211425781 88.74931335449219 74.65309906005859 92.24655151367188 68.87792205810547 94.68923950195312 C 62.89956665039062 97.21786499023438 56.54811096191406 98.5 49.99999618530273 98.5 Z" stroke="none"/>
                              <path d="M 49.99999618530273 2.999992370605469 C 43.65372085571289 2.999992370605469 37.49885940551758 4.242256164550781 31.70639801025391 6.6922607421875 C 26.11002349853516 9.059318542480469 21.08335113525391 12.4486083984375 16.76598358154297 16.76598358154297 C 12.4486083984375 21.08335113525391 9.059318542480469 26.11002349853516 6.6922607421875 31.70639801025391 C 4.242256164550781 37.49885940551758 2.999992370605469 43.65372085571289 2.999992370605469 49.99999618530273 C 2.999992370605469 56.34627151489258 4.242256164550781 62.50113296508789 6.6922607421875 68.29359436035156 C 9.059318542480469 73.88996887207031 12.4486083984375 78.91664123535156 16.76598358154297 83.2340087890625 C 21.08335113525391 87.55138397216797 26.11002349853516 90.940673828125 31.70639801025391 93.30773162841797 C 37.49885940551758 95.75773620605469 43.65372085571289 97 49.99999618530273 97 C 56.34627151489258 97 62.50113296508789 95.75773620605469 68.29359436035156 93.30773162841797 C 73.88996887207031 90.940673828125 78.91664123535156 87.55138397216797 83.2340087890625 83.2340087890625 C 87.55138397216797 78.91664123535156 90.940673828125 73.88996887207031 93.30773162841797 68.29359436035156 C 95.75773620605469 62.50113296508789 97 56.34627151489258 97 49.99999618530273 C 97 43.65372085571289 95.75773620605469 37.49885940551758 93.30773162841797 31.70639801025391 C 90.940673828125 26.11002349853516 87.55138397216797 21.08335113525391 83.2340087890625 16.76598358154297 C 78.91664123535156 12.4486083984375 73.88996887207031 9.059318542480469 68.29359436035156 6.6922607421875 C 62.50113296508789 4.242256164550781 56.34627151489258 2.999992370605469 49.99999618530273 2.999992370605469 M 49.99999618530273 -7.62939453125e-06 C 77.61422729492188 -7.62939453125e-06 100 22.38576507568359 100 49.99999618530273 C 100 77.61422729492188 77.61422729492188 100 49.99999618530273 100 C 22.38576507568359 100 -7.62939453125e-06 77.61422729492188 -7.62939453125e-06 49.99999618530273 C -7.62939453125e-06 22.38576507568359 22.38576507568359 -7.62939453125e-06 49.99999618530273 -7.62939453125e-06 Z" stroke="none" fill="#eca675"/>
                            </g>
                          </g>
                        </g>
                      </g>
                    </g>
                  </g>
                </g>
              </g>
            </g>
          </g>
        </g>
      </g>
    </g>
    <g id="decision-making_18091921_1_" data-name="decision-making_18091921 (1)" transform="translate(315.396 5092.886)">
      <g id="Grupo_1223957" data-name="Grupo 1223957" transform="translate(27.134 50.272)">
        <path id="Trazado_1179561" data-name="Trazado 1179561" d="M115.876,303.342l-4.395,7.2-4.891-7.454c-1.837-2.8-7.043.769-4.616,3.111l8.379,11.7a2.788,2.788,0,0,0,.684.471,2.65,2.65,0,0,0,3.494-1.132l3.144-6.1v14.889c0,.831.793,1.147,1.567,1.51h15.516a1.541,1.541,0,0,0,1.562-1.51V311.141l3.149,6.1a2.647,2.647,0,0,0,3.494,1.132,2.755,2.755,0,0,0,.679-.471l7.454-11.25c2.421-2.347-2.063-6.487-3.692-3.564l-4.891,8.772-4.39-8.522c-.746-1.444-5.934-2.172-11.126-2.172s-10.38.728-11.122,2.172Z" transform="translate(-89.956 -260.354)" fill="#b39ccb" fill-rule="evenodd"/>
        <path id="Trazado_1179562" data-name="Trazado 1179562" d="M299.947,233.65l1.68.09c.926.047,1.341.831.926,1.732l-.821,1.8a2.782,2.782,0,0,1-2.431,1.557l-1.68-.095Z" transform="translate(-253.547 -204.079)" fill="#f598a2" fill-rule="evenodd"/>
        <path id="Trazado_1179563" data-name="Trazado 1179563" d="M219.871,303.347l4.39,8.522,4.891-8.772a1.586,1.586,0,0,1,.893-.566,13.1,13.1,0,0,1,2.365,4.547l-7.02,10.835a2.656,2.656,0,0,1-4.173-.661l-3.149-6.1v8.573c-.216-.038-.44-.08-.656-.123-9.937-1.969-17.991-9.026-17.991-15.758a7.686,7.686,0,0,1,.18-1.67c5.3-1.64,19.024-1.249,20.271,1.177Z" transform="translate(-171.701 -260.36)" fill="#d0c3e1" fill-rule="evenodd"/>
        <path id="Trazado_1179564" data-name="Trazado 1179564" d="M231.645,282.52h7.827v3.474c0,1.907.538,2.766-1.242,3.469a5.82,5.82,0,0,1-5.226,0c-1.67-.921-1.359-1.562-1.359-3.469Z" transform="translate(-198.54 -244.81)" fill="#f598a2" fill-rule="evenodd"/>
        <path id="Trazado_1179565" data-name="Trazado 1179565" d="M214.64,313.766l.874-7.236,6.227,4.362Z" transform="translate(-184.386 -264.822)" fill="#43b3e6" fill-rule="evenodd"/>
        <path id="Trazado_1179566" data-name="Trazado 1179566" d="M264.375,313.458l-.878-7.3-6.217,4.423Z" transform="translate(-219.925 -264.513)" fill="#43b3e6" fill-rule="evenodd"/>
        <path id="Trazado_1179567" data-name="Trazado 1179567" d="M238.851,327.48h3.579l1.331,14.237h-.018l-1.549,2.426-1.552,2.426-1.554-2.426-1.549-2.426h-.018Z" transform="translate(-203.456 -282.283)" fill="#43b3e6" fill-rule="evenodd"/>
        <path id="Trazado_1179568" data-name="Trazado 1179568" d="M253.834,327.48h1.114l1.331,14.237h-.018l-1.549,2.426-.155.245-.445-.7-1.552-2.426h-.02Z" transform="translate(-215.975 -282.283)" fill="#83d4f7" fill-rule="evenodd"/>
        <path id="Trazado_1179569" data-name="Trazado 1179569" d="M245.446,315h1.487a1.265,1.265,0,0,1,1.266,1.266v2.766a1.268,1.268,0,0,1-1.266,1.266h-1.487a1.272,1.272,0,0,1-1.266-1.266v-2.766A1.269,1.269,0,0,1,245.446,315Z" transform="translate(-209.007 -271.881)" fill="#43b3e6" fill-rule="evenodd"/>
        <path id="Trazado_1179570" data-name="Trazado 1179570" d="M218.831,186.37a7.594,7.594,0,0,1,7.6,7.6c0,4.192-3.4,9.734-7.6,9.734s-7.591-5.542-7.591-9.734A7.593,7.593,0,0,1,218.831,186.37Z" transform="translate(-181.553 -164.673)" fill="#f598a2" fill-rule="evenodd"/>
        <path id="Trazado_1179571" data-name="Trazado 1179571" d="M234.992,186.37a7.594,7.594,0,0,1,7.6,7.6,11.55,11.55,0,0,1-4.135,8.45c-.075.005-.152.005-.227.005-4.192,0-7.6-5.542-7.6-9.734a7.591,7.591,0,0,1,3.258-6.237A7.832,7.832,0,0,1,234.992,186.37Z" transform="translate(-197.714 -164.673)" fill="#f9b5b2" fill-rule="evenodd"/>
        <path id="Trazado_1179572" data-name="Trazado 1179572" d="M75.346,301.11h5.712a2.521,2.521,0,1,1,0,5.043H75.346a2.521,2.521,0,1,1,0-5.043Z" transform="translate(-66.185 -260.304)" fill="#f598a2" fill-rule="evenodd"/>
        <path id="Trazado_1179573" data-name="Trazado 1179573" d="M382.549,306.9h-5.712a2.524,2.524,0,1,0,0,5.048h5.712a2.524,2.524,0,0,0,0-5.048Z" transform="translate(-317.465 -265.13)" fill="#f598a2" fill-rule="evenodd"/>
        <path id="Trazado_1179574" data-name="Trazado 1179574" d="M218.719,173.191a6.384,6.384,0,0,1-2.02-2.715q-4.751,2.123-8.27-.656a2.011,2.011,0,0,0-2.058-.293,5.871,5.871,0,0,0-3.587,4.5c-1.166-2.483-2.19-11.888,2.7-10.4C207.078,157.485,222.877,160,218.719,173.191Z" transform="translate(-173.698 -143.067)" fill="#6dcff1" fill-rule="evenodd"/>
        <path id="Trazado_1179575" data-name="Trazado 1179575" d="M227.009,183.614a8.688,8.688,0,0,1-1.487-2.29q-4.751,2.123-8.27-.656a2.011,2.011,0,0,0-2.058-.293,5.883,5.883,0,0,0-2.748,2.29c-.236-3.342.443-6.981,3.626-6.014.983-3.785,7.351-4.287,11.126-1.029,1.127,2.04,1.472,4.825.355,8.389-.09-.165-.18-.34-.265-.52C227.193,183.534,227.1,183.573,227.009,183.614Z" transform="translate(-182.522 -153.917)" fill="#3ab6e9" fill-rule="evenodd"/>
        <path id="Trazado_1179576" data-name="Trazado 1179576" d="M363.4,177.941a19.188,19.188,0,0,1,7.123-8.975,43.285,43.285,0,0,1-9.215-7.516s-.128,1.647-.383,4.943A13.806,13.806,0,0,0,348.4,183.242a17.266,17.266,0,0,1,13.648-10.882Q363.4,177.941,363.4,177.941Z" transform="translate(-295.585 -143.903)" fill="#43b649" fill-rule="evenodd"/>
        <path id="Trazado_1179577" data-name="Trazado 1179577" d="M373.848,188.692a22.518,22.518,0,0,1,7.123-8.975c-2.205-1.572-5.118-3.044-7.346-5.368t-.383,4.938a13.792,13.792,0,0,0-12.652,11.345,17.263,17.263,0,0,1,11.906-7.521Q373.85,188.692,373.848,188.692Z" transform="translate(-306.03 -154.655)" fill="#5fbb46" fill-rule="evenodd"/>
        <path id="Trazado_1179578" data-name="Trazado 1179578" d="M108.275,56.09a8.467,8.467,0,1,1-8.465,8.469A8.468,8.468,0,0,1,108.275,56.09Z" transform="translate(-88.68 -56.09)" fill="#fed733" fill-rule="evenodd"/>
        <path id="Trazado_1179579" data-name="Trazado 1179579" d="M131.882,74.191a8.467,8.467,0,0,1-10.693,12.374,8.469,8.469,0,0,1,10.693-12.374Z" transform="translate(-105.283 -70.476)" fill="#feea3a" fill-rule="evenodd"/>
        <path id="Trazado_1179580" data-name="Trazado 1179580" d="M314.6,56.34a8.445,8.445,0,1,1-8.445,8.445A8.444,8.444,0,0,1,314.6,56.34Z" transform="translate(-260.656 -56.298)" fill="#fed733" fill-rule="evenodd"/>
        <path id="Trazado_1179581" data-name="Trazado 1179581" d="M319.122,89.359a8.445,8.445,0,0,1-12.146-10.772,8.445,8.445,0,0,1,12.146,10.772Z" transform="translate(-260.656 -73.743)" fill="#feea3a" fill-rule="evenodd"/>
        <path id="Trazado_1179582" data-name="Trazado 1179582" d="M40.1,177.941a19.249,19.249,0,0,0-7.123-8.975,43.284,43.284,0,0,0,9.215-7.516s.128,1.647.383,4.943A13.8,13.8,0,0,1,55.1,183.242,17.258,17.258,0,0,0,41.455,172.36Q40.1,177.941,40.1,177.941Z" transform="translate(-32.98 -143.903)" fill="#43b649" fill-rule="evenodd"/>
        <path id="Trazado_1179583" data-name="Trazado 1179583" d="M40.1,188.692a22.518,22.518,0,0,0-7.123-8.975c2.2-1.572,5.113-3.044,7.346-5.368t.378,4.938a13.808,13.808,0,0,1,12.657,11.345,17.263,17.263,0,0,0-11.906-7.521Q40.1,188.692,40.1,188.692Z" transform="translate(-32.98 -154.655)" fill="#5fbb46" fill-rule="evenodd"/>
        <path id="Trazado_1179584" data-name="Trazado 1179584" d="M190.884,233.65l-1.68.09c-.926.047-1.346.831-.929,1.732l.826,1.8a2.772,2.772,0,0,0,2.431,1.557l1.68-.095Z" transform="translate(-162.277 -204.079)" fill="#f598a2" fill-rule="evenodd"/>
      </g>
      <path id="Trazado_1179585" data-name="Trazado 1179585" d="M55.013,81.047l-.864.047.859,1.894a1.654,1.654,0,0,0,1.294.878ZM54,78.771l.345-.018c-.358-2.2-.481-5.363.59-7.346a3.289,3.289,0,0,1,3.253-1.879c3.134-6.057,17.868-3.088,15.6,9.163l1.487.08A2.264,2.264,0,0,1,77.2,82.151l-.821,1.8a3.948,3.948,0,0,1-3.551,2.233l-1.7-.09a11.634,11.634,0,0,1-1.9,2.29v1.78c2.238.221,6.175.756,7.1,2.563l3.4,6.59,3.224-5.782a3.7,3.7,0,0,1,.939-1.577,3.656,3.656,0,0,1,2.606-1.086h5.712a3.69,3.69,0,0,1,0,7.379H88.559l-6.765,10.211a3.4,3.4,0,0,1-1.147.878,3.812,3.812,0,0,1-5.033-1.647l-.949-1.837v10.089a2.718,2.718,0,0,1-2.728,2.681H56.42a1.311,1.311,0,0,1-.628-.175c-1.071-.5-2.1-.983-2.1-2.506V105.86l-.949,1.837a3.818,3.818,0,0,1-5.547,1.346,2.854,2.854,0,0,1-.61-.538L38.551,97.293H36.3a3.689,3.689,0,0,1,0-7.378h5.712A3.7,3.7,0,0,1,45.7,93.6c0,.072,0,.142,0,.213l2.936,4.48,3.417-5.609c1.024-1.775,4.763-2.28,7.035-2.511l0-2.295a12.04,12.04,0,0,1-1.364-1.76c-1.3.072-2.148.245-3.361-.533A3.95,3.95,0,0,1,52.9,83.958l-.826-1.8A2.265,2.265,0,0,1,54,78.771ZM33.171,84.729A18.126,18.126,0,0,0,26.5,76.318a1.159,1.159,0,0,1,.1-2.015,35.234,35.234,0,0,0,4.382-3.083,50.337,50.337,0,0,0,4.527-4.2,1.164,1.164,0,0,1,2,.723v0l.306,3.97A14.981,14.981,0,0,1,50.388,89.872a1.165,1.165,0,0,1-2.247.085,16.1,16.1,0,0,0-11.659-9.886l-1.1,4.513a1.164,1.164,0,0,1-2.215.145Zm-1.063-6.4a21.757,21.757,0,0,1,1.765,2.606l.586-2.416a1.162,1.162,0,0,1,1.312-.939,18.4,18.4,0,0,1,12.619,7.894A12.627,12.627,0,0,0,36.684,73.931,1.163,1.163,0,0,1,35.57,72.85l-.188-2.416a44.168,44.168,0,0,1-6.165,4.981,18.31,18.31,0,0,1,2.893,2.918ZM76.951,60.421a1.163,1.163,0,1,1,1.469-1.8l2.077,1.7,3.083-5.537A1.162,1.162,0,0,1,85.61,55.9l-3.87,6.921a1.166,1.166,0,0,1-1.639.165Zm4.122-11.273a9.611,9.611,0,1,1-9.611,9.611A9.609,9.609,0,0,1,81.073,49.148Zm5.144,4.467a7.28,7.28,0,1,0,0,10.3A7.283,7.283,0,0,0,86.218,53.615ZM48.755,55A1.166,1.166,0,0,1,50.4,56.654l-2.025,2.025,2.153,2.148a1.166,1.166,0,0,1-1.652,1.647l-2.148-2.148-2.153,2.148a1.165,1.165,0,0,1-1.647-1.647l2.153-2.148-2.025-2.025A1.166,1.166,0,1,1,44.7,55l2.025,2.025ZM46.729,49.11A9.631,9.631,0,1,1,37.1,58.741,9.629,9.629,0,0,1,46.729,49.11Zm5.159,4.467a7.3,7.3,0,1,0,0,10.324A7.3,7.3,0,0,0,51.889,53.577Zm43.44,27.362a19.622,19.622,0,0,1,4.66-5.527,44.633,44.633,0,0,1-6.165-4.981l-.185,2.416a1.166,1.166,0,0,1-1.119,1.081,12.628,12.628,0,0,0-11.7,11.546A18.388,18.388,0,0,1,93.435,77.58a1.158,1.158,0,0,1,1.307.939Zm3.589-1.157a21.44,21.44,0,0,0-2.879,4.948,1.163,1.163,0,0,1-2.213-.147l-1.1-4.513A16.1,16.1,0,0,0,81.07,89.955a1.165,1.165,0,0,1-2.247-.085A14.979,14.979,0,0,1,91.4,71.7l.306-3.97v0a1.164,1.164,0,0,1,2-.723,50.537,50.537,0,0,0,4.523,4.2A35.355,35.355,0,0,0,102.6,74.3a1.162,1.162,0,0,1,.1,2.015A15.613,15.613,0,0,0,98.918,79.782ZM60.372,70.4a6.915,6.915,0,0,1,2.738,6.1c2.035,1.317,4.248,1.156,6.552.128a1.168,1.168,0,0,1,1.521.556c.123.26.25.5.368.713C72.939,68.73,62.562,67.073,60.372,70.4Zm.844,7.6a.953.953,0,0,0-.5-.245c-.543-.08-1.492.6-1.855.929a4.954,4.954,0,0,0-.869,1.053,10.569,10.569,0,0,0,2.228,5.905c2.285,2.926,5.378,3.607,8.18.26a10.922,10.922,0,0,0,2.352-5.154A7.83,7.83,0,0,1,69.6,79.15,8.39,8.39,0,0,1,61.217,77.993Zm-.438-2.578a4.77,4.77,0,0,0-.42-1.464,4.617,4.617,0,0,0-1.884-2.03,1.972,1.972,0,0,0-.628-.072c-1.058.075-1.336,1.964-1.4,2.954a15.8,15.8,0,0,0,.1,2.941C57.5,76.581,59.22,75.325,60.779,75.415ZM92.218,93.208H86.506a1.357,1.357,0,0,0,0,2.715h5.712a1.357,1.357,0,0,0,0-2.715Zm-6.405,4.98a3.7,3.7,0,0,1-2.1-1.217l-3,5.378a1.162,1.162,0,0,1-2.048-.033L74.272,93.8c-.165-.321-1.539-.7-2.267-.859l.741,6.147a1.17,1.17,0,0,1-1.6,1.212l-3.559-1.441L68.6,109.6a1.182,1.182,0,0,1-.288.878L65.3,115.186a1.161,1.161,0,0,1-1.969-.018L60.346,110.5a1.132,1.132,0,0,1-.293-1L61.035,99l-3.211,1.3a1.166,1.166,0,0,1-1.59-1.212l.756-6.274c-.746.137-2.691.581-2.9.986-.018.028-.033.057-.052.08l-4.385,7.194a1.163,1.163,0,0,1-1.963.033l-3.158-4.815a3.688,3.688,0,0,1-2.521,1h-.59l7,9.763a1.517,1.517,0,0,0,2.262-.425l3.144-6.1a1.166,1.166,0,0,1,2.2.533v14.885a2.692,2.692,0,0,0,.651.35H71.944a.375.375,0,0,0,.4-.35V101.065a1.167,1.167,0,0,1,2.238-.458l3.111,6.024a1.484,1.484,0,0,0,2.157.5.591.591,0,0,0,.095-.072Zm-43.8-5.942H36.3a1.357,1.357,0,0,0,0,2.715h5.712a1.356,1.356,0,0,0,.958-2.313A1.329,1.329,0,0,0,42.008,92.245ZM66.9,89.94a6.164,6.164,0,0,1-5.5-.255l-.023,3.064.391.278a2.417,2.417,0,0,1,1.8-.8h1.487a2.422,2.422,0,0,1,1.907.926l.013,0-.08-1.69V89.94Zm.59,5.694v.671l2.7,1.1L69.783,94ZM65.347,99.84H63.288l-.9,9.554,1.925,3.013,1.927-3.013Zm-4.205-3.4V95.423l-1.958-1.374-.4,3.352Zm3.919-1.884H63.573l-.1.1v2.766l.1.1H65.06l.1-.1V94.657ZM75.119,81.094l-.859-.047-1.289,2.818a1.646,1.646,0,0,0,1.289-.878Z"/>
    </g>
  </g>
</svg>
