<svg xmlns="http://www.w3.org/2000/svg" xmlns:xlink="http://www.w3.org/1999/xlink" width="118" height="118" viewBox="0 0 118 118">
  <defs>
    <filter id="Trazado_982547" x="0" y="0" width="118" height="118" filterUnits="userSpaceOnUse">
      <feOffset dy="3" input="SourceAlpha"/>
      <feGaussianBlur stdDeviation="3" result="blur"/>
      <feFlood flood-opacity="0.161"/>
      <feComposite operator="in" in2="blur"/>
      <feComposite in="SourceGraphic"/>
    </filter>
  </defs>
  <g id="Grupo_1224000" data-name="Grupo 1224000" transform="translate(-1161 -5120.756)">
    <g id="Grupo_1223829" data-name="Grupo 1223829" transform="translate(1170 5126.756)">
      <g id="Grupo_1223741" data-name="Grupo 1223741">
        <g id="Grupo_1223199" data-name="Grupo 1223199">
          <g id="Grupo_1211216" data-name="Grupo 1211216" transform="translate(0)">
            <g id="Grupo_1210737" data-name="Grupo 1210737">
              <g id="Grupo_1210537" data-name="Grupo 1210537">
                <g id="Grupo_1164202" data-name="Grupo 1164202">
                  <g id="Grupo_1158168" data-name="Grupo 1158168">
                    <g id="Grupo_1152576" data-name="Grupo 1152576">
                      <g id="Grupo_1148633" data-name="Grupo 1148633">
                        <g id="Grupo_1148525" data-name="Grupo 1148525">
                          <g transform="matrix(1, 0, 0, 1, -9, -6)" filter="url(#Trazado_982547)">
                            <g id="Trazado_982547-2" data-name="Trazado 982547" transform="translate(9 6)" fill="#fcf5f0">
                              <path d="M 49.99999618530273 98.5 C 43.45188140869141 98.5 37.10042572021484 97.21786499023438 31.12206840515137 94.68923950195312 C 25.34691047668457 92.24655151367188 20.15996742248535 88.74931335449219 15.70532512664795 84.29468536376953 C 11.25068187713623 79.84004211425781 7.753438949584961 74.65309906005859 5.310753345489502 68.87792205810547 C 2.782124757766724 62.89956665039062 1.499996185302734 56.54811096191406 1.499996185302734 49.99999618530273 C 1.499996185302734 43.45188140869141 2.782124757766724 37.10042572021484 5.310753345489502 31.12206840515137 C 7.753438949584961 25.34691047668457 11.25068187713623 20.15996742248535 15.70532512664795 15.70532512664795 C 20.15996742248535 11.25068187713623 25.34691047668457 7.753438949584961 31.12206840515137 5.310753345489502 C 37.10042572021484 2.782124757766724 43.45188140869141 1.499996185302734 49.99999618530273 1.499996185302734 C 56.54811096191406 1.499996185302734 62.89956665039062 2.782124757766724 68.87792205810547 5.310753345489502 C 74.65309906005859 7.753438949584961 79.84004211425781 11.25068187713623 84.29468536376953 15.70532512664795 C 88.74931335449219 20.15996742248535 92.24655151367188 25.34691047668457 94.68923950195312 31.12206840515137 C 97.21786499023438 37.10042572021484 98.5 43.45188140869141 98.5 49.99999618530273 C 98.5 56.54811096191406 97.21786499023438 62.89956665039062 94.68923950195312 68.87792205810547 C 92.24655151367188 74.65309906005859 88.74931335449219 79.84004211425781 84.29468536376953 84.29468536376953 C 79.84004211425781 88.74931335449219 74.65309906005859 92.24655151367188 68.87792205810547 94.68923950195312 C 62.89956665039062 97.21786499023438 56.54811096191406 98.5 49.99999618530273 98.5 Z" stroke="none"/>
                              <path d="M 49.99999618530273 2.999992370605469 C 43.65372085571289 2.999992370605469 37.49885940551758 4.242256164550781 31.70639801025391 6.6922607421875 C 26.11002349853516 9.059318542480469 21.08335113525391 12.4486083984375 16.76598358154297 16.76598358154297 C 12.4486083984375 21.08335113525391 9.059318542480469 26.11002349853516 6.6922607421875 31.70639801025391 C 4.242256164550781 37.49885940551758 2.999992370605469 43.65372085571289 2.999992370605469 49.99999618530273 C 2.999992370605469 56.34627151489258 4.242256164550781 62.50113296508789 6.6922607421875 68.29359436035156 C 9.059318542480469 73.88996887207031 12.4486083984375 78.91664123535156 16.76598358154297 83.2340087890625 C 21.08335113525391 87.55138397216797 26.11002349853516 90.940673828125 31.70639801025391 93.30773162841797 C 37.49885940551758 95.75773620605469 43.65372085571289 97 49.99999618530273 97 C 56.34627151489258 97 62.50113296508789 95.75773620605469 68.29359436035156 93.30773162841797 C 73.88996887207031 90.940673828125 78.91664123535156 87.55138397216797 83.2340087890625 83.2340087890625 C 87.55138397216797 78.91664123535156 90.940673828125 73.88996887207031 93.30773162841797 68.29359436035156 C 95.75773620605469 62.50113296508789 97 56.34627151489258 97 49.99999618530273 C 97 43.65372085571289 95.75773620605469 37.49885940551758 93.30773162841797 31.70639801025391 C 90.940673828125 26.11002349853516 87.55138397216797 21.08335113525391 83.2340087890625 16.76598358154297 C 78.91664123535156 12.4486083984375 73.88996887207031 9.059318542480469 68.29359436035156 6.6922607421875 C 62.50113296508789 4.242256164550781 56.34627151489258 2.999992370605469 49.99999618530273 2.999992370605469 M 49.99999618530273 -7.62939453125e-06 C 77.61422729492188 -7.62939453125e-06 100 22.38576507568359 100 49.99999618530273 C 100 77.61422729492188 77.61422729492188 100 49.99999618530273 100 C 22.38576507568359 100 -7.62939453125e-06 77.61422729492188 -7.62939453125e-06 49.99999618530273 C -7.62939453125e-06 22.38576507568359 22.38576507568359 -7.62939453125e-06 49.99999618530273 -7.62939453125e-06 Z" stroke="none" fill="#eca675"/>
                            </g>
                          </g>
                        </g>
                      </g>
                    </g>
                  </g>
                </g>
              </g>
            </g>
          </g>
        </g>
      </g>
    </g>
    <g id="brainstorm_6446948" transform="translate(1189.54 5146.468)">
      <g id="Grupo_1223998" data-name="Grupo 1223998" transform="translate(0.977 0.977)">
        <g id="Grupo_1223961" data-name="Grupo 1223961" transform="translate(9.77 54.713)">
          <path id="Trazado_1179606" data-name="Trazado 1179606" d="M95.816,458.931a.976.976,0,0,1-.977.977H88.977a.977.977,0,0,1-.977-.977A2.931,2.931,0,0,1,90.931,456h1.954a2.93,2.93,0,0,1,2.931,2.931Z" transform="translate(-88 -456)" fill="#969faa"/>
        </g>
        <g id="Grupo_1223962" data-name="Grupo 1223962" transform="translate(1.954 54.713)">
          <path id="Trazado_1179607" data-name="Trazado 1179607" d="M31.816,458.931a.977.977,0,0,1-.977.977H24.977a.976.976,0,0,1-.977-.977A2.93,2.93,0,0,1,26.931,456h1.954a2.931,2.931,0,0,1,2.931,2.931Z" transform="translate(-24 -456)" fill="#969faa"/>
        </g>
        <g id="Grupo_1223963" data-name="Grupo 1223963" transform="translate(1.954 35.173)">
          <path id="Trazado_1179608" data-name="Trazado 1179608" d="M39.632,296v7.816H24V296a1.953,1.953,0,0,0,1.954,1.954h1.954A1.951,1.951,0,0,0,29.862,296h9.77Z" transform="translate(-24 -296)" fill="#cf9e76"/>
        </g>
        <g id="Grupo_1223964" data-name="Grupo 1223964" transform="translate(1.954 42.989)">
          <path id="Trazado_1179609" data-name="Trazado 1179609" d="M39.632,360v2.931a.977.977,0,0,1-.977.977H24.977a.977.977,0,0,1-.977-.977V360Z" transform="translate(-24 -360)" fill="#d3a06c"/>
        </g>
        <g id="Grupo_1223965" data-name="Grupo 1223965" transform="translate(0 18.409)">
          <path id="Trazado_1179610" data-name="Trazado 1179610" d="M27.54,164.448v3.239H9.954A1.953,1.953,0,0,0,8,169.641v-5.193a5.862,5.862,0,0,1,4.441-5.687l.084-.021,2.314,3.085,2.931-1.954,2.931,1.954,2.314-3.085.084.021A5.862,5.862,0,0,1,27.54,164.448Z" transform="translate(-8 -158.74)" fill="#b4dd7f"/>
        </g>
        <g id="Grupo_1223966" data-name="Grupo 1223966" transform="translate(9.77 17.586)">
          <path id="Trazado_1179611" data-name="Trazado 1179611" d="M93.245,152.823l-2.314,3.085L88,153.954,89.954,152Z" transform="translate(-88 -152)" fill="#a0d468"/>
        </g>
        <g id="Grupo_1223967" data-name="Grupo 1223967" transform="translate(4.525 17.586)">
          <path id="Trazado_1179612" data-name="Trazado 1179612" d="M50.3,153.954l-2.931,1.954-2.314-3.085L48.341,152Z" transform="translate(-45.05 -152)" fill="#a0d468"/>
        </g>
        <g id="Grupo_1223968" data-name="Grupo 1223968" transform="translate(19.54 17.586)">
          <path id="Trazado_1179613" data-name="Trazado 1179613" d="M183.632,161.77H168V157a3.907,3.907,0,0,1,2.96-3.791L175.816,152v1.954a1.954,1.954,0,1,0,3.908,0V152l4.856,1.214A3.907,3.907,0,0,1,187.54,157v4.765Z" transform="translate(-168 -152)" fill="#e6e9ed"/>
        </g>
        <g id="Grupo_1223969" data-name="Grupo 1223969" transform="translate(21.494 35.173)">
          <path id="Trazado_1179614" data-name="Trazado 1179614" d="M199.078,313.032a1.893,1.893,0,0,1-.492,3.031l-.126.064a2.924,2.924,0,0,0-1.759-.586h-1.954a2.931,2.931,0,0,0-2.931,2.931,2.931,2.931,0,0,0-2.931-2.931h-1.954a2.924,2.924,0,0,0-1.759.586l-.126-.064a1.892,1.892,0,0,1-.492-3.031l.845-.845a1.892,1.892,0,0,0,.554-1.339V297.954A1.951,1.951,0,0,0,187.908,296h7.816a1.953,1.953,0,0,0,1.954,1.954v12.894a1.892,1.892,0,0,0,.554,1.339Z" transform="translate(-184 -296)" fill="#d3a06c"/>
        </g>
        <g id="Grupo_1223970" data-name="Grupo 1223970" transform="translate(29.31 54.713)">
          <path id="Trazado_1179615" data-name="Trazado 1179615" d="M255.816,458.931a.976.976,0,0,1-.977.977h-5.862a.977.977,0,0,1-.977-.977A2.931,2.931,0,0,1,250.931,456h1.954a2.931,2.931,0,0,1,2.931,2.931Z" transform="translate(-248 -456)" fill="#969faa"/>
        </g>
        <g id="Grupo_1223971" data-name="Grupo 1223971" transform="translate(21.494 54.713)">
          <path id="Trazado_1179616" data-name="Trazado 1179616" d="M191.816,458.931a.977.977,0,0,1-.977.977h-5.862a.976.976,0,0,1-.977-.977A2.931,2.931,0,0,1,186.931,456h1.954a2.931,2.931,0,0,1,2.931,2.931Z" transform="translate(-184 -456)" fill="#969faa"/>
        </g>
        <g id="Grupo_1223972" data-name="Grupo 1223972" transform="translate(48.851 54.713)">
          <path id="Trazado_1179617" data-name="Trazado 1179617" d="M415.816,458.931a.976.976,0,0,1-.977.977h-5.862a.977.977,0,0,1-.977-.977A2.931,2.931,0,0,1,410.931,456h1.954a2.93,2.93,0,0,1,2.931,2.931Z" transform="translate(-408 -456)" fill="#d3a06c"/>
        </g>
        <g id="Grupo_1223973" data-name="Grupo 1223973" transform="translate(41.035 54.713)">
          <path id="Trazado_1179618" data-name="Trazado 1179618" d="M351.816,458.931a.977.977,0,0,1-.977.977h-5.862a.976.976,0,0,1-.977-.977A2.93,2.93,0,0,1,346.931,456h1.954a2.931,2.931,0,0,1,2.931,2.931Z" transform="translate(-344 -456)" fill="#d3a06c"/>
        </g>
        <g id="Grupo_1223974" data-name="Grupo 1223974" transform="translate(50.955 35.926)">
          <path id="Trazado_1179619" data-name="Trazado 1179619" d="M425.651,302.8a1.953,1.953,0,0,0,1.382.572h1.954a1.945,1.945,0,0,0,.97-.258l2.938,5.143-.7.418a17.579,17.579,0,0,1-3.212,1.511,17.4,17.4,0,0,1-2.038.583l-1.72-8.6Z" transform="translate(-425.23 -302.17)" fill="#aab2bd"/>
        </g>
        <g id="Grupo_1223975" data-name="Grupo 1223975" transform="translate(39.081 35.173)">
          <path id="Trazado_1179620" data-name="Trazado 1179620" d="M335.816,296l-1.87,9.35q-.445-.1-.884-.22c-.388-.107-.774-.228-1.154-.363a17.578,17.578,0,0,1-3.212-1.511l-.7-.418L331.908,296Z" transform="translate(-328 -296)" fill="#aab2bd"/>
        </g>
        <g id="Grupo_1223976" data-name="Grupo 1223976" transform="translate(45.027 35.173)">
          <path id="Trazado_1179621" data-name="Trazado 1179621" d="M382.468,296l.15.754,1.72,8.6a17.612,17.612,0,0,1-7.648,0l1.87-9.35Z" transform="translate(-376.69 -296)" fill="#969faa"/>
        </g>
        <g id="Grupo_1223977" data-name="Grupo 1223977" transform="translate(39.081 18.075)">
          <path id="Trazado_1179622" data-name="Trazado 1179622" d="M347.54,169.19a1.409,1.409,0,0,0-.915-1.32l-2.993-1.122-3.908-1.466H328v-3.239a5.862,5.862,0,0,1,4.441-5.687l1.422-.355v1.466a3.908,3.908,0,1,0,7.816,0V156l1.422.355a5.862,5.862,0,0,1,4.44,5.687Z" transform="translate(-328 -156)" fill="#fcd770"/>
        </g>
        <g id="Grupo_1223978" data-name="Grupo 1223978" transform="translate(11.724 27.356)">
          <path id="Trazado_1179623" data-name="Trazado 1179623" d="M143.081,232v7.816H131.356a1.953,1.953,0,0,0-1.954-1.954h-1.954a1.951,1.951,0,0,0-1.954,1.954h-7.816a1.953,1.953,0,0,0-1.954-1.954H113.77a1.951,1.951,0,0,0-1.954,1.954H104V232h39.081Z" transform="translate(-104 -232)" fill="#ff826e"/>
        </g>
        <g id="Grupo_1223979" data-name="Grupo 1223979" transform="translate(7.816 27.356)">
          <path id="Trazado_1179624" data-name="Trazado 1179624" d="M72,232h3.908v7.816H72Z" transform="translate(-72 -232)" fill="#ffeaa7"/>
        </g>
        <g id="Grupo_1223980" data-name="Grupo 1223980" transform="translate(3.908 46.897)">
          <path id="Trazado_1179625" data-name="Trazado 1179625" d="M45.862,392v10.747a2.931,2.931,0,0,0-2.931-2.931H40.977a2.911,2.911,0,0,0-.977.167V392Z" transform="translate(-40 -392)" fill="#f0d0b4"/>
        </g>
        <g id="Grupo_1223981" data-name="Grupo 1223981" transform="translate(9.77 46.897)">
          <path id="Trazado_1179626" data-name="Trazado 1179626" d="M88,402.747V392h5.862v7.983a2.911,2.911,0,0,0-.977-.167H90.931A2.931,2.931,0,0,0,88,402.747Z" transform="translate(-88 -392)" fill="#f0d0b4"/>
        </g>
        <g id="Grupo_1223982" data-name="Grupo 1223982" transform="translate(42.989 43.94)">
          <path id="Trazado_1179627" data-name="Trazado 1179627" d="M371.724,367.79v10.94a2.91,2.91,0,0,0-.977-.167h-1.954a2.931,2.931,0,0,0-2.931,2.931,2.931,2.931,0,0,0-2.931-2.931h-1.954a2.91,2.91,0,0,0-.977.167V367.79c.38.134.766.255,1.154.363q.44.121.884.22a17.612,17.612,0,0,0,7.648,0A17.386,17.386,0,0,0,371.724,367.79Z" transform="translate(-360 -367.79)" fill="#f0d0b4"/>
        </g>
        <g id="Grupo_1223983" data-name="Grupo 1223983" transform="translate(50.805 33.219)">
          <path id="Trazado_1179628" data-name="Trazado 1179628" d="M429.29,280.572a1.955,1.955,0,0,1-1.382,3.337h-1.954a1.953,1.953,0,0,1-1.382-.572l-.421-.629-.15-.754A1.953,1.953,0,0,1,425.954,280h1.954a1.963,1.963,0,0,1,1.382.572Z" transform="translate(-424 -280)" fill="#f0d0b4"/>
        </g>
        <g id="Grupo_1223984" data-name="Grupo 1223984" transform="translate(33.218 33.219)">
          <path id="Trazado_1179629" data-name="Trazado 1179629" d="M283.908,280a1.954,1.954,0,1,1,0,3.908h-1.954a1.954,1.954,0,1,1,0-3.908Z" transform="translate(-280 -280)" fill="#f0d0b4"/>
        </g>
        <g id="Grupo_1223985" data-name="Grupo 1223985" transform="translate(19.54 33.219)">
          <path id="Trazado_1179630" data-name="Trazado 1179630" d="M171.908,280a1.954,1.954,0,1,1,0,3.908h-1.954a1.954,1.954,0,1,1,0-3.908Z" transform="translate(-168 -280)" fill="#f0d0b4"/>
        </g>
        <g id="Grupo_1223986" data-name="Grupo 1223986" transform="translate(1.954 33.219)">
          <path id="Trazado_1179631" data-name="Trazado 1179631" d="M27.908,280a1.954,1.954,0,1,1,0,3.908H25.954a1.954,1.954,0,1,1,0-3.908Z" transform="translate(-24 -280)" fill="#f0d0b4"/>
        </g>
        <g id="Grupo_1223987" data-name="Grupo 1223987" transform="translate(0 27.356)">
          <path id="Trazado_1179632" data-name="Trazado 1179632" d="M15.816,232v7.816a1.953,1.953,0,0,0-1.954-1.954H11.908a1.951,1.951,0,0,0-1.954,1.954A1.954,1.954,0,0,1,8,237.862v-3.908A1.953,1.953,0,0,1,9.954,232Z" transform="translate(-8 -232)" fill="#ccd1d9"/>
        </g>
        <g id="Grupo_1223988" data-name="Grupo 1223988" transform="translate(50.805 27.356)">
          <path id="Trazado_1179633" data-name="Trazado 1179633" d="M425.954,237.862A1.953,1.953,0,0,0,424,239.816V232l3.908,1.466v4.4Z" transform="translate(-424 -232)" fill="#ccd1d9"/>
        </g>
        <g id="Grupo_1223989" data-name="Grupo 1223989" transform="translate(54.713 28.822)">
          <path id="Trazado_1179634" data-name="Trazado 1179634" d="M458.993,245.122a1.409,1.409,0,0,1,0,2.64l-2.173.815A1.94,1.94,0,0,0,456,248.4V244Z" transform="translate(-456 -244)" fill="#969faa"/>
        </g>
        <g id="Grupo_1223990" data-name="Grupo 1223990" transform="translate(39.081 0)">
          <path id="Trazado_1179635" data-name="Trazado 1179635" d="M347.54,13.278h0a5.279,5.279,0,0,1-1.981,4.122l-5.835,4.668h-3.908L329.981,17.4A5.279,5.279,0,0,1,328,13.28h0A5.278,5.278,0,0,1,333.278,8h0a6.123,6.123,0,0,1,4.331,1.794l.16.16.16-.16A6.123,6.123,0,0,1,342.261,8h0A5.278,5.278,0,0,1,347.54,13.278Z" transform="translate(-328 -8)" fill="#ff826e"/>
        </g>
        <g id="Grupo_1223991" data-name="Grupo 1223991" transform="translate(44.943 14.069)">
          <path id="Trazado_1179636" data-name="Trazado 1179636" d="M383.816,127.206v1.466a3.908,3.908,0,1,1-7.816,0v-1.466l1.954-.489V123.2h3.908v3.517Z" transform="translate(-376 -123.2)" fill="#f0d0b4"/>
        </g>
        <g id="Grupo_1223992" data-name="Grupo 1223992" transform="translate(27.356 17.064)">
          <path id="Trazado_1179637" data-name="Trazado 1179637" d="M235.908,148.243V150.2a1.954,1.954,0,1,1-3.908,0V147.72a3.914,3.914,0,0,0,3.908,0h0Z" transform="translate(-232 -147.72)" fill="#f0d0b4"/>
        </g>
        <g id="Grupo_1223993" data-name="Grupo 1223993" transform="translate(7.816 15.632)">
          <path id="Trazado_1179638" data-name="Trazado 1179638" d="M75.908,136v1.954l-1.954,1.954L72,137.954V136Z" transform="translate(-72 -136)" fill="#f0d0b4"/>
        </g>
        <g id="Grupo_1223994" data-name="Grupo 1223994" transform="translate(25.402 13.678)">
          <path id="Trazado_1179639" data-name="Trazado 1179639" d="M219.908,120h3.908A3.908,3.908,0,1,1,216,120Z" transform="translate(-216 -120)" fill="#ccd1d9"/>
        </g>
        <g id="Grupo_1223995" data-name="Grupo 1223995" transform="translate(23.449)">
          <path id="Trazado_1179640" data-name="Trazado 1179640" d="M205.865,21.678h-3.908V18.23a5.862,5.862,0,1,1,7.816,0v3.448Z" transform="translate(-200.003 -8)" fill="#ffeaa7"/>
        </g>
        <g id="Grupo_1223996" data-name="Grupo 1223996" transform="translate(27.356 3.908)">
          <circle id="Elipse_14745" data-name="Elipse 14745" cx="1.954" cy="1.954" r="1.954" fill="#fcd770"/>
        </g>
        <g id="Grupo_1223997" data-name="Grupo 1223997" transform="translate(1.954 0)">
          <path id="Trazado_1179641" data-name="Trazado 1179641" d="M39.632,13.862V17.77H37.344a5.881,5.881,0,0,1-.237.573l1.618,1.618-2.764,2.764-1.618-1.618a5.88,5.88,0,0,1-.573.237v2.289H29.862V21.344a5.881,5.881,0,0,1-.573-.237l-1.618,1.618-2.764-2.764,1.618-1.618a5.88,5.88,0,0,1-.237-.573H24V13.862h2.289a5.881,5.881,0,0,1,.237-.573l-1.618-1.618,2.764-2.764,1.618,1.618a5.881,5.881,0,0,1,.573-.237V8H33.77v2.289a5.882,5.882,0,0,1,.573.237l1.618-1.618,2.764,2.764-1.618,1.618a5.881,5.881,0,0,1,.237.573ZM33.77,15.816a1.954,1.954,0,1,0-1.954,1.954A1.953,1.953,0,0,0,33.77,15.816Z" transform="translate(-24 -8)" fill="#fcd770"/>
        </g>
      </g>
      <g id="Grupo_1223999" data-name="Grupo 1223999" transform="translate(0 0)">
        <path id="Trazado_1179642" data-name="Trazado 1179642" d="M59.4,44.244l1.516-.91-3.013-5.272a2.924,2.924,0,0,0,.362-3.3l.756-.284a2.4,2.4,0,0,0,1.549-2.235V25.094a6.829,6.829,0,0,0-5.18-6.635L52.759,17.8V15.516l5.468-4.375A6.256,6.256,0,0,0,54.319,0a7.049,7.049,0,0,0-4.491,1.6A7.049,7.049,0,0,0,45.336,0a6.256,6.256,0,0,0-3.908,11.141L46.9,15.516V17.8l-2.636.659a6.827,6.827,0,0,0-3.9,2.64,4.876,4.876,0,0,0-3.031-2.27l-3.458-.865a4.867,4.867,0,0,0,1.3-3.31V11.624a6.839,6.839,0,1,0-9.77,0v3.031a4.866,4.866,0,0,0,1.3,3.31l-3.458.865a4.876,4.876,0,0,0-3.031,2.27,6.826,6.826,0,0,0-3.9-2.64L13.678,17.8V15.869l1.214,1.214,4.145-4.145-1.214-1.214H19.54V5.862H17.823l1.214-1.214L14.892.5,13.678,1.717V0H7.816V1.717L6.6.5,2.457,4.648,3.671,5.862H1.954v5.862H3.671L2.457,12.938,6.6,17.083l1.214-1.214V17.8l-2.636.659A6.829,6.829,0,0,0,0,25.094v9.1a2.936,2.936,0,0,0,1.954,2.763V46.9a1.956,1.956,0,0,0,1.954,1.954v6.388a3.91,3.91,0,0,0-1.954,3.382,1.956,1.956,0,0,0,1.954,1.954H9.77a1.94,1.94,0,0,0,.977-.264,1.94,1.94,0,0,0,.977.264h5.862a1.956,1.956,0,0,0,1.954-1.954,3.91,3.91,0,0,0-1.954-3.382V48.851A1.956,1.956,0,0,0,19.54,46.9v-9.77h.168a2.936,2.936,0,0,0,2.763,1.954h.977V51a.91.91,0,0,1-.268.648l-.845.845a2.872,2.872,0,0,0-.143,3.906,3.886,3.886,0,0,0-.7,2.224,1.956,1.956,0,0,0,1.954,1.954H29.31a1.94,1.94,0,0,0,.977-.264,1.94,1.94,0,0,0,.977.264h5.862a1.956,1.956,0,0,0,1.954-1.954,3.885,3.885,0,0,0-.7-2.224,2.872,2.872,0,0,0-.143-3.906l-.845-.845A.91.91,0,0,1,37.127,51V39.081H38.1a2.936,2.936,0,0,0,2.763-1.954h1.416l-3.547,6.208,1.516.91a18.6,18.6,0,0,0,2.738,1.349v9.645a3.91,3.91,0,0,0-1.954,3.382,1.956,1.956,0,0,0,1.954,1.954h5.862a1.94,1.94,0,0,0,.977-.264,1.94,1.94,0,0,0,.977.264h5.862a1.956,1.956,0,0,0,1.954-1.954,3.91,3.91,0,0,0-1.954-3.382V45.593A18.612,18.612,0,0,0,59.4,44.244Zm-5,.054-1.049-5.243a2.946,2.946,0,0,0,.377.025H55.69a2.936,2.936,0,0,0,.522-.048l2.062,3.609A16.652,16.652,0,0,1,54.408,44.3Zm-4.58.644a16.657,16.657,0,0,1-2.673-.217l1.52-7.6h2.3l.018.049,1.51,7.55a16.644,16.644,0,0,1-2.673.217ZM38.1,33.218H36.149a2.936,2.936,0,0,0-2.763,1.954h-6.2a2.936,2.936,0,0,0-2.763-1.954H22.471a2.936,2.936,0,0,0-2.763,1.954h-6.03V29.31H50.8v5.862H40.866A2.936,2.936,0,0,0,38.1,33.218Zm-2.09,19.809.845.845a.915.915,0,0,1,.045,1.246,3.884,3.884,0,0,0-1.731-.405H33.218a3.883,3.883,0,0,0-1.954.526V37.126h2.122a2.945,2.945,0,0,0,1.786,1.786V51a2.851,2.851,0,0,0,.841,2.029ZM3.908,46.9V44.943H9.77V46.9ZM11.724,29.31v5.862H9.77V29.31ZM3.908,42.989V38.912a2.917,2.917,0,0,0,.977.168H6.839A2.936,2.936,0,0,0,9.6,37.126H9.77v5.862Zm0-6.839a.978.978,0,0,1,.977-.977H6.839a.977.977,0,1,1,0,1.954H4.885A.978.978,0,0,1,3.908,36.149Zm51.782.977H53.736a.977.977,0,1,1,0-1.954H55.69a.977.977,0,1,1,0,1.954Zm-.977-3.908h-.977a2.917,2.917,0,0,0-.977.168V29.743l1.954.733Zm3.627-.572-1.673.627V31.209l1.673.627a.433.433,0,0,1,0,.811ZM48.851,19.326v-4.75l-6.2-4.961a4.3,4.3,0,0,1,2.687-7.661,5.115,5.115,0,0,1,3.64,1.508l.851.851.851-.851a5.115,5.115,0,0,1,3.64-1.508,4.3,4.3,0,0,1,2.687,7.661l-6.2,4.961v4.75l1.954.489v.7a2.931,2.931,0,1,1-5.862,0v-.7Zm-4.116,1.029.208-.052v.214a4.885,4.885,0,1,0,9.77,0V20.3l.208.052a4.878,4.878,0,0,1,3.7,4.739v4.76l-6.662-2.5H41.035V25.094a4.878,4.878,0,0,1,3.7-4.739ZM29.31,6.839a.977.977,0,1,1,.977.977A.978.978,0,0,1,29.31,6.839Zm3.74,8.793a2.93,2.93,0,0,1-5.526,0Zm-3.74,3.81a4.9,4.9,0,0,0,1.954,0v1.075a.977.977,0,0,1-1.954,0Zm-3.9-12.8a4.931,4.931,0,0,1,4.858-4.691h.023a4.884,4.884,0,0,1,3.256,8.525l-.325.291v2.908H31.264V9.6a2.931,2.931,0,1,0-1.954,0v4.076H27.356V10.771l-.325-.291a4.878,4.878,0,0,1-1.625-3.834ZM21.494,23.569a2.927,2.927,0,0,1,2.22-2.843l3.642-.91v.7a2.931,2.931,0,1,0,5.862,0v-.7l3.642.91a2.927,2.927,0,0,1,2.22,2.843v3.788H37.126V23.448H35.172v3.908H25.4V23.448H23.448v3.908H21.494Zm-7.167-3.592-.877,1.169-1.17-.78.72-.72Zm-2.6-1.818-.977.977-.977-.977v-.572h1.954ZM6.6,14.32,5.22,12.938l1.416-1.416-.3-.624a4.888,4.888,0,0,1-.2-.477l-.23-.651h-2V7.816h2l.23-.651a4.876,4.876,0,0,1,.2-.477l.3-.624L5.22,4.648,6.6,3.266,8.018,4.682l.624-.3a4.862,4.862,0,0,1,.477-.2l.651-.23v-2h1.954v2l.651.23a4.862,4.862,0,0,1,.477.2l.624.3,1.416-1.416,1.382,1.382L14.858,6.064l.3.624a4.862,4.862,0,0,1,.2.477l.23.651h2V9.77h-2l-.23.651a4.862,4.862,0,0,1-.2.477l-.3.624,1.416,1.416L14.892,14.32,13.476,12.9l-.624.3a4.863,4.863,0,0,1-.477.2l-.652.23v2H9.77v-2l-.651-.23a4.863,4.863,0,0,1-.477-.2l-.624-.3Zm1.891,5.325.72.72-1.17.78-.877-1.169Zm-3.363.873L7.589,23.8l3.158-2.105L13.905,23.8l2.459-3.278a4.876,4.876,0,0,1,3.176,4.576v2.262H2.931a2.917,2.917,0,0,0-.977.168v-2.43A4.876,4.876,0,0,1,5.13,20.519Zm-2.2,8.792H7.816v4.076a2.917,2.917,0,0,0-.977-.168H4.885a2.935,2.935,0,0,0-2.644,1.668.974.974,0,0,1-.287-.691V30.287a.978.978,0,0,1,.977-.977Zm2.931,19.54H9.77v6.388a3.883,3.883,0,0,0-1.954-.526H5.862Zm-1.954,9.77a1.956,1.956,0,0,1,1.954-1.954H7.816A1.956,1.956,0,0,1,9.77,58.621Zm13.678,0H11.724a1.956,1.956,0,0,1,1.954-1.954h1.954a1.958,1.958,0,0,1,1.955,1.954Zm-1.954-3.908H13.678a3.883,3.883,0,0,0-1.954.526V48.851h3.908ZM11.724,46.9V44.943h5.862V46.9Zm5.862-3.908H11.724V37.127h5.862Zm3.908-6.839a.978.978,0,0,1,.977-.977h1.954a.977.977,0,1,1,0,1.954H22.471A.978.978,0,0,1,21.494,36.149Zm2.222,17.723.845-.845A2.852,2.852,0,0,0,25.4,51V38.912a2.945,2.945,0,0,0,1.786-1.786H29.31V55.238a3.883,3.883,0,0,0-1.954-.526H25.4a3.882,3.882,0,0,0-1.731.406.915.915,0,0,1,.045-1.246Zm-.268,4.749A1.956,1.956,0,0,1,25.4,56.667h1.954a1.956,1.956,0,0,1,1.954,1.954Zm13.678,0H31.264a1.956,1.956,0,0,1,1.954-1.954h1.954a1.958,1.958,0,0,1,1.955,1.954ZM38.1,37.127H36.149a.977.977,0,0,1,0-1.954H38.1a.977.977,0,0,1,0,1.954Zm6.429,0h2.149L45.248,44.3a16.66,16.66,0,0,1-3.867-1.656Zm.41,9.116a18.612,18.612,0,0,0,3.908.626v8.37a3.883,3.883,0,0,0-1.954-.526H44.943ZM42.989,58.621a1.956,1.956,0,0,1,1.954-1.954H46.9a1.956,1.956,0,0,1,1.954,1.954Zm13.678,0H50.8a1.956,1.956,0,0,1,1.954-1.954h1.954a1.958,1.958,0,0,1,1.955,1.954Zm-1.954-3.908H52.759a3.883,3.883,0,0,0-1.954.526v-8.37a18.619,18.619,0,0,0,3.908-.626Z" transform="translate(0 0)"/>
        <path id="Trazado_1179643" data-name="Trazado 1179643" d="M66.931,53.862A2.931,2.931,0,1,0,64,50.931,2.934,2.934,0,0,0,66.931,53.862Zm0-3.908a.977.977,0,1,1-.977.977A.978.978,0,0,1,66.931,49.954Z" transform="translate(-56.184 -42.138)"/>
      </g>
    </g>
  </g>
</svg>
