<svg xmlns="http://www.w3.org/2000/svg" width="400" height="114.263" viewBox="0 0 400 114.263">
  <g id="Grupo_1223921" data-name="Grupo 1223921" transform="translate(-1020 -8324)">
    <g id="Grupo_1222206" data-name="Grupo 1222206" transform="translate(1020 8322.483)">
      <rect id="Rect치ngulo_421164" data-name="Rect치ngulo 421164" width="400" height="71.263" rx="3" transform="translate(0 28.517)" fill="#4a5641"/>
      <rect id="Rect치ngulo_421165" data-name="Rect치ngulo 421165" width="326" height="103.263" rx="3" transform="translate(37 12.517)" fill="#899e78"/>
    </g>
    <g id="pracetice_14124394" transform="translate(1161.451 8322)">
      <path id="Trazado_1179458" data-name="Trazado 1179458" d="M43,41H61.716V59.716H43Z" transform="translate(35.735 33.992)" fill="#60ba83"/>
      <path id="Trazado_1179459" data-name="Trazado 1179459" d="M47,46H65.716V64.716H47Z" transform="translate(39.221 38.35)" fill="#90c71d"/>
      <path id="Trazado_1179460" data-name="Trazado 1179460" d="M51,51H69.716V69.716H51Z" transform="translate(42.707 42.708)" fill="#f4f4f2"/>
      <path id="Trazado_1179461" data-name="Trazado 1179461" d="M34.817,89.606,32.945,74.634H17.973a3.743,3.743,0,0,1-3.743-3.743V59.661H3L14.229,40.945V39.074a28.074,28.074,0,0,1,56.147,0v65.505H3L8.615,96.1a7.486,7.486,0,0,1,5.091-3.257l21.111-3.238L32.945,74.634" transform="translate(0.871 7.844)" fill="#f4f4f2"/>
      <path id="Trazado_1179462" data-name="Trazado 1179462" d="M42.3,11a27.849,27.849,0,0,0-13.775,3.631,29.945,29.945,0,0,1-14.3,56.26,3.743,3.743,0,0,0,3.743,3.743H32.945l1.872,14.973L13.743,92.844A7.486,7.486,0,0,0,8.615,96.1L3,104.579H70.377V39.074A28.074,28.074,0,0,0,42.3,11Z" transform="translate(0.871 7.844)" fill="#d8d8d8"/>
      <path id="Trazado_1179463" data-name="Trazado 1179463" d="M31,3H87.147V59.147H31Z" transform="translate(25.276 0.872)" fill="#1c998b"/>
      <path id="Trazado_1179464" data-name="Trazado 1179464" d="M34,6H52.716V24.716H34Z" transform="translate(27.89 3.486)" fill="#d62915"/>
      <path id="Trazado_1179465" data-name="Trazado 1179465" d="M48,6H66.716V24.716H48Z" transform="translate(40.093 3.486)" fill="#f4f4f2"/>
      <path id="Trazado_1179466" data-name="Trazado 1179466" d="M34,20H52.716V38.716H34Z" transform="translate(27.89 15.688)" fill="#f4f4f2"/>
      <path id="Trazado_1179467" data-name="Trazado 1179467" d="M48,20H66.716V38.716H48Z" transform="translate(40.093 15.688)" fill="#d62915"/>
      <path id="Trazado_1179468" data-name="Trazado 1179468" d="M17,20H35.716V38.716H17Z" transform="translate(13.074 15.688)" fill="#60ba83"/>
      <path id="Trazado_1179469" data-name="Trazado 1179469" d="M15,23h7.486v7.486H15Z" transform="translate(11.33 18.303)" fill="#d62915"/>
      <path id="Trazado_1179470" data-name="Trazado 1179470" d="M88.019,2H31.872A1.872,1.872,0,0,0,30,3.872V60.019a1.872,1.872,0,0,0,1.872,1.872H88.019a1.872,1.872,0,0,0,1.872-1.872V3.872A1.872,1.872,0,0,0,88.019,2ZM86.147,58.147h-52.4V5.743h52.4Z" transform="translate(24.404)"/>
      <path id="Trazado_1179471" data-name="Trazado 1179471" d="M3.871,62.4h9.358v9.358a5.615,5.615,0,0,0,5.615,5.615H32.17l1.441,11.529L14.334,91.863a9.358,9.358,0,0,0-6.363,4.08l-5.615,8.478a1.872,1.872,0,0,0,0,1.872,1.872,1.872,0,0,0,1.516,1.029H71.248a1.872,1.872,0,0,0,1.872-1.872V58.661H69.377v44.918H7.371l3.743-5.615a5.615,5.615,0,0,1,3.743-2.452L35.969,92.35a1.872,1.872,0,0,0,1.591-2.1L35.688,75.281a1.872,1.872,0,0,0-1.872-1.647H18.844a1.872,1.872,0,0,1-1.872-1.872V60.533A1.872,1.872,0,0,0,15.1,58.661H7.184l9.526-15.89a1.872,1.872,0,0,0,.262-.955V39.945a26.2,26.2,0,0,1,26.2-26.2,26.6,26.6,0,0,1,6.981.936l1.011-3.593A29.609,29.609,0,0,0,43.175,10,29.945,29.945,0,0,0,13.229,39.945v1.348L2.262,59.578A1.872,1.872,0,0,0,3.871,62.4Z" transform="translate(0 6.973)"/>
      <path id="Trazado_1179472" data-name="Trazado 1179472" d="M34.872,27.459H53.587a1.872,1.872,0,0,0,1.872-1.872V6.872A1.872,1.872,0,0,0,53.587,5H34.872A1.872,1.872,0,0,0,33,6.872V25.587A1.872,1.872,0,0,0,34.872,27.459ZM36.743,8.743H51.716V23.716H36.743Z" transform="translate(27.019 2.615)"/>
      <path id="Trazado_1179473" data-name="Trazado 1179473" d="M48.872,27.459H67.587a1.872,1.872,0,0,0,1.872-1.872V6.872A1.872,1.872,0,0,0,67.587,5H48.872A1.872,1.872,0,0,0,47,6.872V25.587A1.872,1.872,0,0,0,48.872,27.459ZM50.743,8.743H65.716V23.716H50.743Z" transform="translate(39.221 2.615)"/>
      <path id="Trazado_1179474" data-name="Trazado 1179474" d="M34.872,41.459H53.587a1.872,1.872,0,0,0,1.872-1.872V20.872A1.872,1.872,0,0,0,53.587,19H34.872A1.872,1.872,0,0,0,33,20.872V39.587A1.872,1.872,0,0,0,34.872,41.459Zm1.872-18.716H51.716V37.716H36.743Z" transform="translate(27.019 14.817)"/>
      <path id="Trazado_1179475" data-name="Trazado 1179475" d="M48.872,41.459H67.587a1.872,1.872,0,0,0,1.872-1.872V20.872A1.872,1.872,0,0,0,67.587,19H48.872A1.872,1.872,0,0,0,47,20.872V39.587A1.872,1.872,0,0,0,48.872,41.459Zm1.872-18.716H65.716V37.716H50.743Z" transform="translate(39.221 14.817)"/>
      <path id="Trazado_1179476" data-name="Trazado 1179476" d="M19.615,41.459H38.331A1.872,1.872,0,0,0,40.2,39.587V20.872A1.872,1.872,0,0,0,38.331,19H19.615a1.872,1.872,0,0,0-1.872,1.872v3.743H15.872A1.872,1.872,0,0,0,14,26.486v7.486a1.872,1.872,0,0,0,1.872,1.872h1.872v3.743A1.872,1.872,0,0,0,19.615,41.459Zm1.872-18.716H36.459V37.716H21.486V35.844h1.872a1.872,1.872,0,0,0,1.872-1.872V26.486a1.872,1.872,0,0,0-1.872-1.872H21.486Zm-3.743,5.615h3.743V32.1H17.743Z" transform="translate(10.459 14.817)"/>
      <path id="Trazado_1179477" data-name="Trazado 1179477" d="M77.56,58.716H71.945V51.229a1.872,1.872,0,0,0-1.872-1.872H64.459V41.872A1.872,1.872,0,0,0,62.587,40H43.872A1.872,1.872,0,0,0,42,41.872V60.587a1.872,1.872,0,0,0,1.872,1.872h5.615v7.486a1.872,1.872,0,0,0,1.872,1.872h5.615V79.3a1.872,1.872,0,0,0,1.872,1.872H77.56A1.872,1.872,0,0,0,79.432,79.3V60.587A1.872,1.872,0,0,0,77.56,58.716ZM49.486,51.229v7.486H45.743V43.743H60.716v5.615H51.358A1.872,1.872,0,0,0,49.486,51.229Zm7.486,9.358v7.486H53.229V53.1H68.2v5.615H58.844A1.872,1.872,0,0,0,56.973,60.587ZM75.688,77.432H60.716V62.459H75.688Z" transform="translate(34.863 33.12)"/>
    </g>
  </g>
</svg>
