<svg xmlns="http://www.w3.org/2000/svg" xmlns:xlink="http://www.w3.org/1999/xlink" width="93" height="93" viewBox="0 0 93 93">
  <defs>
    <filter id="Trazado_904820" x="0" y="0" width="93" height="93" filterUnits="userSpaceOnUse">
      <feOffset dy="3" input="SourceAlpha"/>
      <feGaussianBlur stdDeviation="3" result="blur"/>
      <feFlood flood-opacity="0.161"/>
      <feComposite operator="in" in2="blur"/>
      <feComposite in="SourceGraphic"/>
    </filter>
  </defs>
  <g id="Grupo_1224017" data-name="Grupo 1224017" transform="translate(-505.776 -9003.5)">
    <g id="Grupo_1223833" data-name="Grupo 1223833" transform="translate(312 1007.447)">
      <g id="Grupo_1223165" data-name="Grupo 1223165" transform="translate(202.776 8002.053)">
        <g id="Grupo_1173585" data-name="Grupo 1173585" transform="translate(0 0)">
          <g id="Grupo_1173428" data-name="Grupo 1173428">
            <g id="Grupo_1171958" data-name="Grupo 1171958">
              <g id="Grupo_1167341" data-name="Grupo 1167341">
                <g id="Grupo_1166792" data-name="Grupo 1166792">
                  <g transform="matrix(1, 0, 0, 1, -9, -6)" filter="url(#Trazado_904820)">
                    <g id="Trazado_904820-2" data-name="Trazado 904820" transform="translate(9 6)" fill="#fcf5f0">
                      <path d="M 37.5 73.5 C 32.63936614990234 73.5 27.9249324798584 72.54837799072266 23.48763275146484 70.67156219482422 C 19.20096588134766 68.85845184326172 15.35082244873047 66.26250457763672 12.04415512084961 62.95583724975586 C 8.737500190734863 59.6491813659668 6.141555786132812 55.79903793334961 4.328444480895996 51.51235961914062 C 2.451622247695923 47.07506942749023 1.5 42.36062622070312 1.5 37.50000381469727 C 1.5 32.63936996459961 2.451622247695923 27.92493629455566 4.328444480895996 23.48763656616211 C 6.141555786132812 19.20096015930176 8.737500190734863 15.35082626342773 12.04415512084961 12.04415893554688 C 15.35082244873047 8.737504005432129 19.20095634460449 6.141559600830078 23.48763275146484 4.328448295593262 C 27.9249324798584 2.451626062393188 32.63936614990234 1.500003814697266 37.5 1.500003814697266 C 42.36063385009766 1.500003814697266 47.07506561279297 2.451626062393188 51.51236724853516 4.328448295593262 C 55.79904556274414 6.141559600830078 59.64917755126953 8.737504005432129 62.95584487915039 12.04415893554688 C 66.26249694824219 15.35082626342773 68.85844421386719 19.20096015930176 70.67155456542969 23.48763656616211 C 72.54837799072266 27.92493629455566 73.5 32.63936996459961 73.5 37.50000381469727 C 73.5 42.36062622070312 72.54837799072266 47.07506942749023 70.67155456542969 51.51235961914062 C 68.85844421386719 55.79903793334961 66.26249694824219 59.6491813659668 62.95584487915039 62.95583724975586 C 59.64917755126953 66.26250457763672 55.79903411865234 68.85845184326172 51.51236724853516 70.67156219482422 C 47.07506561279297 72.54837799072266 42.36063385009766 73.5 37.5 73.5 Z" stroke="none"/>
                      <path d="M 37.5 3.000007629394531 C 32.84121322631836 3.000007629394531 28.3233642578125 3.911766052246094 24.07196426391602 5.709953308105469 C 19.96408843994141 7.447441101074219 16.27420043945312 9.935432434082031 13.10481262207031 13.10481643676758 C 9.9354248046875 16.27420425415039 7.447441101074219 19.96409225463867 5.709953308105469 24.07196807861328 C 3.911766052246094 28.32336807250977 3 32.84120559692383 3 37.50000381469727 C 3 42.15879058837891 3.911766052246094 46.67662811279297 5.709953308105469 50.92802810668945 C 7.447441101074219 55.03591537475586 9.9354248046875 58.72579193115234 13.10481262207031 61.89517974853516 C 16.27421188354492 65.06456756591797 19.96408843994141 67.55256652832031 24.07196426391602 69.29005432128906 C 28.3233642578125 71.08824157714844 32.84121322631836 72 37.5 72 C 42.15878677368164 72 46.6766357421875 71.08824157714844 50.92803955078125 69.29005432128906 C 55.03591156005859 67.55256652832031 58.72578811645508 65.06456756591797 61.89518737792969 61.89517974853516 C 65.0645751953125 58.72579193115234 67.55256652832031 55.03591537475586 69.29004669189453 50.92802810668945 C 71.08823394775391 46.67662811279297 72 42.15879058837891 72 37.50000381469727 C 72 32.84120559692383 71.08823394775391 28.32336807250977 69.29004669189453 24.07196807861328 C 67.55256652832031 19.96409225463867 65.0645751953125 16.27420425415039 61.89518737792969 13.10481643676758 C 58.72579956054688 9.935432434082031 55.03591156005859 7.447441101074219 50.92803955078125 5.709953308105469 C 46.6766357421875 3.911766052246094 42.15878677368164 3.000007629394531 37.5 3.000007629394531 M 37.5 7.62939453125e-06 C 58.21067428588867 7.62939453125e-06 75 16.7893180847168 75 37.50000381469727 C 75 58.21066665649414 58.21067428588867 75 37.5 75 C 16.78932571411133 75 0 58.21066665649414 0 37.50000381469727 C 0 16.7893180847168 16.78932571411133 7.62939453125e-06 37.5 7.62939453125e-06 Z" stroke="none" fill="#eca675"/>
                    </g>
                  </g>
                </g>
              </g>
            </g>
          </g>
        </g>
      </g>
    </g>
    <g id="develoment_16853491" transform="translate(496.951 9002.439)">
      <g id="Grupo_1224016" data-name="Grupo 1224016" transform="translate(30.88 18.577)">
        <path id="Trazado_1179662" data-name="Trazado 1179662" d="M118.34,388.023l-8.112,5.556-1.738-2.542,8.112-5.555-1.076-1.57,3.465-.286,3.464-.285-1.52,3.128-1.52,3.128Z" transform="translate(-100.498 -343.214)" fill="#fef168" fill-rule="evenodd"/>
        <path id="Trazado_1179663" data-name="Trazado 1179663" d="M125.241,388.023l-8.112,5.556-.868-1.273,13.1-8.966-1.52,3.128-1.52,3.128Z" transform="translate(-107.398 -343.214)" fill="#faaf5a" fill-rule="evenodd"/>
        <path id="Trazado_1179664" data-name="Trazado 1179664" d="M304.864,351.493l-10.913,7.715-1.781-2.515,10.915-7.716-1.1-1.555,3.462-.337,3.461-.336-1.468,3.151-1.47,3.149Z" transform="translate(-263.62 -310.719)" fill="#fef168" fill-rule="evenodd"/>
        <path id="Trazado_1179665" data-name="Trazado 1179665" d="M311.915,351.493,301,359.208l-.892-1.256,15.844-11.2-1.468,3.151-1.47,3.149Z" transform="translate(-270.671 -310.719)" fill="#fbb76a" fill-rule="evenodd"/>
        <path id="Trazado_1179666" data-name="Trazado 1179666" d="M97,160.22c1.345,0,5.273-.93,7.507,1.942l3.31,3.88,3.42-3.284c.517-.628,2.357-.46,2.985.057a1.482,1.482,0,0,1,.206,2.078l-4.975,6.037c-.031.038-.064.076-.1.111a1.473,1.473,0,0,1-2.084-.007l-2.786-2.789v6.967l-.984-1.254L88.414,185.781c-.254-4.3-.292-13.94.029-18.081C88.969,160.864,92.889,160.22,97,160.22Z" transform="translate(-82.49 -144.938)" fill="#3fac7e" fill-rule="evenodd"/>
        <path id="Trazado_1179667" data-name="Trazado 1179667" d="M96.994,161.28c.219,0,.47-.01.742-.01a42.786,42.786,0,0,1-1.238,8.781c-1.764,7.242-4.978,13.1-8.16,15.5-.194-4.709-.2-13.027.092-16.793C88.958,161.925,92.878,161.28,96.994,161.28Z" transform="translate(-82.479 -145.998)" fill="#82c9aa" fill-rule="evenodd"/>
        <path id="Trazado_1179668" data-name="Trazado 1179668" d="M262.4,24.819a7.083,7.083,0,0,1,3.557,13.227,2.394,2.394,0,0,0-1.231,2.135l.009,1.567-4.508.019-.007-1.564a2.392,2.392,0,0,0-1.25-2.122,7.084,7.084,0,0,1,3.43-13.263Z" transform="translate(-230.92 -24.819)" fill="#ffcd05" fill-rule="evenodd"/>
        <path id="Trazado_1179669" data-name="Trazado 1179669" d="M266.467,65.167c-.168.118-.342.228-.52.33a2.394,2.394,0,0,0-1.231,2.135l0,.26a7.09,7.09,0,0,1-1.409,1.063,2.763,2.763,0,0,0-.365.251l-2.729.012-.007-1.564a2.392,2.392,0,0,0-1.25-2.122A7.088,7.088,0,0,1,255.742,57a7.085,7.085,0,0,1,10.724,8.171Z" transform="translate(-230.912 -52.27)" fill="#feda46" fill-rule="evenodd"/>
        <path id="Trazado_1179670" data-name="Trazado 1179670" d="M301.459,199.8l.7-.007a1.85,1.85,0,0,0-.019-3.7l-.7,0a1.851,1.851,0,0,0,.019,3.7Z" transform="translate(-270.218 -176.921)" fill="gray" fill-rule="evenodd"/>
        <path id="Trazado_1179671" data-name="Trazado 1179671" d="M304.2,216.758l.7-.007a.956.956,0,1,0-.006-1.561l-.7,0a.957.957,0,1,0,.009,1.565Z" transform="translate(-272.963 -193.883)" fill="#989897" fill-rule="evenodd"/>
        <path id="Trazado_1179672" data-name="Trazado 1179672" d="M292.135,176.122l2.839-.012a1.8,1.8,0,1,1,.016,3.609l-2.836.016a1.806,1.806,0,0,1-.019-3.613Z" transform="translate(-261.995 -159.177)" fill="gray" fill-rule="evenodd"/>
        <path id="Trazado_1179673" data-name="Trazado 1179673" d="M299.344,196.177a1.816,1.816,0,0,1-1.44.726l-2.836.016a1.8,1.8,0,0,1-1.447-.717,1.807,1.807,0,0,1,1.437-.726l2.839-.016A1.817,1.817,0,0,1,299.344,196.177Z" transform="translate(-264.908 -176.362)" fill="#989897" fill-rule="evenodd"/>
        <path id="Trazado_1179674" data-name="Trazado 1179674" d="M283.435,165.209l5.822-.029a1.214,1.214,0,0,1,.013,2.428l-5.822.029a1.214,1.214,0,0,1-.013-2.428Z" transform="translate(-254.792 -149.471)" fill="gray" fill-rule="evenodd"/>
        <path id="Trazado_1179675" data-name="Trazado 1179675" d="M291.618,176.64a1.211,1.211,0,0,1-1.046.612l-5.819.029a.7.7,0,1,1-.007-1.215l5.822-.026A1.208,1.208,0,0,1,291.618,176.64Z" transform="translate(-256.098 -159.115)" fill="#989897" fill-rule="evenodd"/>
        <path id="Trazado_1179676" data-name="Trazado 1179676" d="M306.174,99.17a1.564,1.564,0,1,1-1.555,1.57A1.567,1.567,0,0,1,306.174,99.17Z" transform="translate(-274.676 -90.848)" fill="#f6851f" fill-rule="evenodd"/>
        <path id="Trazado_1179677" data-name="Trazado 1179677" d="M327.807,54.58a1.365,1.365,0,1,1-1.358,1.37A1.364,1.364,0,0,1,327.807,54.58Z" transform="translate(-294.063 -51.249)" fill="#fff3b7" fill-rule="evenodd"/>
        <path id="Trazado_1179678" data-name="Trazado 1179678" d="M351.44,76.29a.844.844,0,1,1-.841.847A.841.841,0,0,1,351.44,76.29Z" transform="translate(-315.51 -70.529)" fill="#fff3b7" fill-rule="evenodd"/>
        <path id="Trazado_1179679" data-name="Trazado 1179679" d="M118.911,54.24a6.031,6.031,0,1,1-6.031,6.031A6.031,6.031,0,0,1,118.911,54.24Z" transform="translate(-104.396 -50.947)" fill="#cfa58a" fill-rule="evenodd"/>
        <path id="Trazado_1179680" data-name="Trazado 1179680" d="M144.525,55.97a6.033,6.033,0,0,1,0,11.676,6.032,6.032,0,0,1,0-11.676Z" transform="translate(-128.49 -52.484)" fill="#f3c7ad" fill-rule="evenodd"/>
        <path id="Trazado_1179681" data-name="Trazado 1179681" d="M57.807,243.042l-18.2,12.008M37.08,251l22.98-15.155,4.749,7.211,11.7-7.712-1.71-2.6,11.164-.78-5.12,9.949-1.71-2.592L63.453,249.663,58.7,242.451l-19.095,12.6Z" transform="translate(-37.08 -208.785)" fill="#ac2424" fill-rule="evenodd"/>
        <path id="Trazado_1179682" data-name="Trazado 1179682" d="M58.559,239.792,38.2,253.221m-1.12-1.793,22.98-15.155,4.749,7.211,11.7-7.712-1.71-2.6,10.393-.726L64.206,246.41,59.454,239.2,38.2,253.221Z" transform="translate(-37.08 -209.212)" fill="#e02e27" fill-rule="evenodd"/>
      </g>
      <path id="Trazado_1179683" data-name="Trazado 1179683" d="M51.179,52.183l.894-.59a.778.778,0,0,1,1.079.222l4.325,6.557,15.032-9.908a.783.783,0,0,1,1.082.225l.974,1.475,3.872-7.527-8.446.593.974,1.478a.779.779,0,0,1-.225,1.079L59.04,53.5a.782.782,0,0,1-1.082-.222l-4.321-6.557L40.906,55.116a.723.723,0,0,1-.083.057L37.159,57.59c-.019.012-.038.026-.06.038l-5.152,3.4,1.7,2.722ZM30.5,60.112l5.406-3.566c-.114-4.041-.146-11.456.146-15.264.346-4.493,2.139-6.96,5.413-7.818a6.814,6.814,0,1,1,8.344-.372,5.959,5.959,0,0,1,3.718,2.236l2.741,3.211,1.767-1.694a1.989,1.989,0,0,1-.5-1.314h0a2,2,0,0,1,1.814-1.992,1.6,1.6,0,0,0-.8-1.022,7.864,7.864,0,0,1,3.811-14.724v0a7.865,7.865,0,0,1,7.9,7.83h0A7.871,7.871,0,0,1,66.3,32.476a1.621,1.621,0,0,0-.79,1.034,2,2,0,0,1,1.831,1.983h0a2.008,2.008,0,0,1-.894,1.665,2.6,2.6,0,0,1-1.022,2.215,2.632,2.632,0,0,1-2.611,2.85,3.7,3.7,0,0,1-1.824-.244l-2.547,3.09v0l-.145.159h0a2.261,2.261,0,0,1-3.192-.007l0,0-1.447-1.453v1.107a.779.779,0,0,1,.847.327l4.325,6.557,10.4-6.853-1.281-1.945a.781.781,0,0,1,.6-1.205v0l11.164-.78a.782.782,0,0,1,.733,1.164l-5.108,9.924a.782.782,0,0,1-1.373.031l-1.254-1.9L57.682,60.1a.782.782,0,0,1-1.082-.222l-4.321-6.557L33.837,65.492a.781.781,0,0,1-1.091-.241l0,0-2.525-4.048a.781.781,0,0,1,.282-1.095Zm6.942-4.579,2.193-1.447A81.6,81.6,0,0,1,39.951,41.7a.781.781,0,1,1,1.555.158,78.6,78.6,0,0,0-.353,11.228L52.1,45.865V41.884h0a.781.781,0,0,1,1.333-.552l2.789,2.789h0a.685.685,0,0,0,.977,0l0,0,.05-.06h0l2.589-3.144a2.643,2.643,0,0,1-.353-1.52,2.584,2.584,0,0,1-.813-1.006l-1.919,1.84a.783.783,0,0,1-1.139-.05L52.34,36.345c-.019-.019-.038-.041-.057-.064-1.4-1.805-3.7-1.856-5.317-1.748a6.891,6.891,0,0,1-1.567.181,7.213,7.213,0,0,1-.911-.06A8.331,8.331,0,0,0,40.2,35.688c-1.364.889-2.341,2.576-2.582,5.708-.276,3.592-.261,10.206-.171,14.137ZM49.106,24.189a5.248,5.248,0,1,0-4.527,8.9q.41-.01.818-.01l1.32-.1a5.249,5.249,0,0,0,2.39-8.79Zm13.268,1.93a2.343,2.343,0,0,1,2.354,2.338h0a2.358,2.358,0,0,1-1.555,2.215l.012,2.846.739,0a3.167,3.167,0,0,1,1.6-2.386,6.285,6.285,0,0,0,3.166-5.5h0a6.294,6.294,0,0,0-6.336-6.263v0a6.3,6.3,0,0,0-3.045,11.8,3.164,3.164,0,0,1,1.618,2.373l.7,0-.012-2.85a2.339,2.339,0,0,1-1.574-2.208h0a2.349,2.349,0,0,1,2.335-2.349Zm.558,1.788a.778.778,0,0,0-1.326.562h0a.777.777,0,0,0,.79.774v0a.78.78,0,0,0,.771-.79h0A.785.785,0,0,0,62.933,27.907ZM64.878,37.5l-4.854.022a1.036,1.036,0,0,0,1.012.835l2.839-.016A1.035,1.035,0,0,0,64.878,37.5Zm.469-2.431-5.819.028a.431.431,0,0,0-.429.438h0a.442.442,0,0,0,.434.429c.641,0,5.746-.007,5.923-.041a.435.435,0,0,0,.323-.425h0a.434.434,0,0,0-.433-.428ZM63.834,39.9l-2.744.017a1.086,1.086,0,0,0,1.027.755c.584,0,1.05.076,1.449-.323a1.116,1.116,0,0,0,.267-.449Zm8.105,20.54L61.661,67.707a.782.782,0,0,1-1.123-.241L58.8,65a.776.776,0,0,1,.187-1.088h0l10.275-7.265-.65-.917A.785.785,0,0,1,69.17,54.5l6.919-.673a.783.783,0,0,1,.78,1.107h0l-2.938,6.3a.783.783,0,0,1-1.39.057ZM61.4,65.978l10.275-7.265h0a.781.781,0,0,1,1.085.187l.32.457,1.793-3.839-4.219.41.327.457a.783.783,0,0,1-.187,1.091L60.519,64.74Zm-12.878-1.5-7.468,5.111a.78.78,0,0,1-1.085-.2l-1.738-2.544a.78.78,0,0,1,.2-1.085L45.9,60.643l-.638-.927a.784.784,0,0,1,.586-1.221l6.929-.571a.785.785,0,0,1,.745,1.164L50.505,65.3a.786.786,0,0,1-1.352.1Zm-7.7,3.378,7.468-5.111a.778.778,0,0,1,1.085.206l.314.46,1.852-3.81-4.223.346.317.46a.788.788,0,0,1-.206,1.088L39.96,66.6Z"/>
    </g>
  </g>
</svg>
