<svg xmlns="http://www.w3.org/2000/svg" xmlns:xlink="http://www.w3.org/1999/xlink" width="93" height="93" viewBox="0 0 93 93">
  <defs>
    <filter id="Trazado_904820" x="0" y="0" width="93" height="93" filterUnits="userSpaceOnUse">
      <feOffset dy="3" input="SourceAlpha"/>
      <feGaussianBlur stdDeviation="3" result="blur"/>
      <feFlood flood-opacity="0.161"/>
      <feComposite operator="in" in2="blur"/>
      <feComposite in="SourceGraphic"/>
    </filter>
  </defs>
  <g id="Grupo_1224018" data-name="Grupo 1224018" transform="translate(-820.776 -9003.5)">
    <g id="Grupo_1223834" data-name="Grupo 1223834" transform="translate(627 1007.447)">
      <g id="Grupo_1223165" data-name="Grupo 1223165" transform="translate(202.776 8002.053)">
        <g id="Grupo_1173585" data-name="Grupo 1173585" transform="translate(0 0)">
          <g id="Grupo_1173428" data-name="Grupo 1173428">
            <g id="Grupo_1171958" data-name="Grupo 1171958">
              <g id="Grupo_1167341" data-name="Grupo 1167341">
                <g id="Grupo_1166792" data-name="Grupo 1166792">
                  <g transform="matrix(1, 0, 0, 1, -9, -6)" filter="url(#Trazado_904820)">
                    <g id="Trazado_904820-2" data-name="Trazado 904820" transform="translate(9 6)" fill="#fcf5f0">
                      <path d="M 37.5 73.5 C 32.63936614990234 73.5 27.9249324798584 72.54837799072266 23.48763275146484 70.67156219482422 C 19.20096588134766 68.85845184326172 15.35082244873047 66.26250457763672 12.04415512084961 62.95583724975586 C 8.737500190734863 59.6491813659668 6.141555786132812 55.79903793334961 4.328444480895996 51.51235961914062 C 2.451622247695923 47.07506942749023 1.5 42.36062622070312 1.5 37.50000381469727 C 1.5 32.63936996459961 2.451622247695923 27.92493629455566 4.328444480895996 23.48763656616211 C 6.141555786132812 19.20096015930176 8.737500190734863 15.35082626342773 12.04415512084961 12.04415893554688 C 15.35082244873047 8.737504005432129 19.20095634460449 6.141559600830078 23.48763275146484 4.328448295593262 C 27.9249324798584 2.451626062393188 32.63936614990234 1.500003814697266 37.5 1.500003814697266 C 42.36063385009766 1.500003814697266 47.07506561279297 2.451626062393188 51.51236724853516 4.328448295593262 C 55.79904556274414 6.141559600830078 59.64917755126953 8.737504005432129 62.95584487915039 12.04415893554688 C 66.26249694824219 15.35082626342773 68.85844421386719 19.20096015930176 70.67155456542969 23.48763656616211 C 72.54837799072266 27.92493629455566 73.5 32.63936996459961 73.5 37.50000381469727 C 73.5 42.36062622070312 72.54837799072266 47.07506942749023 70.67155456542969 51.51235961914062 C 68.85844421386719 55.79903793334961 66.26249694824219 59.6491813659668 62.95584487915039 62.95583724975586 C 59.64917755126953 66.26250457763672 55.79903411865234 68.85845184326172 51.51236724853516 70.67156219482422 C 47.07506561279297 72.54837799072266 42.36063385009766 73.5 37.5 73.5 Z" stroke="none"/>
                      <path d="M 37.5 3.000007629394531 C 32.84121322631836 3.000007629394531 28.3233642578125 3.911766052246094 24.07196426391602 5.709953308105469 C 19.96408843994141 7.447441101074219 16.27420043945312 9.935432434082031 13.10481262207031 13.10481643676758 C 9.9354248046875 16.27420425415039 7.447441101074219 19.96409225463867 5.709953308105469 24.07196807861328 C 3.911766052246094 28.32336807250977 3 32.84120559692383 3 37.50000381469727 C 3 42.15879058837891 3.911766052246094 46.67662811279297 5.709953308105469 50.92802810668945 C 7.447441101074219 55.03591537475586 9.9354248046875 58.72579193115234 13.10481262207031 61.89517974853516 C 16.27421188354492 65.06456756591797 19.96408843994141 67.55256652832031 24.07196426391602 69.29005432128906 C 28.3233642578125 71.08824157714844 32.84121322631836 72 37.5 72 C 42.15878677368164 72 46.6766357421875 71.08824157714844 50.92803955078125 69.29005432128906 C 55.03591156005859 67.55256652832031 58.72578811645508 65.06456756591797 61.89518737792969 61.89517974853516 C 65.0645751953125 58.72579193115234 67.55256652832031 55.03591537475586 69.29004669189453 50.92802810668945 C 71.08823394775391 46.67662811279297 72 42.15879058837891 72 37.50000381469727 C 72 32.84120559692383 71.08823394775391 28.32336807250977 69.29004669189453 24.07196807861328 C 67.55256652832031 19.96409225463867 65.0645751953125 16.27420425415039 61.89518737792969 13.10481643676758 C 58.72579956054688 9.935432434082031 55.03591156005859 7.447441101074219 50.92803955078125 5.709953308105469 C 46.6766357421875 3.911766052246094 42.15878677368164 3.000007629394531 37.5 3.000007629394531 M 37.5 7.62939453125e-06 C 58.21067428588867 7.62939453125e-06 75 16.7893180847168 75 37.50000381469727 C 75 58.21066665649414 58.21067428588867 75 37.5 75 C 16.78932571411133 75 0 58.21066665649414 0 37.50000381469727 C 0 16.7893180847168 16.78932571411133 7.62939453125e-06 37.5 7.62939453125e-06 Z" stroke="none" fill="#eca675"/>
                    </g>
                  </g>
                </g>
              </g>
            </g>
          </g>
        </g>
      </g>
    </g>
    <g id="balance_1935560" transform="translate(840 9020)">
      <path id="Trazado_1179684" data-name="Trazado 1179684" d="M40.129,57.355V60.71H20V57.355A3.354,3.354,0,0,1,23.355,54H36.774A3.354,3.354,0,0,1,40.129,57.355Z" transform="translate(-3.065 -8.548)" fill="#969faa"/>
      <path id="Trazado_1179685" data-name="Trazado 1179685" d="M57.634,46.495a1.64,1.64,0,0,1,.495,1.183,1.682,1.682,0,0,1-1.677,1.677H38V46H56.452A1.64,1.64,0,0,1,57.634,46.495Z" transform="translate(-5.968 -7.258)" fill="#b27946"/>
      <path id="Trazado_1179686" data-name="Trazado 1179686" d="M22.129,46v3.355H3.677A1.69,1.69,0,0,1,2,47.677,1.682,1.682,0,0,1,3.677,46H22.129Z" transform="translate(-0.161 -7.258)" fill="#b27946"/>
      <path id="Trazado_1179687" data-name="Trazado 1179687" d="M36.065,48.71v3.355H26V43.677A1.682,1.682,0,0,1,27.677,42h6.71a1.682,1.682,0,0,1,1.677,1.677V48.71Z" transform="translate(-4.032 -6.613)" fill="#cf9e76"/>
      <ellipse id="Elipse_14747" data-name="Elipse 14747" cx="2" cy="1.5" rx="2" ry="1.5" transform="translate(25 39)" fill="#fcd770"/>
      <path id="Trazado_1179688" data-name="Trazado 1179688" d="M22.129,18V29.742a1.682,1.682,0,0,1-1.677,1.677H3.677A1.682,1.682,0,0,1,2,29.742V18a5.036,5.036,0,0,0,5.032,5.032H9.548v.839a.841.841,0,0,0,.839.839h3.355a.841.841,0,0,0,.839-.839v-.839H17.1A5.036,5.036,0,0,0,22.129,18Z" transform="translate(-0.161 -2.742)" fill="#d3a06c"/>
      <path id="Trazado_1179689" data-name="Trazado 1179689" d="M20.452,16a1.682,1.682,0,0,1,1.677,1.677A5.036,5.036,0,0,1,17.1,22.71H14.581v-.839a.841.841,0,0,0-.839-.839H10.387a.841.841,0,0,0-.839.839v.839H7.032A5.036,5.036,0,0,1,2,17.677,1.682,1.682,0,0,1,3.677,16H20.452Z" transform="translate(-0.161 -2.419)" fill="#dfb28b"/>
      <path id="Trazado_1179690" data-name="Trazado 1179690" d="M16.032,23.677v.839a.841.841,0,0,1-.839.839H11.839A.841.841,0,0,1,11,24.516V22.839A.841.841,0,0,1,11.839,22h3.355a.841.841,0,0,1,.839.839Z" transform="translate(-1.613 -3.387)" fill="#fcd770"/>
      <path id="Trazado_1179691" data-name="Trazado 1179691" d="M4,38H20.774a6.708,6.708,0,0,1-6.71,6.71H10.71A6.7,6.7,0,0,1,4,38Z" transform="translate(-0.484 -5.968)" fill="#ccd1d9"/>
      <path id="Trazado_1179692" data-name="Trazado 1179692" d="M50.065,38h6.71a6.708,6.708,0,0,1-6.71,6.71H46.71A6.7,6.7,0,0,1,40,38H50.065Z" transform="translate(-6.29 -5.968)" fill="#ccd1d9"/>
      <path id="Trazado_1179693" data-name="Trazado 1179693" d="M49.355,24V34.065a1.682,1.682,0,0,1-1.677,1.677A1.69,1.69,0,0,1,46,34.065V24Z" transform="translate(-7.258 -3.71)" fill="#cf9e76"/>
      <path id="Trazado_1179694" data-name="Trazado 1179694" d="M53.355,25.677v8.387a1.69,1.69,0,0,1-1.677,1.677A1.682,1.682,0,0,1,50,34.065V24h3.355Z" transform="translate(-7.903 -3.71)" fill="#cf9e76"/>
      <path id="Trazado_1179695" data-name="Trazado 1179695" d="M55.419,21.244A2.513,2.513,0,0,1,52.9,23.76h-.839V22.082h-6.71V23.76h-.839A2.513,2.513,0,0,1,42,21.244V18.727a6.716,6.716,0,0,1,5.586-6.617l-.554,4.94,1.677,2.516,1.677-2.516-.554-4.94a6.8,6.8,0,0,1,3.623,1.87,6.722,6.722,0,0,1,1.963,4.747Z" transform="translate(-6.613 -1.792)" fill="#b4dd7f"/>
      <path id="Trazado_1179696" data-name="Trazado 1179696" d="M50.8,12.092l.554,4.94-1.677,2.516L48,17.032l.554-4.94a6.892,6.892,0,0,1,2.248,0Z" transform="translate(-7.581 -1.774)" fill="#e6e9ed"/>
      <circle id="Elipse_14748" data-name="Elipse 14748" cx="4" cy="4" r="4" transform="translate(38 2)" fill="#f0d0b4"/>
      <path id="Trazado_1179697" data-name="Trazado 1179697" d="M50.484,37.9H48.508a7.534,7.534,0,0,0,2.815-5.871v-.839H46.136a2.488,2.488,0,0,0,.154-.839V22.806a3.358,3.358,0,0,0,3.355-3.355V16.935a7.557,7.557,0,0,0-4.507-6.9,5.032,5.032,0,1,0-6.082,0,7.557,7.557,0,0,0-4.507,6.9v2.516A3.358,3.358,0,0,0,37.9,22.806v7.548a2.488,2.488,0,0,0,.154.839H32.871v.839A7.534,7.534,0,0,0,35.686,37.9H32.871v-.839a2.519,2.519,0,0,0-2.516-2.516h-6.71a2.519,2.519,0,0,0-2.516,2.516V37.9H18.314a7.534,7.534,0,0,0,2.815-5.871v-.839H2.677v.839A7.534,7.534,0,0,0,5.492,37.9H3.516a2.516,2.516,0,1,0,0,5.032H21.129v1.677H20.29A4.2,4.2,0,0,0,16.1,48.806V53H37.9V48.806a4.2,4.2,0,0,0-4.194-4.194h-.839V42.935H50.484a2.516,2.516,0,0,0,0-5.032Zm-7.548-7.548V21.129h1.677v9.226a.839.839,0,1,1-1.677,0Zm-.029-15.308-.81,1.215-.81-1.215.44-3.964c.123-.008.245-.018.37-.018s.247.011.37.018ZM38.742,6.032A3.355,3.355,0,1,1,42.1,9.387,3.358,3.358,0,0,1,38.742,6.032ZM36.226,19.452V16.935A5.876,5.876,0,0,1,40,11.46l-.445,4.01L42.1,19.286l2.545-3.817L44.2,11.46a5.875,5.875,0,0,1,3.773,5.476v2.516a1.679,1.679,0,0,1-1.677,1.677V16.1H44.613v3.355H39.581V16.1H37.9v5.032a1.679,1.679,0,0,1-1.677-1.677Zm3.355,10.9V21.129h1.677v9.226a.839.839,0,1,1-1.677,0Zm-4.973,2.516H49.585A5.88,5.88,0,0,1,43.773,37.9H40.419A5.88,5.88,0,0,1,34.608,32.871Zm-30.194,0H19.391A5.88,5.88,0,0,1,13.58,37.9H10.225A5.88,5.88,0,0,1,4.414,32.871Zm-.9,8.387a.839.839,0,1,1,0-1.677H21.129v1.677Zm32.71,7.548v2.516H17.774V48.806A2.519,2.519,0,0,1,20.29,46.29H33.71A2.519,2.519,0,0,1,36.226,48.806ZM22.806,44.613V37.065a.84.84,0,0,1,.839-.839h6.71a.84.84,0,0,1,.839.839v7.548Zm27.677-3.355H32.871V39.581H50.484a.839.839,0,1,1,0,1.677Z"/>
      <path id="Trazado_1179698" data-name="Trazado 1179698" d="M31.516,45a2.516,2.516,0,1,0,2.516,2.516A2.519,2.519,0,0,0,31.516,45Zm0,3.355a.839.839,0,1,1,.839-.839A.84.84,0,0,1,31.516,48.355Z" transform="translate(-4.516 -7.097)"/>
      <path id="Trazado_1179699" data-name="Trazado 1179699" d="M23,57h1.677v1.677H23Z" transform="translate(-3.548 -9.032)"/>
      <path id="Trazado_1179700" data-name="Trazado 1179700" d="M27,57h1.677v1.677H27Z" transform="translate(-4.194 -9.032)"/>
      <path id="Trazado_1179701" data-name="Trazado 1179701" d="M31,57h1.677v1.677H31Z" transform="translate(-4.839 -9.032)"/>
      <path id="Trazado_1179702" data-name="Trazado 1179702" d="M3.516,30.484H20.29a2.519,2.519,0,0,0,2.516-2.516V16.226A2.519,2.519,0,0,0,20.29,13.71H17.774v-.839a5.871,5.871,0,0,0-11.742,0v.839H3.516A2.519,2.519,0,0,0,1,16.226V27.968A2.519,2.519,0,0,0,3.516,30.484ZM7.71,12.871a4.194,4.194,0,0,1,8.387,0v.839H7.71ZM3.516,15.387H20.29a.84.84,0,0,1,.839.839,4.2,4.2,0,0,1-4.194,4.194H15.258a1.679,1.679,0,0,0-1.677-1.677H10.226a1.679,1.679,0,0,0-1.677,1.677H6.871a4.2,4.2,0,0,1-4.194-4.194A.84.84,0,0,1,3.516,15.387ZM13.581,22.1H10.226V20.419h3.355Zm-6.711,0H8.548a1.679,1.679,0,0,0,1.677,1.677h3.355A1.679,1.679,0,0,0,15.258,22.1h1.677a5.849,5.849,0,0,0,4.194-1.771v7.641a.84.84,0,0,1-.839.839H3.516a.84.84,0,0,1-.839-.839V20.326A5.849,5.849,0,0,0,6.871,22.1Z" transform="translate(0 -0.968)"/>
    </g>
  </g>
</svg>
