<svg xmlns="http://www.w3.org/2000/svg" xmlns:xlink="http://www.w3.org/1999/xlink" width="93" height="93" viewBox="0 0 93 93">
  <defs>
    <filter id="Trazado_904820" x="0" y="0" width="93" height="93" filterUnits="userSpaceOnUse">
      <feOffset dy="3" input="SourceAlpha"/>
      <feGaussianBlur stdDeviation="3" result="blur"/>
      <feFlood flood-opacity="0.161"/>
      <feComposite operator="in" in2="blur"/>
      <feComposite in="SourceGraphic"/>
    </filter>
  </defs>
  <g id="Grupo_1224023" data-name="Grupo 1224023" transform="translate(-1135.776 -9003.5)">
    <g id="Grupo_1223835" data-name="Grupo 1223835" transform="translate(942 1007.447)">
      <g id="Grupo_1223165" data-name="Grupo 1223165" transform="translate(202.776 8002.053)">
        <g id="Grupo_1173585" data-name="Grupo 1173585" transform="translate(0 0)">
          <g id="Grupo_1173428" data-name="Grupo 1173428">
            <g id="Grupo_1171958" data-name="Grupo 1171958">
              <g id="Grupo_1167341" data-name="Grupo 1167341">
                <g id="Grupo_1166792" data-name="Grupo 1166792">
                  <g transform="matrix(1, 0, 0, 1, -9, -6)" filter="url(#Trazado_904820)">
                    <g id="Trazado_904820-2" data-name="Trazado 904820" transform="translate(9 6)" fill="#fcf5f0">
                      <path d="M 37.5 73.5 C 32.63936614990234 73.5 27.9249324798584 72.54837799072266 23.48763275146484 70.67156219482422 C 19.20096588134766 68.85845184326172 15.35082244873047 66.26250457763672 12.04415512084961 62.95583724975586 C 8.737500190734863 59.6491813659668 6.141555786132812 55.79903793334961 4.328444480895996 51.51235961914062 C 2.451622247695923 47.07506942749023 1.5 42.36062622070312 1.5 37.50000381469727 C 1.5 32.63936996459961 2.451622247695923 27.92493629455566 4.328444480895996 23.48763656616211 C 6.141555786132812 19.20096015930176 8.737500190734863 15.35082626342773 12.04415512084961 12.04415893554688 C 15.35082244873047 8.737504005432129 19.20095634460449 6.141559600830078 23.48763275146484 4.328448295593262 C 27.9249324798584 2.451626062393188 32.63936614990234 1.500003814697266 37.5 1.500003814697266 C 42.36063385009766 1.500003814697266 47.07506561279297 2.451626062393188 51.51236724853516 4.328448295593262 C 55.79904556274414 6.141559600830078 59.64917755126953 8.737504005432129 62.95584487915039 12.04415893554688 C 66.26249694824219 15.35082626342773 68.85844421386719 19.20096015930176 70.67155456542969 23.48763656616211 C 72.54837799072266 27.92493629455566 73.5 32.63936996459961 73.5 37.50000381469727 C 73.5 42.36062622070312 72.54837799072266 47.07506942749023 70.67155456542969 51.51235961914062 C 68.85844421386719 55.79903793334961 66.26249694824219 59.6491813659668 62.95584487915039 62.95583724975586 C 59.64917755126953 66.26250457763672 55.79903411865234 68.85845184326172 51.51236724853516 70.67156219482422 C 47.07506561279297 72.54837799072266 42.36063385009766 73.5 37.5 73.5 Z" stroke="none"/>
                      <path d="M 37.5 3.000007629394531 C 32.84121322631836 3.000007629394531 28.3233642578125 3.911766052246094 24.07196426391602 5.709953308105469 C 19.96408843994141 7.447441101074219 16.27420043945312 9.935432434082031 13.10481262207031 13.10481643676758 C 9.9354248046875 16.27420425415039 7.447441101074219 19.96409225463867 5.709953308105469 24.07196807861328 C 3.911766052246094 28.32336807250977 3 32.84120559692383 3 37.50000381469727 C 3 42.15879058837891 3.911766052246094 46.67662811279297 5.709953308105469 50.92802810668945 C 7.447441101074219 55.03591537475586 9.9354248046875 58.72579193115234 13.10481262207031 61.89517974853516 C 16.27421188354492 65.06456756591797 19.96408843994141 67.55256652832031 24.07196426391602 69.29005432128906 C 28.3233642578125 71.08824157714844 32.84121322631836 72 37.5 72 C 42.15878677368164 72 46.6766357421875 71.08824157714844 50.92803955078125 69.29005432128906 C 55.03591156005859 67.55256652832031 58.72578811645508 65.06456756591797 61.89518737792969 61.89517974853516 C 65.0645751953125 58.72579193115234 67.55256652832031 55.03591537475586 69.29004669189453 50.92802810668945 C 71.08823394775391 46.67662811279297 72 42.15879058837891 72 37.50000381469727 C 72 32.84120559692383 71.08823394775391 28.32336807250977 69.29004669189453 24.07196807861328 C 67.55256652832031 19.96409225463867 65.0645751953125 16.27420425415039 61.89518737792969 13.10481643676758 C 58.72579956054688 9.935432434082031 55.03591156005859 7.447441101074219 50.92803955078125 5.709953308105469 C 46.6766357421875 3.911766052246094 42.15878677368164 3.000007629394531 37.5 3.000007629394531 M 37.5 7.62939453125e-06 C 58.21067428588867 7.62939453125e-06 75 16.7893180847168 75 37.50000381469727 C 75 58.21066665649414 58.21067428588867 75 37.5 75 C 16.78932571411133 75 0 58.21066665649414 0 37.50000381469727 C 0 16.7893180847168 16.78932571411133 7.62939453125e-06 37.5 7.62939453125e-06 Z" stroke="none" fill="#eca675"/>
                    </g>
                  </g>
                </g>
              </g>
            </g>
          </g>
        </g>
      </g>
    </g>
    <g id="stress-management_16137544" transform="translate(1111.877 9019.303)">
      <g id="Grupo_1224022" data-name="Grupo 1224022" transform="translate(49.531 1.838)">
        <g id="Grupo_1224019" data-name="Grupo 1224019" transform="translate(0 0)">
          <path id="Trazado_1179703" data-name="Trazado 1179703" d="M98.413,38.845c-.786-4.643-4.51-5.869-4.51-9.168C94.875,17.933,89,9,75.484,9,55.392,9,50.727,34.285,64.747,44.316c.5,8.027-2.852,13.711-3.228,16.4l22.9-.045c0-4.753-3.826-8.282-.7-9.653,1.887-.826,8.035,2.365,9.548.482,1.1-4.724,2.156-3.923,2.156-5.635-2.361-1.8-2.226-2.039.149-2.806l.022-3.687Z" transform="translate(-56.676 -9)" fill="#ffd6bd" fill-rule="evenodd"/>
          <path id="Trazado_1179704" data-name="Trazado 1179704" d="M139.834,38.845c-.786-4.643-4.51-5.869-4.51-9.168C136.295,17.933,130.419,9,116.9,9c-.333,0-.661.008-.985.022,12.727.478,18.256,9.237,17.31,20.655,0,3.3,3.724,4.525,4.51,9.168l-2.81.53-.022,3.687c-2.374.766-2.51,1.008-.149,2.806,0,1.712-1.053.911-2.156,5.635a1.535,1.535,0,0,1-.823.5c1.287.195,2.387.159,2.917-.5,1.1-4.724,2.156-3.923,2.156-5.635-2.361-1.8-2.226-2.039.149-2.806l.022-3.687ZM102.94,60.715l20.809-.041c0-4.753-3.826-8.282-.7-9.653a4.015,4.015,0,0,1,2.1,0l-.008,0c-3.13,1.37.7,4.9.7,9.653l-22.9.045Z" transform="translate(-98.096 -9)" fill="#f9c6aa" fill-rule="evenodd"/>
        </g>
        <g id="Grupo_1224020" data-name="Grupo 1224020" transform="translate(3.657 3.44)">
          <path id="Trazado_1179705" data-name="Trazado 1179705" d="M104.579,41.87h5.195v2.607a13.143,13.143,0,0,1,4.728,1.96l1.844-1.844,3.674,3.674-1.844,1.844a13.151,13.151,0,0,1,1.96,4.728h2.607v5.195h-2.607a13.124,13.124,0,0,1-1.96,4.728l1.844,1.844-3.674,3.674L114.5,68.435a13.151,13.151,0,0,1-4.728,1.96V73h-5.195V70.4a13.124,13.124,0,0,1-4.728-1.96l-1.844,1.844-3.674-3.674,1.844-1.844a13.158,13.158,0,0,1-1.96-4.728H91.61V54.839h2.607a13.143,13.143,0,0,1,1.96-4.728l-1.844-1.844,3.674-3.674,1.844,1.844a13.151,13.151,0,0,1,4.728-1.96Z" transform="translate(-91.61 -41.869)" fill="#ffda2d" fill-rule="evenodd"/>
          <path id="Trazado_1179706" data-name="Trazado 1179706" d="M248.25,44.466a13.173,13.173,0,0,1,5.745,2.71l.749-.749a13.15,13.15,0,0,0-4.728-1.96V41.86H248.25Zm8.4,5.634a13.138,13.138,0,0,1,1.96,4.729h1.763a13.144,13.144,0,0,0-1.96-4.728l1.844-1.844-3.674-3.674-.922.922,2.83,2.751Zm1.96,9.924a13.156,13.156,0,0,1-1.96,4.729L258.5,66.6,255.7,69.386l.883.883,3.674-3.674-1.844-1.844a13.151,13.151,0,0,0,1.96-4.728Zm-4.618,7.653a13.161,13.161,0,0,1-5.745,2.71v2.6h1.765V70.384a13.143,13.143,0,0,0,4.728-1.96Zm7.223-7.653h1.765V54.829h-1.765Z" transform="translate(-231.851 -41.86)" fill="#ffc700" fill-rule="evenodd"/>
          <circle id="Elipse_14749" data-name="Elipse 14749" cx="9.706" cy="9.706" r="9.706" transform="translate(1.837 15.566) rotate(-45)" fill="#eff4f7"/>
          <path id="Trazado_1179707" data-name="Trazado 1179707" d="M157.286,97.83a9.669,9.669,0,0,1,6.3,2.321A9.707,9.707,0,0,0,152.7,116.092a9.708,9.708,0,0,1,4.588-18.262Z" transform="translate(-141.72 -91.97)" fill="#e2e3e3" fill-rule="evenodd"/>
        </g>
        <g id="Grupo_1224021" data-name="Grupo 1224021" transform="translate(12.715 14.298)">
          <path id="Trazado_1179708" data-name="Trazado 1179708" d="M184.014,146.578a3.455,3.455,0,0,0-4.886,4.886l5.5,5.5,5.5-5.5a3.455,3.455,0,0,0-4.886-4.886l-.615.615Z" transform="translate(-178.12 -145.57)" fill="#ff94d5" fill-rule="evenodd"/>
          <path id="Trazado_1179709" data-name="Trazado 1179709" d="M230.29,160.548l1.047,1.047,5.5-5.5a3.456,3.456,0,0,0-.58-5.353,3.467,3.467,0,0,1-.467,4.306Q233.042,157.8,230.29,160.548Z" transform="translate(-224.828 -150.199)" fill="#ff72c7" fill-rule="evenodd"/>
        </g>
      </g>
      <path id="Trazado_1179710" data-name="Trazado 1179710" d="M73.662,21.439l-4.909,4.909-4.909-4.909a2.613,2.613,0,0,1,1.85-4.464h0a2.6,2.6,0,0,1,1.85.762l.615.615a.837.837,0,0,0,1.184,0l.615-.615a2.618,2.618,0,0,1,3.7,3.7Zm-4.886-4.887-.023.023-.023-.023A4.265,4.265,0,0,0,65.7,15.3h0a4.289,4.289,0,0,0-3.035,7.324l5.5,5.5a.839.839,0,0,0,1.185,0l5.5-5.5a4.293,4.293,0,0,0-6.071-6.071Zm-.023,13.161a8.869,8.869,0,1,0-8.869-8.869A8.879,8.879,0,0,0,68.753,29.713Zm0-19.413A10.544,10.544,0,1,0,79.3,20.844,10.556,10.556,0,0,0,68.753,10.3ZM83.482,22.6v-3.52H81.713a.839.839,0,0,1-.822-.674,12.234,12.234,0,0,0-1.835-4.428.837.837,0,0,1,.1-1.057l1.252-1.252-2.489-2.49-1.252,1.252a.837.837,0,0,1-1.057.1A12.249,12.249,0,0,0,71.187,8.7a.838.838,0,0,1-.674-.821V6.116h-3.52V7.885a.837.837,0,0,1-.674.821,12.259,12.259,0,0,0-4.428,1.835.837.837,0,0,1-1.057-.1l-1.25-1.251-2.49,2.49,1.252,1.252a.837.837,0,0,1,.1,1.057,12.249,12.249,0,0,0-1.835,4.428.838.838,0,0,1-.821.674H54.026v3.52h1.769a.836.836,0,0,1,.821.673,12.252,12.252,0,0,0,1.835,4.428.837.837,0,0,1-.1,1.057l-1.252,1.252,2.489,2.49,1.252-1.251a.837.837,0,0,1,1.057-.1,12.288,12.288,0,0,0,4.428,1.836.837.837,0,0,1,.674.821v1.769h3.52V33.807a.836.836,0,0,1,.674-.821,12.278,12.278,0,0,0,4.428-1.835.837.837,0,0,1,1.057.1l1.252,1.251,2.489-2.49-1.252-1.251a.839.839,0,0,1-.1-1.057,12.249,12.249,0,0,0,1.835-4.428.838.838,0,0,1,.822-.673h1.767Zm.838-5.195H82.382a13.9,13.9,0,0,0-1.563-3.772l1.37-1.37a.838.838,0,0,0,0-1.184L78.516,7.408a.839.839,0,0,0-1.185,0l-1.369,1.37a13.934,13.934,0,0,0-3.772-1.564V5.278a.837.837,0,0,0-.838-.838H66.157a.837.837,0,0,0-.838.838V7.215a13.874,13.874,0,0,0-3.772,1.564l-1.37-1.37a.838.838,0,0,0-1.184,0l-3.675,3.674a.839.839,0,0,0,0,1.185l1.37,1.37a13.9,13.9,0,0,0-1.563,3.772H53.187a.837.837,0,0,0-.838.838v5.195a.837.837,0,0,0,.838.838h1.937a13.918,13.918,0,0,0,1.563,3.772l-1.37,1.37a.838.838,0,0,0,0,1.184l3.674,3.674a.837.837,0,0,0,1.185,0l1.37-1.37a13.869,13.869,0,0,0,3.772,1.564v1.937a.837.837,0,0,0,.838.838h5.195a.837.837,0,0,0,.838-.838V34.474a13.9,13.9,0,0,0,3.772-1.563l1.37,1.369a.836.836,0,0,0,1.184,0l3.674-3.674a.838.838,0,0,0,0-1.184l-1.37-1.37a13.9,13.9,0,0,0,1.564-3.772h1.937a.837.837,0,0,0,.838-.838V18.248a.838.838,0,0,0-.838-.839ZM88.3,31.39l1.963-.371a10.807,10.807,0,0,0-2.282-4c-1.062-1.338-2.064-2.6-2.064-4.5q0-.035,0-.069c.511-6.169-.91-11.265-4.106-14.738C78.74,4.368,74.206,2.675,68.337,2.675c-8.223,0-14.584,4.525-17.016,12.1-2.589,8.07.194,16.99,6.766,21.692a.836.836,0,0,1,.349.629,33.351,33.351,0,0,1-2.349,13.617c-.26.742-.5,1.422-.665,2L76.4,52.677A16.29,16.29,0,0,0,75.3,48.639a9.724,9.724,0,0,1-.793-3.015,2.577,2.577,0,0,1,1.733-2.532c1.07-.469,2.718-.069,4.626.394,1.532.372,3.8.922,4.5.43a10.982,10.982,0,0,1,1.735-4.25,1.645,1.645,0,0,0,.311-.574c-1.136-.884-1.792-1.53-1.652-2.345.131-.766.885-1.128,1.838-1.454l.018-3.085a.837.837,0,0,1,.682-.819Zm3.791.154a11.687,11.687,0,0,0-2.8-5.568c-.942-1.188-1.689-2.129-1.7-3.429.541-6.631-1.03-12.154-4.547-15.973a16.162,16.162,0,0,0-6.12-4.111A23.7,23.7,0,0,0,68.337,1,19.67,19.67,0,0,0,56.2,4.882a19.067,19.067,0,0,0-6.474,9.386,22.115,22.115,0,0,0-.18,12.755,19.93,19.93,0,0,0,7.24,10.571,31.756,31.756,0,0,1-2.28,12.57,19.08,19.08,0,0,0-.962,3.277.837.837,0,0,0,.829.953h0l22.9-.044a.838.838,0,0,0,.837-.838,15.584,15.584,0,0,0-1.238-5.453c-.933-2.529-.927-3.01.04-3.433.553-.243,2.221.162,3.561.487,2.513.609,5.11,1.24,6.3-.248a.835.835,0,0,0,.162-.334,9.852,9.852,0,0,1,1.535-3.909,2.891,2.891,0,0,0,.643-1.916.841.841,0,0,0-.33-.667,14.286,14.286,0,0,1-1.17-.961c.344-.148.86-.313,1.07-.381a.837.837,0,0,0,.58-.793l.018-3,2.132-.4a.836.836,0,0,0,.671-.961Z" fill-rule="evenodd"/>
    </g>
  </g>
</svg>
