<svg xmlns="http://www.w3.org/2000/svg" xmlns:xlink="http://www.w3.org/1999/xlink" width="93" height="93" viewBox="0 0 93 93">
  <defs>
    <filter id="Trazado_904820" x="0" y="0" width="93" height="93" filterUnits="userSpaceOnUse">
      <feOffset dy="3" input="SourceAlpha"/>
      <feGaussianBlur stdDeviation="3" result="blur"/>
      <feFlood flood-opacity="0.161"/>
      <feComposite operator="in" in2="blur"/>
      <feComposite in="SourceGraphic"/>
    </filter>
  </defs>
  <g id="Grupo_1223936" data-name="Grupo 1223936" transform="translate(-613.776 -1716.5)">
    <g id="Grupo_1223825" data-name="Grupo 1223825" transform="translate(420 -6279.553)">
      <g id="Grupo_1223165" data-name="Grupo 1223165" transform="translate(202.776 8002.053)">
        <g id="Grupo_1173585" data-name="Grupo 1173585" transform="translate(0 0)">
          <g id="Grupo_1173428" data-name="Grupo 1173428">
            <g id="Grupo_1171958" data-name="Grupo 1171958">
              <g id="Grupo_1167341" data-name="Grupo 1167341">
                <g id="Grupo_1166792" data-name="Grupo 1166792">
                  <g transform="matrix(1, 0, 0, 1, -9, -6)" filter="url(#Trazado_904820)">
                    <g id="Trazado_904820-2" data-name="Trazado 904820" transform="translate(9 6)" fill="#fcf5f0">
                      <path d="M 37.5 73.5 C 32.63936614990234 73.5 27.9249324798584 72.54837799072266 23.48763275146484 70.67156219482422 C 19.20096588134766 68.85845184326172 15.35082244873047 66.26250457763672 12.04415512084961 62.95583724975586 C 8.737500190734863 59.6491813659668 6.141555786132812 55.79903793334961 4.328444480895996 51.51235961914062 C 2.451622247695923 47.07506942749023 1.5 42.36062622070312 1.5 37.50000381469727 C 1.5 32.63936996459961 2.451622247695923 27.92493629455566 4.328444480895996 23.48763656616211 C 6.141555786132812 19.20096015930176 8.737500190734863 15.35082626342773 12.04415512084961 12.04415893554688 C 15.35082244873047 8.737504005432129 19.20095634460449 6.141559600830078 23.48763275146484 4.328448295593262 C 27.9249324798584 2.451626062393188 32.63936614990234 1.500003814697266 37.5 1.500003814697266 C 42.36063385009766 1.500003814697266 47.07506561279297 2.451626062393188 51.51236724853516 4.328448295593262 C 55.79904556274414 6.141559600830078 59.64917755126953 8.737504005432129 62.95584487915039 12.04415893554688 C 66.26249694824219 15.35082626342773 68.85844421386719 19.20096015930176 70.67155456542969 23.48763656616211 C 72.54837799072266 27.92493629455566 73.5 32.63936996459961 73.5 37.50000381469727 C 73.5 42.36062622070312 72.54837799072266 47.07506942749023 70.67155456542969 51.51235961914062 C 68.85844421386719 55.79903793334961 66.26249694824219 59.6491813659668 62.95584487915039 62.95583724975586 C 59.64917755126953 66.26250457763672 55.79903411865234 68.85845184326172 51.51236724853516 70.67156219482422 C 47.07506561279297 72.54837799072266 42.36063385009766 73.5 37.5 73.5 Z" stroke="none"/>
                      <path d="M 37.5 3.000007629394531 C 32.84121322631836 3.000007629394531 28.3233642578125 3.911766052246094 24.07196426391602 5.709953308105469 C 19.96408843994141 7.447441101074219 16.27420043945312 9.935432434082031 13.10481262207031 13.10481643676758 C 9.9354248046875 16.27420425415039 7.447441101074219 19.96409225463867 5.709953308105469 24.07196807861328 C 3.911766052246094 28.32336807250977 3 32.84120559692383 3 37.50000381469727 C 3 42.15879058837891 3.911766052246094 46.67662811279297 5.709953308105469 50.92802810668945 C 7.447441101074219 55.03591537475586 9.9354248046875 58.72579193115234 13.10481262207031 61.89517974853516 C 16.27421188354492 65.06456756591797 19.96408843994141 67.55256652832031 24.07196426391602 69.29005432128906 C 28.3233642578125 71.08824157714844 32.84121322631836 72 37.5 72 C 42.15878677368164 72 46.6766357421875 71.08824157714844 50.92803955078125 69.29005432128906 C 55.03591156005859 67.55256652832031 58.72578811645508 65.06456756591797 61.89518737792969 61.89517974853516 C 65.0645751953125 58.72579193115234 67.55256652832031 55.03591537475586 69.29004669189453 50.92802810668945 C 71.08823394775391 46.67662811279297 72 42.15879058837891 72 37.50000381469727 C 72 32.84120559692383 71.08823394775391 28.32336807250977 69.29004669189453 24.07196807861328 C 67.55256652832031 19.96409225463867 65.0645751953125 16.27420425415039 61.89518737792969 13.10481643676758 C 58.72579956054688 9.935432434082031 55.03591156005859 7.447441101074219 50.92803955078125 5.709953308105469 C 46.6766357421875 3.911766052246094 42.15878677368164 3.000007629394531 37.5 3.000007629394531 M 37.5 7.62939453125e-06 C 58.21067428588867 7.62939453125e-06 75 16.7893180847168 75 37.50000381469727 C 75 58.21066665649414 58.21067428588867 75 37.5 75 C 16.78932571411133 75 0 58.21066665649414 0 37.50000381469727 C 0 16.7893180847168 16.78932571411133 7.62939453125e-06 37.5 7.62939453125e-06 Z" stroke="none" fill="#eca675"/>
                    </g>
                  </g>
                </g>
              </g>
            </g>
          </g>
        </g>
      </g>
    </g>
    <g id="transmission_7816008" transform="translate(630.78 1730.78)">
      <g id="Grupo_1223934" data-name="Grupo 1223934" transform="translate(0.913 3.653)">
        <g id="Grupo_1223931" data-name="Grupo 1223931" transform="translate(0 11.871)">
          <path id="Trazado_1179510" data-name="Trazado 1179510" d="M11.479,21.566V19.739a2.739,2.739,0,0,0-5.479,0v1.826a2.739,2.739,0,0,0,5.479,0Z" transform="translate(-1.434 -17)" fill="#32addb"/>
          <path id="Trazado_1179511" data-name="Trazado 1179511" d="M13.784,25H2.826A1.826,1.826,0,0,0,1,26.826v7.305H4.653V45.089h7.305V34.131H15.61V26.826A1.826,1.826,0,0,0,13.784,25Z" transform="translate(-1 -17.695)" fill="#32addb"/>
        </g>
        <g id="Grupo_1223932" data-name="Grupo 1223932" transform="translate(42.004 11.871)">
          <path id="Trazado_1179512" data-name="Trazado 1179512" d="M57.479,21.566V19.739a2.739,2.739,0,1,0-5.479,0v1.826a2.739,2.739,0,0,0,5.479,0Z" transform="translate(-47.434 -17)" fill="#32addb"/>
          <path id="Trazado_1179513" data-name="Trazado 1179513" d="M59.784,25H48.826A1.826,1.826,0,0,0,47,26.826v7.305h3.653V45.089h7.305V34.131H61.61V26.826A1.826,1.826,0,0,0,59.784,25Z" transform="translate(-47 -17.695)" fill="#32addb"/>
        </g>
        <g id="Grupo_1223933" data-name="Grupo 1223933" transform="translate(20.089)">
          <rect id="Rect치ngulo_421846" data-name="Rect치ngulo 421846" width="16" height="11" rx="4" transform="translate(0.218 -0.432)" fill="#799117"/>
          <rect id="Rect치ngulo_421847" data-name="Rect치ngulo 421847" width="16" height="11" rx="4" transform="translate(0.218 40.568)" fill="#799117"/>
        </g>
      </g>
      <g id="Grupo_1223935" data-name="Grupo 1223935" transform="translate(0)">
        <path id="Trazado_1179514" data-name="Trazado 1179514" d="M22,26.652a.913.913,0,0,0,.913.913h13.7l-1.461,1.1a.913.913,0,1,0,1.1,1.461L39.9,27.383a.913.913,0,0,0,0-1.461l-3.653-2.739a.913.913,0,1,0-1.1,1.461l1.461,1.1h-13.7a.913.913,0,0,0-.913.913Z" transform="translate(-1.911 -1.998)"/>
        <path id="Trazado_1179515" data-name="Trazado 1179515" d="M22.365,37.383l3.653,2.739a.913.913,0,0,0,1.1-1.461l-1.461-1.1h13.7a.913.913,0,1,0,0-1.826h-13.7l1.461-1.1a.913.913,0,1,0-1.1-1.461l-3.653,2.739a.913.913,0,0,0,0,1.461Z" transform="translate(-1.911 -2.867)"/>
        <path id="Trazado_1179516" data-name="Trazado 1179516" d="M13.946,50.748c.457.437.943.862,1.443,1.262l1.141-1.425c-.457-.367-.9-.757-1.322-1.158l-1.262,1.32Z" transform="translate(-1.212 -4.294)"/>
        <path id="Trazado_1179517" data-name="Trazado 1179517" d="M47.187,50.474l1.156,1.414c.489-.4.97-.825,1.43-1.268L48.506,49.3c-.425.408-.868.8-1.319,1.171Z" transform="translate(-4.099 -4.283)"/>
        <path id="Trazado_1179518" data-name="Trazado 1179518" d="M15.006,14.52,13.738,13.2c-.457.441-.9.909-1.321,1.389l1.377,1.2c.384-.441.792-.869,1.212-1.274Z" transform="translate(-1.079 -1.147)"/>
        <path id="Trazado_1179519" data-name="Trazado 1179519" d="M51.15,14.554c-.424-.474-.87-.935-1.329-1.372L48.561,14.5c.423.4.836.83,1.227,1.268Z" transform="translate(-4.219 -1.145)"/>
        <path id="Trazado_1179520" data-name="Trazado 1179520" d="M15.437,11.708l1.149,1.42c.452-.365.928-.717,1.414-1.045l-1.021-1.514c-.53.357-1.048.741-1.541,1.14Z" transform="translate(-1.341 -0.918)"/>
        <path id="Trazado_1179521" data-name="Trazado 1179521" d="M48.126,11.69c-.49-.4-1.006-.783-1.531-1.144l-1.034,1.506c.485.332.961.688,1.414,1.056l1.151-1.418Z" transform="translate(-3.958 -0.916)"/>
        <path id="Trazado_1179522" data-name="Trazado 1179522" d="M41.828,8.218H40V7.305a4.539,4.539,0,0,0-1.464-3.329L39.8,2.4a.913.913,0,1,0-1.425-1.14L36.963,3.022a4.515,4.515,0,0,0-1.527-.282H31.784V.913a.913.913,0,0,0-1.826,0V2.739H26.305a4.511,4.511,0,0,0-1.527.282L23.366,1.256A.913.913,0,0,0,21.94,2.4L23.2,3.976a4.539,4.539,0,0,0-1.464,3.329v.913H19.913a.913.913,0,0,0,0,1.826h1.826v.913A4.539,4.539,0,0,0,23.2,14.287L21.94,15.866a.913.913,0,0,0,1.425,1.14l1.413-1.765a4.515,4.515,0,0,0,1.527.282h3.653v1.826a.913.913,0,0,0,1.826,0V15.523h3.653a4.511,4.511,0,0,0,1.527-.282l1.413,1.765a.913.913,0,1,0,1.425-1.14l-1.263-1.579A4.539,4.539,0,0,0,40,10.958v-.913h1.826a.913.913,0,0,0,0-1.826ZM26.305,13.7a2.743,2.743,0,0,1-2.739-2.739V7.305a2.743,2.743,0,0,1,2.739-2.739h9.131a2.743,2.743,0,0,1,2.739,2.739v3.653A2.743,2.743,0,0,1,35.436,13.7Z" transform="translate(-1.651)"/>
        <path id="Trazado_1179523" data-name="Trazado 1179523" d="M36.871,8a.913.913,0,0,0-.913.913.814.814,0,0,1-.794.906,4.414,4.414,0,0,1-.219-.4C34.678,8.888,34.234,8,33.214,8s-1.465.888-1.729,1.418c-.028.057-.061.123-.1.19-.035-.066-.068-.132-.1-.19C31.027,8.888,30.584,8,29.563,8S28.1,8.889,27.835,9.42a4.375,4.375,0,0,1-.215.4.813.813,0,0,1-.792-.9.913.913,0,0,0-1.826,0,2.662,2.662,0,0,0,2.739,2.739c1.022,0,1.465-.888,1.729-1.419.027-.056.06-.121.094-.186.035.065.068.131.095.188.266.531.709,1.418,1.729,1.418s1.465-.888,1.73-1.418c.028-.057.062-.125.1-.191.036.067.069.135.1.193.267.53.711,1.416,1.731,1.416a2.662,2.662,0,0,0,2.739-2.739A.913.913,0,0,0,36.872,8Z" transform="translate(-2.172 -0.695)"/>
        <path id="Trazado_1179524" data-name="Trazado 1179524" d="M41.828,52.218H40v-.913a4.539,4.539,0,0,0-1.464-3.329L39.8,46.4a.913.913,0,1,0-1.425-1.14l-1.413,1.765a4.515,4.515,0,0,0-1.527-.282H31.784V44.913a.913.913,0,1,0-1.826,0v1.826H26.305a4.511,4.511,0,0,0-1.527.282l-1.413-1.765A.913.913,0,0,0,21.94,46.4L23.2,47.976a4.539,4.539,0,0,0-1.464,3.329v.913H19.913a.913.913,0,1,0,0,1.826h1.826v.913A4.539,4.539,0,0,0,23.2,58.287L21.94,59.866a.913.913,0,0,0,1.425,1.14l1.413-1.765a4.515,4.515,0,0,0,1.527.282h3.653v1.826a.913.913,0,0,0,1.826,0V59.523h3.653a4.511,4.511,0,0,0,1.527-.282l1.413,1.765a.913.913,0,0,0,1.425-1.14l-1.263-1.579A4.539,4.539,0,0,0,40,54.958v-.913h1.826a.913.913,0,0,0,0-1.826ZM26.305,57.7a2.743,2.743,0,0,1-2.739-2.739V51.305a2.743,2.743,0,0,1,2.739-2.739h9.131a2.743,2.743,0,0,1,2.739,2.739v3.653A2.743,2.743,0,0,1,35.436,57.7Z" transform="translate(-1.651 -3.822)"/>
        <path id="Trazado_1179525" data-name="Trazado 1179525" d="M36.871,52a.913.913,0,0,0-.913.913.814.814,0,0,1-.794.906,4.415,4.415,0,0,1-.219-.4c-.267-.53-.711-1.416-1.731-1.416s-1.465.888-1.729,1.418c-.028.057-.061.123-.1.19-.035-.066-.068-.132-.1-.19C31.027,52.888,30.584,52,29.563,52s-1.465.888-1.729,1.419a4.374,4.374,0,0,1-.215.4.813.813,0,0,1-.792-.9.913.913,0,1,0-1.826,0,2.662,2.662,0,0,0,2.739,2.739c1.022,0,1.465-.888,1.729-1.419.027-.056.06-.121.094-.186.035.065.068.131.095.188.266.531.709,1.418,1.729,1.418s1.465-.888,1.73-1.418c.028-.057.062-.125.1-.191.036.067.069.135.1.193.267.53.711,1.416,1.731,1.416a2.662,2.662,0,0,0,2.739-2.739A.913.913,0,0,0,36.872,52Z" transform="translate(-2.172 -4.517)"/>
        <path id="Trazado_1179526" data-name="Trazado 1179526" d="M13.7,23.305H11.363a3.606,3.606,0,0,0,.508-1.826V19.653a3.653,3.653,0,1,0-7.305,0v1.826a3.615,3.615,0,0,0,.508,1.826H2.739A2.743,2.743,0,0,0,0,26.044v7.305a.913.913,0,0,0,.913.913H3.653V44.307a.913.913,0,0,0,.913.913h7.305a.913.913,0,0,0,.913-.913V34.263h2.739a.913.913,0,0,0,.913-.913V26.044A2.743,2.743,0,0,0,13.7,23.305ZM6.392,21.479V19.653a1.826,1.826,0,1,1,3.653,0v1.826a1.826,1.826,0,1,1-3.653,0ZM14.61,32.436H12.784V27.871H10.958V43.394H9.131V34.263H7.305v9.131H5.479V27.871H3.653v4.566H1.826V26.044a.915.915,0,0,1,.913-.913H13.7a.915.915,0,0,1,.913.913Z" transform="translate(0 -1.39)"/>
        <path id="Trazado_1179527" data-name="Trazado 1179527" d="M59.7,23.305H57.363a3.606,3.606,0,0,0,.508-1.826V19.653a3.653,3.653,0,1,0-7.305,0v1.826a3.615,3.615,0,0,0,.508,1.826H48.739A2.743,2.743,0,0,0,46,26.044v7.305a.913.913,0,0,0,.913.913h2.739V44.307a.913.913,0,0,0,.913.913h7.305a.913.913,0,0,0,.913-.913V34.263h2.739a.913.913,0,0,0,.913-.913V26.044A2.743,2.743,0,0,0,59.7,23.305Zm-7.305-1.826V19.653a1.826,1.826,0,1,1,3.653,0v1.826a1.826,1.826,0,0,1-3.653,0ZM60.61,32.436H58.784V27.871H56.958V43.394H55.131V34.263H53.305v9.131H51.479V27.871H49.653v4.566H47.826V26.044a.915.915,0,0,1,.913-.913H59.7a.915.915,0,0,1,.913.913Z" transform="translate(-3.996 -1.39)"/>
      </g>
    </g>
  </g>
</svg>
